<?xml version="1.0" standalone="no"?>
<!DOCTYPE svg PUBLIC "-//W3C//DTD SVG 1.1//EN" "http://www.w3.org/Graphics/SVG/1.1/DTD/svg11.dtd" >
<svg>
<metadata>
Created by FontForge 20090914 at Mon Mar  9 08:59:21 2020
 By www-data
www.rodrigotypo.com // Rodrigo Araya Salas
</metadata>
<defs>
<font id="" horiz-adv-x="915" >
  <font-face 
    font-family="ø"
    font-weight="400"
    font-stretch="normal"
    units-per-em="2048"
    panose-1="0 0 5 0 0 0 0 0 0 0"
    ascent="1536"
    descent="-512"
    x-height="927.999"
    cap-height="1233"
    bbox="-212.424 -756.412 2901.56 1853.52"
    underline-thickness="0"
    underline-position="0"
    unicode-range="U+000D-U+FB00"
  />
<missing-glyph horiz-adv-x="405" 
 />
    <glyph glyph-name="uniFB00" unicode="ff" horiz-adv-x="1581" 
d="M594 868l79.9971 0.00292969c56 0 94 -17 114 -51c10.667 -18 14.834 -43.333 12.501 -76s-11.166 -55.667 -26.499 -69c-30 -27.333 -69.667 -42.333 -119 -45c-15.333 -1.33301 -36.333 -2 -63 -2h-66c0 -79.333 0.666992 -137.333 2 -174
c1.33301 -96.667 -1.33398 -178 -8.00098 -244c-8 -79.333 -34.667 -130 -80 -152c-23.333 -16.667 -55.666 -21.5 -96.999 -14.5s-70.333 26.167 -87 57.5c-31.333 60 -45.666 146 -42.999 258c0 56 -0.666992 94.333 -2 115c-1.33301 15.333 -2 39.333 -2 72
c0 35.333 -0.666992 62.666 -2 81.999c-58.667 0 -99.667 5.33301 -123 16c-40.667 19.333 -61 53.333 -61 102c0 57.333 19.667 95.666 59 114.999c22 10.667 65 14.667 129 12c2.66699 76.667 6 132 10 166c10.667 109.333 38.667 191.333 84 246
c49.333 61.333 130 92 242 92c78 0 138.667 -7.33301 182 -22c69.333 -24.667 105 -71.334 107 -140.001c1.33301 -56 -9.66699 -97.167 -33 -123.5s-62.333 -42.5 -117 -48.5c-5.33301 0 -13.5 -1 -24.5 -3s-19.833 -3.66699 -26.5 -5
c-34 -5.33301 -59.333 -20.333 -76 -45c-8 -12 -14 -25.667 -18 -41c-4 -16.667 -7.66699 -42.667 -11 -78h64zM1378 811.003l80.001 0.00195312c56 0 94.333 -17 115 -51c10.667 -18 14.667 -43.333 12 -76s-11.334 -56 -26.001 -70c-30 -27.333 -69.667 -42.333 -119 -45
c-15.333 -1.33301 -36.666 -2 -63.999 -2h-65c0 -79.333 0.666992 -137.333 2 -174c1.33301 -96.667 -1.33398 -177.667 -8.00098 -243c-8 -79.333 -34.667 -130 -80 -152c-23.333 -16.667 -55.833 -21.5 -97.5 -14.5s-70.834 26.167 -87.501 57.5
c-31.333 60 -45.666 146 -42.999 258c0 56 -0.666992 94.333 -2 115c-1.33301 15.333 -2 39 -2 71c0 35.333 -0.666992 62.666 -2 81.999c-58.667 0 -99.667 5.66699 -123 17c-40.667 19.333 -61 53.333 -61 102c0 57.333 19.667 95.666 59 114.999
c22 10.667 65 14.667 129 12c2.66699 76.667 6.33398 132 11.001 166c10.667 109.333 38.667 191.333 84 246c49.333 61.333 129.666 92 240.999 92c78 0 138.667 -7.66699 182 -23c69.333 -24.667 105 -71 107 -139c1.33301 -56 -9.66699 -97.333 -33 -124
s-62.333 -42.667 -117 -48c-5.33301 0 -13.333 -1 -24 -3l-27 -5c-34 -5.33301 -59.333 -20.333 -76 -45c-8 -12 -14 -25.667 -18 -41c-4 -16.667 -7.33301 -42.667 -10 -78h63z" />
    <glyph glyph-name="a_a.liga" unicode="aa" horiz-adv-x="2019" 
d="M614 903c30 83.333 87.333 128.336 172 135.003c56 1.33301 97 -15 123 -49c20.667 -28.667 35.667 -74.334 45 -137.001c5.33301 -31.333 9.66602 -80.333 12.999 -147c2.66699 -86 3.33398 -153 2.00098 -201c-2.66699 -131.333 -11 -227 -25 -287
c-22 -96.667 -65 -145.667 -129 -147c-32.667 0 -64 6 -94 18c-16.667 4 -29 8.66699 -37 14c-12 4 -24.333 6.33301 -37 7c-8 0 -18.333 -3 -31 -9c-40.667 -18 -85 -31 -133 -39c-28.667 -5.33301 -60 -7.33301 -94 -6c-116 5.33301 -205.333 49.666 -268 132.999
c-56 74 -82.667 172.333 -80 295c2.66699 109.333 38 203.666 106 282.999c70.667 79.333 159 127 265 143c64 8 131.333 6 202 -6zM631 643.003c-49.333 16.667 -94.333 22 -135 16c-44 -8 -79.333 -29 -106 -63s-38 -76.333 -34 -127
c2.66699 -42 16.334 -76.667 41.001 -104c27.333 -30 59.666 -45.333 96.999 -46c48 0 95 15.333 141 46c-1.33301 12 -2 33 -2 63v74v76c-1.33301 16 -2 37.667 -2 65zM1606 989.003c28.667 82 79.6689 126.334 153.002 133.001c50.667 1.33301 87.667 -15 111 -49
c18 -27.333 31.667 -71.666 41 -132.999c5.33301 -32.667 9.33301 -81 12 -145c1.33301 -20.667 2 -53 2 -97c0 -98 -1.33301 -179.667 -4 -245c-4 -108 -23 -186.667 -57 -236c-18 -26 -44 -40.333 -78 -43c-28.667 0 -56.667 6.33301 -84 19
c-16.667 5.33301 -28.334 10 -35.001 14c-10.667 4 -21.667 6 -33 6c-6.66699 0 -16 -2.66699 -28 -8c-38 -18 -77.667 -31 -119 -39c-86 -18 -161.667 -7 -227 33c-80.667 46.667 -132.667 121 -156 223c-27.333 109.333 -23.333 211.666 12 306.999
c32.667 95.333 90.667 167.666 174 216.999c85.333 52 190.666 66.333 315.999 43zM1620 735.004c-44 16.667 -85 22.333 -123 17c-38 -8 -69.333 -28.5 -94 -61.5s-35 -74.833 -31 -125.5c1.33301 -39.333 14 -74 38 -104s52.333 -44.333 85 -43c42 0 85 15 129 45
c-1.33301 10.667 -2 31 -2 61v72v74c-1.33301 16 -2 37.667 -2 65z" />
    <glyph glyph-name="b_b.liga" unicode="bb" horiz-adv-x="2045" 
d="M449 825c61.333 20.667 131.332 29.6709 209.999 27.0039c113.333 -4 202.166 -41.167 266.499 -111.5s97.833 -162.833 100.5 -277.5c2.66699 -128.667 -26.666 -234.667 -87.999 -318c-66.667 -92.667 -161.667 -141.667 -285 -147c-57.333 -1.33301 -109 7 -155 25
c-12 4 -27.667 10.667 -47 20c-10.667 5.33301 -19.667 8 -27 8c-12 0 -23.667 -2 -35 -6c-32.667 -13.333 -59.334 -22.333 -80.001 -27c-15.333 -4 -32.333 -6 -51 -6c-65.333 1.33301 -107.666 50.666 -126.999 147.999c-12 54.667 -19.333 150 -22 286
c-1.33301 22 -1.33301 53 0 93c0 54.667 0.666992 97.667 2 129c0 75.333 2.66699 168.666 8 279.999c2.66699 42 4.66699 79 6 111c4 58.667 10.667 105 20 139c15.333 49.333 42 82.666 80 99.999c19.333 9.33301 47.833 12.833 85.5 10.5s65.834 -11.166 84.501 -26.499
c35.333 -28.667 53.333 -75.667 54 -141c-1.33301 -20.667 -2.33301 -51.334 -3 -92.001c0 -58.667 1 -102.334 3 -131.001v-93zM441.999 575.004c-1.33301 -12 -2 -33.6641 -2 -64.9971v-76c0 -34 0.666992 -58.667 2 -74v-63c38 -24.667 78.333 -36.334 121 -35.001
c45.333 0 81.666 13.667 108.999 41s42.333 63.666 45 108.999c2.66699 53.333 -8.66602 97.666 -33.999 132.999s-61.333 54.333 -108 57c-54.667 6.66699 -99 -2.33301 -133 -27zM1434 797.007c61.333 20.667 131.665 29.3359 210.998 26.0029
c113.333 -4 202 -41.167 266 -111.5s97.333 -162.833 100 -277.5c2.66699 -128.667 -26.666 -234.334 -87.999 -317.001c-66.667 -92.667 -161.667 -142 -285 -148c-57.333 -1.33301 -109 7 -155 25c-12 4 -27.667 10.667 -47 20c-10.667 5.33301 -19.667 8.33301 -27 9
c-13.333 0 -25 -2.33301 -35 -7c-32.667 -13.333 -59.334 -22 -80.001 -26c-13.333 -4 -30.333 -6 -51 -6c-65.333 1.33301 -107.666 50.333 -126.999 147c-12 54.667 -19.333 150.334 -22 287.001c-2.66699 22 -2.66699 52.667 0 92c0 54.667 0.666992 97.667 2 129
c0 75.333 2.66699 169 8 281c1.33301 42 3.33301 78.667 6 110c4 58.667 10.667 105 20 139c15.333 49.333 42 83 80 101c19.333 9.33301 47.833 12.666 85.5 9.99902s65.834 -11.667 84.501 -27c35.333 -28.667 53.333 -75.667 54 -141
c-1.33301 -20.667 -2 -51.334 -2 -92.001c0 -58.667 0.666992 -102.334 2 -131.001v-92zM1427 547.009c-1.33301 -12 -2.00098 -33.9961 -2.00098 -65.9961v-75c0 -34 0.666992 -58.667 2 -74v-64c38 -24.667 78.333 -36.334 121 -35.001c44 0 80 13.667 108 41
s43.333 63.666 46 108.999c2.66699 53.333 -8.66602 97.666 -33.999 132.999s-61 54.333 -107 57c-55.333 7.33301 -100 -1.33398 -134 -26.001z" />
    <glyph glyph-name="c_c.liga" unicode="cc" horiz-adv-x="1568" 
d="M86 434c0 121.333 30.6641 227.332 91.9971 317.999c72.667 106.667 184.667 170 336 190c60 6.66699 111.333 2 154 -14c45.333 -20.667 70.333 -53 75 -97c2.66699 -40.667 -2.66602 -73 -15.999 -97s-38.666 -43.333 -75.999 -58c-18 -8 -41.667 -14.333 -71 -19
c-69.333 -9.33301 -121.333 -35 -156 -77c-24.667 -31.333 -37.667 -75.833 -39 -133.5s11.667 -102.167 39 -133.5c48 -53.333 115 -78.333 201 -75c66.667 0 109 -19.333 127 -58c19.333 -44 17 -89 -7 -135c-24.667 -49.333 -75 -78.666 -151 -87.999
c-39.333 -6.66699 -77.666 -6.66699 -114.999 0c-142 15.333 -245.667 72.666 -311 171.999c-54.667 80.667 -82 182.334 -82 305.001zM767.997 515.999c0 112 34 209.668 102 293.001c80.667 100 202.334 158 365.001 174c61.333 6.66699 117.333 1.33398 168 -15.999
c49.333 -16.667 76.666 -45.334 81.999 -86.001c6.66699 -69.333 -27 -117.333 -101 -144c-28.667 -8 -54.334 -13.333 -77.001 -16c-79.333 -10.667 -136 -34.667 -170 -72c-26 -28.667 -39.667 -68.834 -41 -120.501s12.334 -92.5 41.001 -122.5
c48 -46.667 121.667 -70 221 -70c74 0 119.667 -17.667 137 -53c19.333 -39.333 17.333 -80.333 -6 -123c-26 -44 -81.333 -70.667 -166 -80c-44 -6.66699 -85.667 -6.66699 -125 0c-152.667 13.333 -266 66 -340 158c-60 73.333 -90 166 -90 278z" />
    <glyph glyph-name="d_d.liga" unicode="dd" horiz-adv-x="1968" 
d="M623 770c0 49.333 0.667969 88.333 2.00098 117c0 57.333 -0.666992 100.333 -2 129c0 74 8.66699 128 26 162c24.667 45.333 67 70.333 127 75c56 1.33301 98.333 -15 127 -49c20.667 -28.667 35.667 -74.334 45 -137.001c0 -2.66699 0.333008 -6.33398 1 -11.001
s1.33398 -11.167 2.00098 -19.5s1 -15.833 1 -22.5v-92v-119c-1.33301 -28.667 -2 -71.667 -2 -129c0 -75.333 0.666992 -130 2 -164c1.33301 -75.333 0 -164.666 -4 -267.999c-4 -112 -23.667 -192.667 -59 -242c-20.667 -27.333 -49.334 -41.666 -86.001 -42.999
c-31.333 0 -62 6 -92 18c-16.667 4 -29 9 -37 15c-12 4 -24.333 6 -37 6c-8 0 -17.667 -2.66699 -29 -8c-38 -15.333 -77.667 -26.333 -119 -33c-26 -5.33301 -56.667 -7.33301 -92 -6c-118.667 5.33301 -211.5 45.166 -278.5 119.499s-98.833 171.5 -95.5 291.5
c2.66699 114.667 36 212.334 100 293.001c72.667 90 169 138 289 144c79.333 2.66699 149.666 -6.33301 210.999 -27zM618.001 520c-34 24.667 -78.333 33.667 -133 27c-46.667 -2.66699 -82.5 -21.834 -107.5 -57.501s-36.167 -80.167 -33.5 -133.5
c2.66699 -45.333 18 -81.5 46 -108.5s64.667 -40.5 110 -40.5c42 -1.33301 81.333 10.334 118 35.001c0 26 1 47 3 63v74v76c-0.666992 31.333 -1.66699 53 -3 65zM1581 696c0 46.667 0.667969 84.3389 2.00098 113.006c0 57.333 -0.666992 100.333 -2 129
c0 72.667 8.33301 126 25 160c22 44 60 68.333 114 73c52 1.33301 91 -15 117 -49c19.333 -28.667 33.666 -73.667 42.999 -135c1.33301 -6.66699 2 -24.334 2 -53.001v-90v-117c-1.33301 -28.667 -2 -71 -2 -127c0 -74 0.666992 -127.333 2 -160
c1.33301 -50.667 1.33301 -89.334 0 -116.001c-1.33301 -16.667 -2 -41.334 -2 -74.001s-0.666992 -57.334 -2 -74.001c-2.66699 -110.667 -20.334 -189.667 -53.001 -237c-18 -27.333 -44.667 -41.666 -80 -42.999c-28.667 0 -56.667 6 -84 18
c-16.667 5.33301 -28.334 10 -35.001 14c-10.667 4 -21.667 6 -33 6c-6.66699 0 -14.667 -2.66699 -24 -8c-38 -16.667 -75 -27.334 -111 -32.001c-24.667 -6.66699 -52.667 -9 -84 -7c-109.333 5.33301 -194.666 44.666 -255.999 117.999s-90.666 169.333 -87.999 288
c2.66699 109.333 34 205.666 94 288.999c62.667 87.333 150 133.666 262 138.999c66 2.66699 131 -5.66602 195 -24.999zM1577 451.005c-38 23.333 -79.001 31.332 -123.001 23.999c-42 -2.66699 -74.667 -21.334 -98 -56.001s-33.666 -78 -30.999 -130
c2.66699 -45.333 17 -81.333 43 -108s59.333 -40 100 -40c38 -1.33301 74.333 10.334 109 35.001c0 24.667 0.666992 45.334 2 62.001v73v74c0 32 -0.666992 54 -2 66z" />
    <glyph glyph-name="e_e.liga" unicode="ee" horiz-adv-x="1744" 
d="M41 514c0 110.667 19.665 206.332 58.998 286.999c70.667 139.333 190.334 215.666 359.001 228.999c105.333 8 196 -20.667 272 -86c72.667 -64 110.334 -144.667 113.001 -242c2.66699 -113.333 -30.333 -187.666 -99 -222.999c-42 -22 -96.333 -33 -163 -33
c-19.333 -1.33301 -49.333 -0.333008 -90 3c-9.33301 0 -24 0.333008 -44 1s-35 1.66699 -45 3c-30 2.66699 -50.333 -0.333008 -61 -9c-8 -8 -10.667 -24.333 -8 -49c2.66699 -31.333 17 -56.666 43 -75.999c24.667 -20.667 55.334 -30.667 92.001 -30
c19.333 -1.33301 46 0 80 4c46.667 4 79.167 -2.16699 97.5 -18.5s24.833 -50.5 19.5 -102.5c-2.66699 -38 -23.167 -69.333 -61.5 -94s-95.833 -37 -172.5 -37c-102.667 0 -189.334 35.333 -260.001 106c-87.333 84.667 -131 207 -131 367zM347.998 685.998
c1.33301 -13.333 19 -21.335 53 -24.002c12 -1.33301 24.333 -1.33301 37 0h29c19.333 -1.33301 43.333 -0.666016 72 2.00098c27.333 4 39.333 23.667 36 59c-2.66699 28.667 -20.334 51.334 -53.001 68.001c-18 6.66699 -39 10 -63 10c-34 0 -61.667 -12 -83 -36
s-30.666 -50.333 -27.999 -79zM908.998 554.996c0 177.333 64.332 306.331 192.999 386.998c53.333 32.667 117.833 52.5 193.5 59.5s134.834 2.16699 177.501 -14.5c92.667 -27.333 160 -77.666 202 -150.999c36.667 -69.333 41 -145.333 13 -228
c-20.667 -58.667 -72.667 -94 -156 -106c-50.667 -6.66699 -109.334 -8 -176.001 -4c-9.33301 0 -24 0.333008 -44 1s-34.667 1.66699 -44 3c-30 0 -50 -2.66699 -60 -8c-8 -8 -11 -20.333 -9 -37s7 -31 15 -43c18 -27.333 41.333 -43.666 70 -48.999
c23.333 -6.66699 54.666 -9 93.999 -7c4 0 10.167 0.333008 18.5 1s13.833 1.66699 16.5 3c46.667 2.66699 78.834 -2.66602 96.501 -15.999s24.5 -43.333 20.5 -90c-1.33301 -30 -22 -57.333 -62 -82c-42 -22 -99.333 -33 -172 -33c-101.333 0 -186.666 30.667 -255.999 92
c-87.333 75.333 -131 182.666 -131 321.999zM1214 704.994c1.33301 -12 18.666 -19.668 51.999 -23.001c12 -1.33301 24.333 -1.33301 37 0h28c20.667 0 44.667 1.33301 72 4c12 1.33301 21.167 4.33301 27.5 9s9.5 10.834 9.5 18.501v23.5
c-2.66699 27.333 -20.667 47.333 -54 60c-15.333 5.33301 -36.333 8 -63 8c-32.667 0 -59.667 -10.5 -81 -31.5s-30.666 -43.833 -27.999 -68.5z" />
    <glyph glyph-name="g_g.liga" unicode="gg" horiz-adv-x="2052" 
d="M41 582c18 114.667 69.6729 204.002 155.006 268.002s192.666 96 321.999 96c34 0 69.667 -3.33301 107 -10c28.667 64 52.334 110.333 71.001 139c35.333 52 101 78 197 78c45.333 0 78.666 -2.66699 99.999 -8c42 -10.667 65.333 -32.667 70 -66
c1.33301 -9.33301 2 -26.333 2 -51c0 -58.667 -26 -95.334 -78 -110.001c-24.667 -6.66699 -46.334 -10.334 -65.001 -11.001c-40.667 0 -67.334 -9.33301 -80.001 -28c-6.66699 -9.33301 -13 -23.666 -19 -42.999c4 -4 7.66699 -7 11 -9
c5.33301 -5.33301 8.66602 -9.33301 9.99902 -12c46.667 -45.333 80 -98 100 -158c22 -66.667 30.333 -128.667 25 -186c-9.33301 -114.667 -51.666 -210.334 -126.999 -287.001c-86 -86 -197.333 -129.667 -334 -131h-35c-15.333 0 -26.333 0.666992 -33 2
c-45.333 -80.667 -74 -129.667 -86 -147c91.333 42 185 59 281 51c98 -8 173.667 -49 227 -123c46.667 -64 65.334 -143 56.001 -237c-10.667 -105.333 -53.334 -189.833 -128.001 -253.5s-169.334 -97.5 -284.001 -101.5c-78 -2.66699 -148.333 7.66602 -211 30.999
c-79.333 28.667 -136 67.667 -170 117c-35.333 50.667 -44.333 99.667 -27 147c16.667 52 51.667 78 105 78c5.33301 0 10.666 -0.333008 15.999 -1s11.166 -2.66699 17.499 -6s11.166 -5.66602 14.499 -6.99902s8 -4.83301 14 -10.5s10.5 -9.5 13.5 -11.5
s8.16699 -6.66699 15.5 -14l13 -13c46.667 -44 103.334 -66 170.001 -66c40.667 -1.33301 73.667 10 99 34s38.666 53.667 39.999 89c1.33301 40.667 -10.167 71.667 -34.5 93s-59.166 33.333 -104.499 36c-38 1.33301 -92 -8.33398 -162 -29.001
c-60 -16.667 -111.667 -9 -155 23c-52 36.667 -74 81 -66 133c10.667 76.667 52.334 166 125.001 268c-24.667 18 -44.334 34.333 -59.001 49c-104 98.667 -143.667 231.334 -119 398.001zM322.006 508.002c0 -60 18.332 -108.498 54.999 -145.498
s80.334 -55.5 131.001 -55.5c50.667 1.33301 92.334 17.666 125.001 48.999s49 76.666 49 135.999c1.33301 58.667 -14.667 106 -48 142s-77.333 55.333 -132 58s-98.334 -12 -131.001 -44s-49 -78.667 -49 -140zM1808 1147c-5.33301 -4 -16.001 -20.3311 -32.001 -48.998
c-15.333 -23.333 -29 -49.333 -41 -78c79.333 -40.667 141.333 -99.334 186 -176.001c46.667 -79.333 65.667 -162.666 57 -249.999c-8 -114.667 -50.333 -210.334 -127 -287.001c-86 -86 -197 -129.667 -333 -131h-35c-15.333 0 -26.333 0.666992 -33 2
c-45.333 -80.667 -74 -129.667 -86 -147c91.333 42 185 59 281 51c98 -8 173.667 -49 227 -123c46.667 -64 65 -143.333 55 -238c-10.667 -105.333 -53.167 -189.666 -127.5 -252.999s-168.833 -97 -283.5 -101c-78 -2.66699 -148.333 7.66602 -211 30.999
c-79.333 28.667 -136 67.667 -170 117c-35.333 50.667 -44.333 99.667 -27 147c16.667 52 51.334 78 104.001 78c5.33301 0 10.833 -0.333008 16.5 -1s11.5 -2.66699 17.5 -6s10.833 -5.66602 14.5 -6.99902s8.5 -4.83301 14.5 -10.5s10.333 -9.5 13 -11.5
s7.83398 -6.83301 15.501 -14.5l13.5 -13.5c46.667 -44 103.334 -65.667 170.001 -65c40.667 -1.33301 73.667 10 99 34s38.666 53.667 39.999 89c1.33301 40.667 -10.334 71.667 -35.001 93s-59.334 33.333 -104.001 36c-38 1.33301 -92 -8.33398 -162 -29.001
c-60 -16.667 -112 -9 -156 23c-52 36.667 -73.667 81 -65 133c10.667 76.667 52.334 166 125.001 268c-24.667 18 -44.667 34.333 -60 49c-104 98 -143.333 230.667 -118 398c18 113.333 68.167 201.666 150.5 264.999s187.833 96.333 316.5 99
c5.33301 20.667 20.333 61 45 121c22 52 35 82 39 90c20.667 57.333 78.667 97 174 119c42 8 75.333 12 100 12c44 -1.33301 71.333 -17.666 82 -48.999c18 -66.667 20.667 -110.334 8 -131.001c-20.667 -32.667 -56.667 -54.667 -108 -66
c-24 -6.66699 -40.667 -12.667 -50 -18zM1331 631.006c0 -60 18.5 -108.499 55.5 -145.499s80.833 -55.5 131.5 -55.5c50.667 1.33301 92.334 17.666 125.001 48.999s49 76.333 49 135c1.33301 58.667 -14.834 106.167 -48.501 142.5s-77.667 55.833 -132 58.5
s-98 -12 -131 -44s-49.5 -78.667 -49.5 -140z" />
    <glyph glyph-name="o_o.liga" unicode="oo" horiz-adv-x="1984" 
d="M41 541c18 130 75.334 232.335 172.001 307.002c87.333 69.333 192.333 104 315 104c136.667 0 250.667 -49 342 -147c42 -44 72.667 -101.5 92 -172.5s27 -142.5 23 -214.5c-8 -126.667 -51 -233.334 -129 -320.001c-84.667 -94 -197.334 -143.667 -338.001 -149
c-148.667 -2.66699 -269.334 46.333 -362.001 147c-101.333 109.333 -139.666 257.666 -114.999 444.999zM315.001 459.002c0 -65.333 21.333 -119.333 64 -162c39.333 -40.667 85.666 -61 138.999 -61c52 0 96.5 18 133.5 54s56.167 86.667 57.5 152
c0 64 -19.333 117.333 -58 160c-35.333 39.333 -81.666 60.666 -138.999 63.999c-56 2.66699 -102.5 -14.166 -139.5 -50.499s-56.167 -88.5 -57.5 -156.5zM1049 655.002c18 130 75.334 232.668 172.001 308.001c88.667 69.333 193.667 104 315 104
c135.333 0 249.333 -49 342 -147c42 -44 72.667 -101.5 92 -172.5s27 -142.833 23 -215.5c-8 -126.667 -51 -233 -129 -319c-84.667 -94 -197.334 -144 -338.001 -150c-148.667 -2.66699 -269.667 46.666 -363 147.999c-100.667 108.667 -138.667 256.667 -114 444z
M1323 573.003c0 -65.333 20.999 -118.999 62.999 -160.999c39.333 -40.667 86 -61.334 140 -62.001c52 0 96.333 18.167 133 54.5s55.667 87.166 57 152.499c0 64 -19 117.333 -57 160c-35.333 39.333 -81.666 60.333 -138.999 63
c-56 2.66699 -102.5 -14.166 -139.5 -50.499s-56.167 -88.5 -57.5 -156.5z" />
    <glyph glyph-name="u_u.liga" unicode="uu" horiz-adv-x="2070" 
d="M637 283l-0.000976562 100.002c-1.33301 26 -2 66.333 -2 121c0 106.667 2 173.667 6 201c8 53.333 22.333 93.5 43 120.5s55.334 41.833 104.001 44.5c57.333 1.33301 100.666 -15 129.999 -49c24.667 -32.667 41.667 -78.334 51 -137.001
c6.66699 -38 9.33398 -77.667 8.00098 -119c-1.33301 -44 -3.33301 -102 -6 -174c0 -120 -7.66699 -210.667 -23 -272c-20.667 -86 -64.334 -129.667 -131.001 -131c-30 0 -58.667 6 -86 18c-13.333 5.33301 -23.666 10 -30.999 14c-10.667 4 -22 6.33301 -34 7
c-8 0 -18.333 -3 -31 -9c-39.333 -18 -81 -30.667 -125 -38c-28.667 -5.33301 -60 -7.66602 -94 -6.99902c-147.333 8 -249.666 68.333 -306.999 181c-31.333 60 -50.666 139.667 -57.999 239c-5.33301 68 -4 154.667 4 260c2.66699 78 13 139.667 31 185
c23.333 57.333 63.666 89.333 120.999 96c58.667 8 103 -3 133 -33c23.333 -23.333 39 -62.333 47 -117c5.33301 -69.333 7.33301 -139.666 6 -210.999c-1.33301 -22 -2 -58 -2 -108c0 -4 -0.333008 -16.333 -1 -37s-0.666992 -35.334 0 -44.001s2 -22.334 4 -41.001
s6.16699 -32.667 12.5 -42s14.166 -19.833 23.499 -31.5s22.333 -19.834 39 -24.501s35.667 -7 57 -7c46.667 0 83.667 15 111 45zM1675 385.002v100.002c-1.33301 26 -2 66.333 -2 121c0 106.667 2 173.667 6 201c8 53.333 22.333 93.666 43 120.999s55.667 42.333 105 45
c57.333 1.33301 100.333 -15 129 -49c24.667 -32.667 41.667 -78.667 51 -138c6.66699 -38 9.33398 -77.333 8.00098 -118c-1.33301 -44 -3.33301 -102 -6 -174c0 -120 -7.33301 -211 -22 -273c-20.667 -86 -64.667 -129.667 -132 -131c-30 0 -58.667 6.33301 -86 19
c-13.333 5.33301 -23.333 10 -30 14c-9.33301 4 -21 6 -35 6c-8 0 -18.333 -2.66699 -31 -8c-39.333 -18 -81 -31 -125 -39c-28.667 -5.33301 -60 -7.33301 -94 -6c-147.333 8 -249.666 68 -306.999 180c-31.333 60 -50.333 140 -57 240c-5.33301 68 -4 154.667 4 260
c2.66699 78 12.667 139.333 30 184c23.333 57.333 63.666 89.333 120.999 96c58.667 8 103 -2.66699 133 -32c23.333 -23.333 39 -62.333 47 -117c5.33301 -69.333 7.66602 -139.666 6.99902 -210.999c-1.33301 -22 -2 -58.333 -2 -109c0 -4 -0.5 -16.167 -1.5 -36.5
s-1 -35 0 -44l4.5 -41c2 -18.333 6 -32.333 12 -42s13.833 -20.334 23.5 -32.001s22.667 -19.834 39 -24.501s35.5 -7 57.5 -7c46 0 82.667 15 110 45z" />
    <glyph glyph-name="p_p.liga" unicode="pp" horiz-adv-x="2052" 
d="M430 -193c0 -40.667 0.666016 -71.3311 1.99902 -91.998c2.66699 -69.333 -13.666 -117 -48.999 -143c-19.333 -19.333 -56.333 -28.333 -111 -27s-93.334 17.666 -116.001 48.999c-26 34 -41 78.667 -45 134c-8 128.667 -13 224.667 -15 288
c-1.33301 66.667 -4.66602 163.667 -9.99902 291c-5.33301 109.333 -8 220 -8 332c0 61.333 7.5 109.166 22.5 143.499s42.833 52.833 83.5 55.5c27.333 1.33301 59 -3.66699 95 -15c32.667 -13.333 57 -20 73 -20c4 0 15 3.33301 33 10c48 18 94.333 31.667 139 41
c30 5.33301 62.333 7.33301 97 6c121.333 -1.33301 216 -45 284 -131c64 -80.667 96 -182.334 96 -305.001c0 -113.333 -31.333 -209 -94 -287c-64 -80.667 -152.667 -123.667 -266 -129c-62.667 -5.33301 -133 2.33398 -211 23.001v-224zM419.999 281.003
c38 -23.333 82.332 -31.666 132.999 -24.999c46.667 4 82.167 23.833 106.5 59.5s34.5 80.167 30.5 133.5c-4 45.333 -20 81.5 -48 108.5s-63.667 39.833 -107 38.5c-45.333 0 -85.666 -13 -120.999 -39v-59c0 -32.667 0.666992 -57.334 2 -74.001
c0 -34 0.666992 -59.333 2 -76c0 -32.667 0.666992 -55 2 -67zM1430 -30.9971c0 -40.667 0.665039 -71.3311 1.99805 -91.998c2.66699 -69.333 -14 -117 -50 -143c-19.333 -19.333 -56.166 -28.333 -110.499 -27s-93.166 17.666 -116.499 48.999c-26 34 -41 78.333 -45 133
c-8 128.667 -12.667 225 -14 289c-1.33301 66.667 -5 163.667 -11 291c-5.33301 109.333 -8 220 -8 332c0 61.333 7.5 109 22.5 143s43.167 52.333 84.5 55c27.333 1.33301 58.666 -3.33398 93.999 -14.001c32.667 -13.333 57.334 -20 74.001 -20c4 0 14.667 3.33301 32 10
c48 18 94.667 31.667 140 41c30 5.33301 62 7.33301 96 6c121.333 -1.33301 216.333 -45 285 -131c64 -80.667 96 -182.334 96 -305.001c0 -113.333 -31.333 -209 -94 -287c-64 -80.667 -153 -123.667 -267 -129c-62.667 -5.33301 -132.667 2.33398 -210 23.001v-224z
M1419 442.006c38 -23.333 82.3301 -31.3311 132.997 -23.998c46.667 4 82.334 23.667 107.001 59s35 79.666 31 132.999c-4 45.333 -20.167 81.666 -48.5 108.999s-64.166 40.333 -107.499 39c-45.333 0 -85.666 -13 -120.999 -39v-60c0 -32.667 0.666992 -57 2 -73
c0 -34 0.666992 -59.333 2 -76c0 -33.333 0.666992 -56 2 -68z" />
    <glyph glyph-name="r_r.liga" unicode="rr" horiz-adv-x="1613" 
d="M313 856c8 -12 14.1689 -17.665 18.502 -16.998s12.5 5.66699 24.5 15c61.333 57.333 140.666 81.333 237.999 72c96.667 -12 157.334 -59.333 182.001 -142c19.333 -56 10 -108.333 -28 -157c-15.333 -22 -36.333 -37.833 -63 -47.5s-58.334 -6.83398 -95.001 8.49902
c-4 2.66699 -10.5 6.66699 -19.5 12s-15.5 9.33301 -19.5 12c-19.333 13.333 -38.333 20.333 -57 21c-9.33301 0 -21 -2 -35 -6c-16.667 -5.33301 -30.334 -15.666 -41.001 -30.999c-23.333 -32.667 -35 -106.334 -35 -221.001c0 -61.333 -0.666992 -112 -2 -152
c0 -46.667 -3.33301 -89.667 -10 -129c-12 -57.333 -34.667 -92 -68 -104c-83.333 -30 -148 -15 -194 45c-20.667 30 -33.667 70.333 -39 121c-2.66699 30 -4 51.667 -4 65c0 28.667 -1 50 -3 64v325v41c-1.33301 9.33301 -2 25 -2 47v50c0 19.333 0.666992 32 2 38
c8 69.333 36 115.333 84 138c68.667 25.333 124 2.66602 166 -68.001zM1118 981.002c8 -12 14.167 -17.665 18.5 -16.998s12.5 5.66699 24.5 15c61.333 57.333 140.666 81.333 237.999 72c96.667 -12 157.334 -59.333 182.001 -142
c19.333 -56 9.66602 -108.333 -29.001 -157c-15.333 -22 -36.166 -37.833 -62.499 -47.5s-57.833 -6.83398 -94.5 8.49902c-4 2.66699 -10.5 6.66699 -19.5 12s-15.5 9.33301 -19.5 12c-19.333 13.333 -38.666 20.333 -57.999 21c-8 0 -19.333 -2 -34 -6
c-16.667 -5.33301 -30.334 -15.666 -41.001 -30.999c-23.333 -32.667 -35 -106.334 -35 -221.001c0 -61.333 -0.666992 -112 -2 -152c0 -46.667 -3.33301 -89.667 -10 -129c-12 -57.333 -34.667 -92 -68 -104c-83.333 -30 -148.333 -15 -195 45
c-20.667 30 -33.667 70.333 -39 121c-2.66699 30 -4 51.667 -4 65c0 28.667 -0.666992 50 -2 64v325v41c-1.33301 9.33301 -2 25 -2 47v49c0 19.333 0.666992 32.333 2 39c8 69.333 36 115.333 84 138c68.667 25.333 124 2.66602 166 -68.001z" />
    <glyph glyph-name="s_s.liga" unicode="ss" horiz-adv-x="1630" 
d="M801 315c0 -106.667 -37.666 -191.328 -112.999 -253.995c-64 -54.667 -149.333 -81.667 -256 -81c-38 0 -74 2.66699 -108 8c-45.333 6.66699 -78.333 16 -99 28c-36.667 26 -56.334 57.667 -59.001 95c-5.33301 50.667 1.16699 84.5 19.5 101.5s49.5 23.167 93.5 18.5
c40.667 -4 73.334 -5.33301 98.001 -4c10.667 0 19.834 0.333008 27.501 1s14.834 2.5 21.501 5.5s11 5.16699 13 6.5s6.16699 4.66602 12.5 9.99902s10.166 8.66602 11.499 9.99902c12 12 16.667 28.333 14 49c0 22 -11.833 38.5 -35.5 49.5s-50.167 16.5 -79.5 16.5
c-61.333 -2.66699 -127.333 11 -198 41c-64 26 -104.333 72.333 -121 139c-12 27.333 -15.667 69 -11 125s19.334 103.667 44.001 143c48 75.333 125 122.666 231 141.999c79.333 12 153.666 10.667 222.999 -4c61.333 -13.333 106.666 -37.333 135.999 -72
c15.333 -16.667 22.166 -41 20.499 -73s-11.5 -56.333 -29.5 -73c-31.333 -27.333 -64.666 -36 -99.999 -26c-15.333 2.66699 -31 6.66699 -47 12c-44 13.333 -78 20.333 -102 21c-27.333 0 -50 -6.83301 -68 -20.5s-25.667 -33.5 -23 -59.5c4 -39.333 37 -63.333 99 -72
l84 -6c57.333 -4 109.666 -17 156.999 -39c56 -28.667 97 -70.334 123 -125.001c14 -28.667 21 -66.334 21 -113.001zM1599 397.006c0 -106.667 -37.3301 -191.332 -111.997 -253.999c-64 -54.667 -149.333 -82 -256 -82c-38 0 -74.333 3 -109 9
c-45.333 6.66699 -78 16 -98 28c-36.667 26 -56.334 57.667 -59.001 95c-5.33301 50.667 1.16699 84.334 19.5 101.001s49.166 23 92.499 19c40.667 -4 73.667 -5.33301 99 -4c10.667 0 19.667 0.333008 27 1s14.5 2.33398 21.5 5.00098s11.5 4.83398 13.5 6.50098
l12.5 10.5c6.33301 5.33301 10.166 8.66602 11.499 9.99902c12 12 16.667 28.333 14 49c0 22 -12 38.5 -36 49.5s-50.333 16.5 -79 16.5c-61.333 -2.66699 -127.333 11 -198 41c-64 26 -104.333 72.333 -121 139c-12 27.333 -15.667 69 -11 125s19 103.667 43 143
c48 75.333 125.333 122.666 232 141.999c79.333 12 153.666 10.333 222.999 -5c61.333 -13.333 106.333 -37 135 -71c15.333 -16.667 22.333 -41 21 -73s-11 -56.333 -29 -73c-31.333 -27.333 -64.666 -36 -99.999 -26c-15.333 2.66699 -31 6.66699 -47 12
c-44 13.333 -78.333 20 -103 20c-27.333 0 -49.833 -6.66699 -67.5 -20s-25.167 -33 -22.5 -59c4 -39.333 36.667 -63.333 98 -72l84 -6c57.333 -4 110 -17 158 -39c56 -28.667 97 -70.334 123 -125.001c13.333 -28.667 20 -66.334 20 -113.001z" />
    <glyph glyph-name="t_t.liga" unicode="tt" horiz-adv-x="1777" 
d="M547 483c0 -12 1.33203 -35.6689 3.99902 -71.002c0 -4 0.333008 -10.167 1 -18.5s1.66699 -14.5 3 -18.5c0 -23.333 6.66699 -45.333 20 -66c16.667 -24.667 42 -39.667 76 -45c6.66699 -1.33301 15.5 -3 26.5 -5s19.167 -3 24.5 -3c56 -6.66699 93.667 -19.667 113 -39
c20.667 -20.667 31 -59 31 -115c0 -65.333 -34.333 -111.666 -103 -138.999c-42 -16.667 -102 -24.667 -180 -24c-128.667 0 -218 45 -268 135c-27.333 48 -45.666 114 -54.999 198c-2.66699 22 -5.66699 57.667 -9 107c0 10.667 -0.333008 27.667 -1 51
s-1.66699 40.333 -3 51c-64 -2.66699 -107 1.66602 -129 12.999c-39.333 19.333 -59 57.333 -59 114c0 49.333 20.333 83.666 61 102.999c23.333 10.667 64.333 16 123 16c0 16.667 0.666992 27.667 2 33v18c0 6.66699 0.666992 12.334 2 17.001v24
c1.33301 20.667 2 58.334 2 113.001c-2.66699 102.667 11.666 181.667 42.999 237c16.667 28.667 45.834 46.5 87.501 53.5s74.167 4.16699 97.5 -8.5c45.333 -19.333 72 -64.333 80 -135c8 -64 10.667 -133.667 8 -209c-1.33301 -23.333 -2 -71.666 -2 -144.999h65
c58.667 0 101.667 -4 129 -12c48 -13.333 74.667 -45 80 -95c5.33301 -64 -13.667 -104.667 -57 -122c-20.667 -8 -44 -12.333 -70 -13h-80h-63zM1370 574.998c0 -12 1.33496 -35.6699 4.00195 -71.0029c0 -4 0.333008 -10.167 1 -18.5s1.66699 -14.5 3 -18.5
c0 -23.333 7 -45.333 21 -66c16.667 -24.667 42 -39.667 76 -45c6.66699 -1.33301 15.5 -3 26.5 -5s19.167 -3 24.5 -3c56 -5.33301 93.333 -18.333 112 -39c20.667 -20.667 31 -58.667 31 -114c0 -65.333 -34 -112 -102 -140c-42 -16.667 -102.333 -24.667 -181 -24
c-128.667 0 -218 45 -268 135c-27.333 48 -45.666 114.333 -54.999 199c-2.66699 22 -5.33398 57.333 -8.00098 106c0 10.667 -0.333008 27.667 -1 51s-1.66699 40.333 -3 51c-64 -2.66699 -107 1.66602 -129 12.999c-39.333 19.333 -59.333 57.333 -60 114
c0 49.333 20.667 83.666 62 102.999c23.333 10.667 64.333 16 123 16c0 16.667 0.666992 27.667 2 33v18c0 6.66699 0.666992 12.334 2 17.001v24c1.33301 20.667 2 58.334 2 113.001c-2.66699 102.667 11.666 182 42.999 238c16.667 28.667 45.667 46.334 87 53.001
s73.666 4 96.999 -8c45.333 -19.333 72 -64.666 80 -135.999c8 -64 10.667 -133.333 8 -208c-1.33301 -23.333 -2 -72 -2 -146h66c58.667 0 101.667 -4 129 -12c48 -13.333 74.333 -44.666 79 -93.999c5.33301 -64 -13.667 -105 -57 -123c-20.667 -8 -44 -12.333 -70 -13
h-79h-64z" />
    <glyph glyph-name=".notdef" horiz-adv-x="405" 
 />
    <glyph glyph-name="glyph3" horiz-adv-x="0" 
 />
    <glyph glyph-name="glyph3" horiz-adv-x="0" 
 />
    <glyph glyph-name="uni000D" unicode="&#xd;" horiz-adv-x="405" 
 />
    <glyph glyph-name="space" unicode=" " horiz-adv-x="405" 
 />
    <glyph glyph-name="exclam" unicode="!" horiz-adv-x="577" 
d="M129 1239c4 64 20.332 109.663 48.999 136.996s70.334 41 125.001 41c58.667 0 102.667 -11.833 132 -35.5s43.333 -58.834 42 -105.501v-31v-71c-2.66699 -76.667 -4 -143 -4 -199v-107c-1.33301 -16.667 -2 -39 -2 -67v-70v-108
c0 -101.333 -4.66699 -167.666 -14 -198.999c-20.667 -60 -72.667 -92.667 -156 -98c-62.667 -5.33301 -108.334 12.334 -137.001 53.001c-24.667 32.667 -37 78.334 -37 137.001c0 24.667 -0.333008 50.667 -1 78s-1 45.666 -1 54.999c-1.33301 10.667 -2 31.334 -2 62.001
v104c2.66699 106.667 4 182.334 4 227.001c-1.33301 50.667 -0.666016 116.334 2.00098 197.001zM101.999 34.9961c1.33301 80.667 37.668 135.332 109.001 163.999c62.667 24.667 126.667 19.667 192 -15c70.667 -38 107 -94.667 109 -170
c1.33301 -66.667 -25.334 -115 -80.001 -145c-39.333 -23.333 -81 -35 -125 -35c-48 0 -89 10.333 -123 31c-56 32.667 -83.333 89.334 -82 170.001z" />
    <glyph glyph-name="quotedbl" unicode="&#x22;" horiz-adv-x="937" 
d="M264 1382c54.667 0 94 -13.1689 118 -39.502s34.667 -61.5 32 -105.5c-4 -82 -6 -126.333 -6 -133c-1.33301 -15.333 -2 -36.666 -2 -63.999c-1.33301 -12 -2.33301 -27.667 -3 -47c0 -22 1 -39 3 -51c0 -46.667 -18.667 -82 -56 -106
c-20.667 -13.333 -51.667 -21.166 -93 -23.499s-72.333 2.5 -93 14.5c-42 23.333 -64 58.333 -66 105v104c0 44 1.33301 113.667 4 209c1.33301 60 24 100.333 68 121c22 10.667 53.333 16 94 16zM696 1405c54.667 0 94.001 -13.334 118.001 -40.001s34.667 -61.667 32 -105
c-4 -82 -6 -126.667 -6 -134c-1.33301 -15.333 -2 -36.333 -2 -63c-1.33301 -12 -2 -27.667 -2 -47c0 -22 0.666992 -39 2 -51c0 -46.667 -18.667 -82.334 -56 -107.001c-20.667 -13.333 -51.667 -21.166 -93 -23.499s-72.333 2.83398 -93 15.501c-42 23.333 -64 58 -66 104
v105c0 44 1.66699 113.667 5 209c1.33301 60 23.666 100.333 66.999 121c22 10.667 53.333 16 94 16z" />
    <glyph glyph-name="numbersign" unicode="#" horiz-adv-x="1398" 
d="M274 772h-97.998c-38 -1.33301 -67 10.334 -87 35.001s-30 61.667 -30 111c0 90 49.333 137.667 148 143h29c15.333 0 26.666 0.666992 33.999 2v141c-1.33301 27.333 -2 49.333 -2 66c-1.33301 46.667 12.667 81.834 42 105.501s73.333 35.5 132 35.5
c54.667 0 96.334 -13.667 125.001 -41s45 -73 49 -137c2.66699 -35.333 4.33398 -62 5.00098 -80v-88h161v88c0 18 1.33301 44.667 4 80c4 64 20.5 109.667 49.5 137s70.833 41 125.5 41c58.667 0 102.667 -12 132 -36s43.333 -59 42 -105v-66
c-1.33301 -27.333 -2 -74.333 -2 -141c8 -1.33301 20 -2 36 -2h27c98 -5.33301 147 -53 147 -143c0 -49.333 -9.83301 -86.333 -29.5 -111s-48.5 -36.334 -86.5 -35.001h-99v-137h99c38 1.33301 66.833 -10.334 86.5 -35.001s29.5 -61.667 29.5 -111
c0 -90 -49 -137.667 -147 -143h-27c-16.667 0 -28.667 -0.666992 -36 -2c0 -66.667 0.666992 -113.667 2 -141v-66c1.33301 -46.667 -12.667 -81.834 -42 -105.501s-73.333 -35.5 -132 -35.5c-54.667 0 -96.334 13.667 -125.001 41s-45.334 73 -50.001 137
c-2.66699 35.333 -4 62.666 -4 81.999v86h-161v-86c0 -19.333 -1.66699 -46.666 -5 -81.999c-4 -64 -20.333 -109.667 -49 -137s-70.334 -41 -125.001 -41c-58.667 0 -102.667 12 -132 36s-43.333 59 -42 105c0 16.667 0.666992 38.667 2 66v141c-8 1.33301 -19.333 2 -34 2
h-29c-98 5.33301 -147.333 53 -148 143c0 49.333 10 86.333 30 111s49 36.334 87 35.001h98v137zM780.002 774h-35c-15.333 0 -26 0.666992 -32 2h-39c-10.667 -1.33301 -27.667 -2 -51 -2v-141h51c9.33301 -1.33301 22.333 -2 39 -2c13.333 0 24 0.666992 32 2h35v141z" />
    <glyph glyph-name="dollar" unicode="$" horiz-adv-x="847" 
d="M768 471c0 -105.333 -36.9951 -186.668 -110.995 -244.001c-64 -48 -136.333 -71.667 -217 -71c-95.333 0 -168.333 12.333 -219 37c-38 18 -60.333 46.667 -67 86c-4 48 5.16699 81.167 27.5 99.5s56.833 25.166 103.5 20.499c34 -4 67.333 -4.66699 100 -2
c39.333 0 68.666 7 87.999 21c13.333 12 18.333 28.667 15 50s-16.333 36 -39 44l-31 10c-4 1.33301 -19 3.33301 -45 6c-10.667 0 -25 2.33301 -43 7c-87.333 16.667 -151.666 43.667 -192.999 81c-52 52 -75 114.333 -69 187
c1.33301 72.667 28.666 137.334 81.999 194.001c35.333 38 77.166 62.167 125.499 72.5s108.833 14.833 181.5 13.5c61.333 0 116.666 -11.333 165.999 -34c53.333 -26 79 -59.667 77 -101c-1.33301 -32.667 -10.5 -58.167 -27.5 -76.5s-37.167 -30.166 -60.5 -35.499
c-28.667 -4 -58.667 0.666992 -90 14c-34 12 -69.333 18 -106 18c-28.667 0 -52 -5.33301 -70 -16s-25.333 -27.667 -22 -51c1.33301 -15.333 7.66602 -27.333 18.999 -36s22.166 -14.167 32.499 -16.5s26.5 -5.5 48.5 -9.5c128.667 -22 210.667 -44.333 246 -67
c65.333 -42.667 98 -109.667 98 -201zM387.005 1466c69.333 -1.33301 102.667 -36.668 100 -106.001v-33c-1.33301 -4 -2 -10 -2 -18v-15v-18v-37c0 -34 -11.333 -60 -34 -78c-13.333 -10.667 -33.5 -16.667 -60.5 -18s-47.833 2.66699 -62.5 12
c-28.667 18 -43.667 44 -45 78c-1.33301 4 -2 13.667 -2 29v41c-4 61.333 0.666992 101.333 14 120c15.333 24.667 37 38.334 65 41.001c7.33301 1.33301 16.333 2 27 2zM455.006 105.996c35.333 -1.33301 61.168 -11.834 77.501 -31.501s23.166 -44.5 20.499 -74.5v-84v-37
c0 -34 -11.667 -60 -35 -78c-13.333 -10.667 -33.333 -16.667 -60 -18s-47.667 2.66699 -63 12c-28.667 18 -43.667 43.333 -45 76c-1.33301 4 -2 13.667 -2 29c-4 88.667 0.666992 143 14 163c15.333 24.667 37.333 38.334 66 41.001c7.33301 1.33301 16.333 2 27 2z" />
    <glyph glyph-name="percent" unicode="%" horiz-adv-x="1376" 
d="M717 1044c50.667 106.667 126.334 140.333 227.001 101c112 -44 149 -109 111 -195l-11 -26c-18 -38 -27.333 -60 -28 -66c-12 -32.667 -24.333 -62.667 -37 -90l-39 -96c-46.667 -114.667 -80.667 -200.667 -102 -258l-105 -260l-20.5 -48
c-9.66699 -22.667 -16.5 -39.667 -20.5 -51c-26 -68 -64 -109.667 -114 -125c-27.333 -8 -60.5 -5.83301 -99.5 6.5s-67.5 27.5 -85.5 45.5c-32.667 32.667 -45 75 -37 127c2.66699 26 9 49.667 19 71l180 471l86 211c27.333 69.333 52.666 130 75.999 182zM307 546.999
c-76.667 -1.33301 -135 20.833 -175 66.5s-58.667 109.5 -56 191.5c2.66699 80.667 23.834 143.834 63.501 189.501s95.5 68.5 167.5 68.5c78 1.33301 137.167 -20.834 177.5 -66.501s59.166 -109.5 56.499 -191.5c-2.66699 -80.667 -23.5 -143.5 -62.5 -188.5
s-96.167 -68.167 -171.5 -69.5zM313 683.998c44 0 66 35.668 66 107.001c0 75.333 -22 112.666 -66 111.999c-42 0 -63 -35.333 -63 -106c0 -75.333 21 -113 63 -113zM1083 -8.00098c-76.667 -1.33301 -135 20.833 -175 66.5s-58.667 109.5 -56 191.5
c2.66699 80.667 23.834 143.834 63.501 189.501s95.5 68.5 167.5 68.5c78 1.33301 137.167 -20.834 177.5 -66.501s59.166 -109.5 56.499 -191.5c-2.66699 -80.667 -23.5 -143.5 -62.5 -188.5s-96.167 -68.167 -171.5 -69.5zM1090 128.998c44 0 65.667 35.668 65 107.001
c0 75.333 -21.667 112.666 -65 111.999c-42 0 -63.333 -35.333 -64 -106c0.666992 -75.333 22 -113 64 -113z" />
    <glyph glyph-name="ampersand" unicode="&#x26;" horiz-adv-x="1202" 
d="M1028 356c39.333 -26 70.998 -49.5 94.998 -70.5s43.833 -43.167 59.5 -66.5s22.834 -46.5 21.501 -69.5s-10 -47.5 -26 -73.5c-44 -66.667 -99.333 -91.334 -166 -74.001c-50.667 12 -117 54.333 -199 127c-121.333 -90 -245 -135 -371 -135
c-124 0 -223.667 24.667 -299 74c-94 65.333 -141.667 151.333 -143 258c-1.33301 94 28.667 176.333 90 247c40.667 46.667 102.667 92 186 136c-66.667 66.667 -94.334 160 -83.001 280c15.333 122.667 82 213.667 200 273c62.667 32.667 141.334 47.667 236.001 45
c120 -2.66699 214 -37 282 -103c78 -76.667 94.667 -172 50 -286c-16.667 -44 -55 -94 -115 -150c-44 -39.333 -97.333 -81.666 -160 -126.999c9.33301 -13.333 32 -35.333 68 -66c40.667 -35.333 63.667 -54.333 69 -57c31.333 32.667 54 60.667 68 84
c35.333 54.667 68 85.334 98 92.001c19.333 4 46.333 -1.83301 81 -17.5s58.334 -33.5 71.001 -53.5c26 -42 16.333 -95.333 -29 -160c-16.667 -24.667 -44.667 -60.334 -84 -107.001zM441.998 231c65.333 0 126.335 25.999 183.002 77.999l-82 72
c-34 28.667 -66.333 61.334 -97 98.001c-30 -16.667 -55 -37.667 -75 -63c-24.667 -32.667 -36.334 -65 -35.001 -97c1.33301 -27.333 12.166 -48.833 32.499 -64.5s44.833 -23.5 73.5 -23.5zM518 837.999c50.667 32.667 91 70.001 121 112.001
c15.333 19.333 23 40.666 23 63.999c0 40.667 -22.667 61 -68 61c-30 -1.33301 -54.5 -11.166 -73.5 -29.499s-30.833 -41.833 -35.5 -70.5c-6.66699 -40.667 4.33301 -86.334 33 -137.001z" />
    <glyph glyph-name="quotesingle" unicode="'" horiz-adv-x="530" 
d="M287 1415c57.333 -1.33301 98.667 -20.833 124 -58.5s36.333 -85.834 33 -144.501c0 -6.66699 -0.333008 -17.167 -1 -31.5s-1.66699 -24.166 -3 -29.499c-1.33301 -9.33301 -2 -20.333 -2 -33c-1.33301 -5.33301 -2 -12.666 -2 -21.999c-1.33301 -5.33301 -2 -17 -2 -35
v-72c0 -62.667 -18.333 -111.667 -55 -147c-22 -19.333 -54.5 -30.333 -97.5 -33s-76.167 4.66602 -99.5 21.999c-46.667 34 -69.667 82 -69 144v51l4 197c1.33301 83.333 25 140 71 170c25.333 14.667 58.333 22 99 22z" />
    <glyph glyph-name="parenleft" unicode="(" horiz-adv-x="946" 
d="M537 606c5.33301 -120 35.999 -228.334 91.999 -325.001c32.667 -57.333 73.667 -110.666 123 -159.999c45.333 -45.333 76 -91 92 -137c24.667 -72.667 4.66699 -130.667 -60 -174c-62.667 -40.667 -130.667 -45.667 -204 -15c-27.333 12 -50 25.667 -68 41
c-18 13.333 -27 21 -27 23c-143.333 143.333 -240 310.333 -290 501c-23.333 86 -35 168 -35 246c0 154 43.667 316.667 131 488c42 86 106.667 172.667 194 260c0 2.66699 9 10.667 27 24c44 38 98.667 58 164 60c36.667 1.33301 73.5 -10.334 110.5 -35.001
s58.167 -52 63.5 -82c10.667 -56 -5.66602 -113.333 -48.999 -172c-16.667 -22 -33 -41 -49 -57c-49.333 -49.333 -90.333 -102.666 -123 -159.999c-56 -97.333 -86.667 -206 -92 -326z" />
    <glyph glyph-name="parenright" unicode=")" horiz-adv-x="798" 
d="M352 606c-5.33301 120 -36 228.668 -92 326.001c-32.667 57.333 -73.667 110.666 -123 159.999c-42 42 -72 88.333 -90 139c-26 72.667 -7 130 57 172c62.667 40.667 131 45.334 205 14.001c28.667 -12 52 -25 70 -39c16.667 -15.333 24.667 -23.333 24 -24
c140.667 -140.667 237.667 -308 291 -502c23.333 -86 35 -168 35 -246c0 -154 -43 -316.333 -129 -487c-44 -86 -109.667 -172.667 -197 -260c0 -1.33301 -8 -9 -24 -23c-48 -39.333 -103.333 -59.666 -166 -60.999c-35.333 -1.33301 -71.5 10.5 -108.5 35.5
s-58.167 52.833 -63.5 83.5c-10.667 54.667 5.66602 111 48.999 169c20.667 27.333 36.334 46.666 47.001 57.999c49.333 49.333 90.333 102.666 123 159.999c56 96.667 86.667 205 92 325z" />
    <glyph glyph-name="asterisk" unicode="*" horiz-adv-x="774" 
d="M141 958c-12 12 -19.3311 28.0029 -21.998 48.0029c-5.33301 27.333 6.33398 56 35.001 86l8 8c4 4 7.33301 6.66699 10 8l18 18l-10 11l-24 24c-23.333 20.667 -35 45.334 -35 74.001c0 15.333 6.16699 32.166 18.5 50.499s24.5 28.833 36.5 31.5
c24.667 6.66699 48.667 -1 72 -23c6.66699 -5.33301 18.334 -16 35.001 -32c9.33301 -9.33301 16.666 -16.333 21.999 -21c0 10.667 0.666992 19 2 25v24c0 56 15 94.333 45 115c15.333 10.667 35.333 16 60 16c35.333 -1.33301 61.166 -15 77.499 -41
s23.166 -58.667 20.499 -98v-53v-2c10.667 10.667 19 18 25 22l18 19l16 16c22 20.667 46 28.334 72 23.001c12 -2.66699 24.167 -13.334 36.5 -32.001s18.5 -35.334 18.5 -50.001c0 -30 -10.667 -54.667 -32 -74c-4 -4 -9.16699 -8.83301 -15.5 -14.5
s-10.166 -9.16699 -11.499 -10.5l-10 -10l18 -18c1.33301 -2.66699 4 -5.5 8 -8.5l11 -8.5c28.667 -31.333 40.667 -60 36 -86c-2.66699 -18 -10.667 -33.667 -24 -47c-32.667 -39.333 -72.334 -36 -119.001 10l-20 21c-8 5.33301 -16.333 13.666 -25 24.999l-2 -5
c0 -40.667 -4.66699 -70.667 -14 -90c-16.667 -34 -44.667 -51.667 -84 -53c-42 -4 -73 14.333 -93 55c-5.33301 16.667 -9.33301 36.667 -12 60v41c-1.33301 0 -2 0.666992 -2 2l-45 -45c-46.667 -46.667 -86.334 -50.334 -119.001 -11.001z" />
    <glyph glyph-name="plus" unicode="+" horiz-adv-x="972" 
d="M494 246c-49.333 1.33301 -85.3291 16.3359 -107.996 45.0029s-32.667 65.334 -30 110.001c0 15.333 0.666992 28.333 2 39v54c-15.333 1.33301 -34.333 2 -57 2h-33h-53c-49.333 -2.66699 -88.333 13.666 -117 48.999c-15.333 18 -23.833 46 -25.5 84
s4.16602 67.333 17.499 88c27.333 39.333 65 59 113 59h162c1.33301 19.333 2 44.666 2 75.999v41v55c-2.66699 49.333 13.666 87.666 48.999 114.999c19.333 15.333 47.666 24 84.999 26s66.333 -4 87 -18c39.333 -27.333 59 -65 59 -113v-184h119
c64 -1.33301 107.667 -23 131 -65c12 -22 18 -50.667 18 -86c-1.33301 -49.333 -16.333 -85.333 -45 -108s-65.334 -32.667 -110.001 -30c-8 0 -46.333 1.33301 -115 4v-94c-1.33301 -66.667 -23 -110.334 -65 -131.001c-22 -12 -50.667 -18 -86 -18z" />
    <glyph glyph-name="comma" unicode="," horiz-adv-x="630" 
d="M211 -182c44 40.667 78.666 91.6699 103.999 153.003c-49.333 0 -91 9 -125 27c-50.667 26 -75.667 69 -75 129c0 72.667 32 124 96 154c44 20.667 98.667 26.667 164 18c54.667 -9.33301 97.667 -33.333 129 -72c16.667 -24.667 25.334 -53.334 26.001 -86.001
c0 -113.333 -34.667 -222.333 -104 -327c-30 -46.667 -63.167 -81.334 -99.5 -104.001s-68.833 -27.667 -97.5 -15c-30 9.33301 -48.333 23.666 -55 42.999c-6.66699 13.333 -7 25.5 -1 36.5s18.667 25.5 38 43.5z" />
    <glyph glyph-name="hyphen" unicode="-" horiz-adv-x="972" 
d="M915 623c-1.33301 -49.333 -16.334 -85.3301 -45.001 -107.997s-65.334 -32.667 -110.001 -30c-19.333 1.33301 -70.666 3.66602 -153.999 6.99902c-46.667 0 -82 0.666992 -106 2c-48 0 -82.333 0.666992 -103 2h-82h-47h-53
c-49.333 -2.66699 -88.333 13.666 -117 48.999c-15.333 18 -23.833 46 -25.5 84s4.16602 67.333 17.499 88c27.333 39.333 65 59 113 59h225h186h57.5c25 0 42.5 -0.333008 52.5 -1s23.667 -1.33398 41 -2.00098s30 -1.66699 38 -3s16.833 -3.33301 26.5 -6
s17.834 -6 24.501 -10c36.667 -26 56.334 -57.667 59.001 -95c1.33301 -10.667 2 -22.667 2 -36z" />
    <glyph glyph-name="period" unicode="." horiz-adv-x="536" 
d="M63.5 147.5c1.66699 80.333 37.834 134.834 108.501 163.501c62.667 24.667 127 20 193 -14c70.667 -38 106.667 -94.667 108 -170c1.33301 -66.667 -25.334 -115 -80.001 -145c-39.333 -23.333 -81 -35 -125 -35c-48 0 -89 10 -123 30
c-56 33.333 -83.167 90.166 -81.5 170.499z" />
    <glyph glyph-name="slash" unicode="/" horiz-adv-x="854" 
d="M424 1044c50.667 106.667 126.334 140.333 227.001 101c112 -44 149 -109 111 -195l-10 -26c-18 -38 -27.667 -60 -29 -66c-12 -32.667 -24.333 -62.667 -37 -90l-39 -96c-46.667 -114.667 -80.667 -200.667 -102 -258l-105 -260l-20 -48l-21 -51
c-26 -68 -64 -109.667 -114 -125c-27.333 -8 -60.5 -5.83301 -99.5 6.5s-67.5 27.5 -85.5 45.5c-32.667 32.667 -45 75 -37 127c2.66699 26 9 49.667 19 71l180 471l86 211c27.333 69.333 52.666 130 75.999 182z" />
    <glyph glyph-name="zero" unicode="0" horiz-adv-x="1114" 
d="M555 -14c-166.667 -1.33301 -295.666 58.001 -386.999 178.001c-92.667 120 -135.667 283.667 -129 491c2.66699 203.333 48.334 366 137.001 488c91.333 121.333 217.666 182 378.999 182c168 1.33301 297.667 -57.334 389 -176.001
c88.667 -117.333 131.667 -282 129 -494c-6.66699 -210 -51.667 -371.667 -135 -485c-88.667 -120 -216.334 -181.333 -383.001 -184zM555.001 276.001c58.667 0 99.667 29.833 123 89.5s35.666 150.167 36.999 271.5c0 106.667 -11 192.667 -33 258
c-27.333 80.667 -69.666 121 -126.999 121s-98.333 -31.333 -123 -94c-23.333 -57.333 -35 -146.333 -35 -267c0 -106.667 11 -192 33 -256c27.333 -82 69 -123 125 -123z" />
    <glyph glyph-name="one" unicode="1" horiz-adv-x="669" 
d="M252 1333c166.667 0 272.333 -65.332 317 -195.999c26 -84.667 41 -201 45 -349c2.66699 -108 0 -227.333 -8 -358c-2.66699 -32.667 -4.66699 -71 -6 -115c-4 -108 -25.667 -194 -65 -258c-19.333 -31.333 -50.166 -50.333 -92.499 -57s-75.833 -2 -100.5 14
c-49.333 23.333 -79.333 74 -90 152c-8 62.667 -11.333 139.667 -10 231v158c0 151.333 -3 251 -9 299c-5.33301 52 -20.333 88.333 -45 109c-18 13.333 -50 24.666 -96 33.999c-58.667 12 -89.334 58.667 -92.001 140c-2.66699 50.667 7 91.667 29 123
c34 48.667 108.333 73 223 73z" />
    <glyph glyph-name="two" unicode="2" horiz-adv-x="919" 
d="M594 319l111.004 -0.00292969c79.333 0 133 -22.333 161 -67c15.333 -24.667 21 -58.5 17 -101.5s-15.667 -74.167 -35 -93.5c-32.667 -34 -81.334 -52.333 -146.001 -55c-19.333 -1.33301 -46.333 -2 -81 -2h-261c-87.333 0 -152 10.333 -194 31
c-64 31.333 -102.333 74.333 -115 129c-4 32.667 -4.66699 62.667 -2 90c5.33301 48 23 92.333 53 133c19.333 23.333 65.333 65 138 125c86 70.667 148 123.334 186 158.001l51 51c42 42 72 83.667 90 125c10.667 20.667 13.667 44.834 9 72.501
s-19.334 45.834 -44.001 54.501c-38 13.333 -87 18.666 -147 15.999c-9.33301 -1.33301 -23.333 -2.33301 -42 -3s-32.667 -1 -42 -1c-102.667 -6.66699 -157.334 35.666 -164.001 126.999c-10.667 101.333 28.333 159.333 117 174c61.333 10.667 137.666 16 228.999 16
c106.667 0 195 -17.667 265 -53c52 -27.333 88.667 -56.666 110 -87.999c38 -54.667 58.667 -118.667 62 -192c2.66699 -80.667 -15.333 -156.667 -54 -228c-18 -34 -59.667 -88 -125 -162c-40.667 -42 -87 -85 -139 -129c-34 -27.333 -83.667 -69.666 -149 -126.999h141z
" />
    <glyph glyph-name="three" unicode="3" horiz-adv-x="921" 
d="M676 674c65.333 -15.333 116.334 -45.998 153.001 -91.998c35.333 -48 53.333 -113.667 54 -197c-1.33301 -61.333 -16.666 -120 -45.999 -176s-70 -101.667 -122 -137c-75.333 -50.667 -177.666 -77.334 -306.999 -80.001c-113.333 -2.66699 -192 10.333 -236 39
c-40.667 26 -61 64 -61 114c0 88.667 42.333 133.334 127 134.001c30 0 62.667 -1.66699 98 -5c65.333 -9.33301 120.666 5 165.999 43c19.333 15.333 30.666 39.666 33.999 72.999s0 57.666 -10 72.999c-16.667 30 -45.334 49 -86.001 57
c-12 2.66699 -31.667 5.33398 -59 8.00098h-113c-32.667 -1.33301 -56.5 10.667 -71.5 36s-21.833 56.333 -20.5 93c2.66699 78 30.667 117 84 117c62.667 2.66699 101 4 115 4c88.667 19.333 131.667 66 129 140c-5.33301 57.333 -33.333 91.333 -84 102
c-54.667 9.33301 -107.334 10.666 -158.001 3.99902l-39.5 -5c-15.667 -2 -24.834 -3 -27.501 -3c-23.333 -4 -45.333 -2 -66 6s-35.667 20.333 -45 37c-18 28.667 -25.667 62.667 -23 102c2.66699 46.667 15 80.334 37 101.001c16.667 15.333 45.334 24 86.001 26
c50.667 2.66699 93 4.66699 127 6h66c94 0 176.667 -11.333 248 -34c152.667 -46.667 225 -151.334 217 -314.001c-5.33301 -128.667 -60.666 -216 -165.999 -262v-10z" />
    <glyph glyph-name="four" unicode="4" horiz-adv-x="1015" 
d="M150 1128c9.33301 68 30.333 115.336 63 142.003c24.667 20.667 65 29.334 121 26.001c70.667 -1.33301 116.334 -23 137.001 -65c13.333 -31.333 14 -82.666 2 -153.999l-24 -135l-13.5 -75c-6.33301 -34.667 -11.5 -61.667 -15.5 -81
c-9.33301 -46.667 -17.666 -92.334 -24.999 -137.001c-6.66699 -44 -10 -67.667 -10 -71c28.667 4 75.667 7.33301 141 10h52c15.333 0 24 0.666992 26 2c0 13.333 1.33301 74.666 4 183.999c0 13.333 0.333008 33.333 1 60s1.66699 47 3 61
c1.33301 28.667 2.66602 64.167 3.99902 106.5s2 72.5 2 90.5c0 75.333 20.667 127.666 62 156.999c22 16.667 54.167 26.667 96.5 30s74.166 0.333008 95.499 -9c46.667 -18 75.334 -51.667 86.001 -101c5.33301 -20.667 8.33301 -45 9 -73
c0 -88.667 0.666992 -159.667 2 -213c0 -88.667 -2.66699 -172 -8 -250v-45c-1.33301 -8 -2.5 -21 -3.5 -39s-1.5 -31.667 -1.5 -41c-1.33301 -20.667 -2 -54 -2 -100c0 -10.667 -0.333008 -27 -1 -49s-1.66699 -38.667 -3 -50c-1.33301 -20.667 -2 -47.334 -2 -80.001
c-1.33301 -15.333 -2 -30.333 -2 -45c-6.66699 -76.667 -22.334 -126.334 -47.001 -149.001c-30 -26 -86.667 -38.333 -170 -37c-46.667 1.33301 -80.834 16 -102.501 44s-31.167 61.667 -28.5 101c0 6.66699 0.666992 15 2 25c0 8 0.333008 17.833 1 29.5
s1.66699 24.667 3 39s2 25.5 2 33.5c1.33301 12 2 25.667 2 41c-70.667 -2.66699 -119.667 -4 -147 -4c-61.333 0 -107.666 -0.666992 -138.999 -2c-82 0 -141 7.66699 -177 23c-54.667 23.333 -86.667 64.333 -96 123c-5.33301 44 3 133.333 25 268
c16.667 92.667 29.667 161.667 39 207z" />
    <glyph glyph-name="five" unicode="5" horiz-adv-x="940" 
d="M371 975c-1.33301 -10.667 -11.667 -82.999 -31 -216.999c76.667 48 165.334 67.667 266.001 59c113.333 -6.66699 198.333 -42.5 255 -107.5s83 -154.833 79 -269.5c-5.33301 -155.333 -67.333 -274 -186 -356c-83.333 -58.667 -193.333 -88 -330 -88
c-48 0 -90.333 3.33301 -127 10c-53.333 6.66699 -94.333 17 -123 31c-68 32.667 -98.667 83.667 -92 153c9.33301 92.667 64.666 135.667 165.999 129c16.667 -1.33301 46 -4.66602 88 -9.99902c82 -10.667 146 -4.33398 192 18.999c32.667 18 50.667 52.667 54 104
c0 45.333 -15 78.666 -45 99.999c-22 18 -53 27 -93 27c-60 0 -116 -21 -168 -63c-48 -12 -97.667 -6.66699 -149 16c-50.667 19.333 -75.334 48 -74.001 86c2.66699 44 8.33398 106 17.001 186l12 115c4 44 8 80.333 12 109c6.66699 50.667 10 78.667 10 84l5 43
c12 66.667 44.667 112.334 98 137.001c36.667 15.333 99.334 22.666 188.001 21.999h236c76.667 0 132 -5.33301 166 -16c57.333 -19.333 88.666 -61 93.999 -125c5.33301 -84.667 -22 -138 -82 -160c-32.667 -12 -101 -18 -205 -18h-233z" />
    <glyph glyph-name="six" unicode="6" horiz-adv-x="1081" 
d="M70 657c2.66699 143.333 35.3311 274.665 97.998 393.998c66.667 122.667 158 204.334 274 245.001c72.667 27.333 151.334 37 236.001 29c95.333 -12 148 -57 158 -135c6.66699 -64 -13.333 -109.667 -60 -137c-28.667 -15.333 -60.667 -26.333 -96 -33
c-34 -6.66699 -66 -19 -96 -37c-90 -52 -141.333 -133.333 -154 -244c74 76.667 176.333 111.667 307 105c112 -8 197.667 -48 257 -120s88.333 -164.667 87 -278c0 -114.667 -38.667 -215 -116 -301c-80.667 -88.667 -184.667 -137 -312 -145
c-199.333 -9.33301 -349.333 47.334 -450 170.001c-95.333 114.667 -139.666 277 -132.999 487zM753.997 439.999c-2.66699 38 -15.334 69 -38.001 93s-50.334 38 -83.001 42c-79.333 6.66699 -142.333 -29.333 -189 -108c6.66699 -57.333 23.334 -103 50.001 -137
c31.333 -45.333 71.333 -67.333 120 -66c50.667 2.66699 87.334 20 110.001 52s32.667 73.333 30 124z" />
    <glyph glyph-name="seven" unicode="7" 
d="M313 975l-109.997 0.000976562c-84.667 0 -142 22.333 -172 67c-16.667 24.667 -23.667 58.167 -21 100.5s13 73.833 31 94.5c31.333 34 80.333 52.333 147 55c19.333 1.33301 46.666 2 81.999 2h336c101.333 0 171.666 -8 210.999 -24
c60 -24.667 92.667 -69.667 98 -135c5.33301 -64 -13.667 -127 -57 -189c-82 -108 -154.333 -245 -217 -411c-22 -60 -41 -126.333 -57 -199l-19 -103c-18 -102.667 -33.667 -162.667 -47 -180c-22 -28.667 -56 -46.334 -102 -53.001
c-66.667 -9.33301 -115.334 -5.33301 -146.001 12c-46.667 26 -71.667 69 -75 129c-1.33301 34 0.666992 70.333 6 109c24.667 136.667 62.667 265.667 114 387c57.333 134 121 246.667 191 338h-193z" />
    <glyph glyph-name="eight" unicode="8" horiz-adv-x="1046" 
d="M238 686c-50.667 23.333 -88.668 59.166 -114.001 107.499s-36.666 101.833 -33.999 160.5c1.33301 113.333 51.333 203 150 269c79.333 50.667 181 75.667 305 75c121.333 -2.66699 219 -29.667 293 -81c83.333 -61.333 124.333 -151.666 123 -270.999
c0 -53.333 -13 -104.5 -39 -153.5s-62.333 -84.5 -109 -106.5v-10c66.667 -16.667 116.5 -50.834 149.5 -102.501s49.5 -114.5 49.5 -188.5c0 -124 -46 -222.333 -138 -295c-82 -64 -198.667 -96 -350 -96c-168 0 -295 39.667 -381 119
c-69.333 62.667 -104 147.334 -104 254.001c0 69.333 16.333 132.666 49 189.999c36.667 62.667 86.667 102.334 150 119.001v10zM376.999 379c2.66699 -39.333 18.333 -70 47 -92s62.167 -33 100.5 -33s72.166 10.833 101.499 32.5s45.333 52.5 48 92.5
c1.33301 49.333 -12.334 88.333 -41.001 117c-27.333 27.333 -63.666 42.333 -108.999 45c-42 -2.66699 -77.667 -18.667 -107 -48s-42.666 -67.333 -39.999 -114zM523.998 782c86 20.667 125 66.667 117 138c-5.33301 70.667 -44.333 106 -117 106
c-31.333 0 -57.5 -8.83301 -78.5 -26.5s-32.833 -44.167 -35.5 -79.5c-8.66699 -72.667 29.333 -118.667 114 -138z" />
    <glyph glyph-name="nine" unicode="9" horiz-adv-x="1021" 
d="M1004 692c-6.66699 -202 -61.998 -366.331 -165.998 -492.998c-105.333 -125.333 -234.333 -189 -387 -191c-57.333 0 -104.666 9.66699 -141.999 29c-45.333 23.333 -70.666 58.666 -75.999 105.999c-6.66699 62.667 13.333 108.667 60 138
c32.667 18 64.667 29.333 96 34c82 15.333 151 60 207 134c30 39.333 45.667 84.333 47 135c-50.667 -57.333 -129.667 -87.333 -237 -90c-128.667 -2.66699 -229.834 32.166 -303.501 104.499s-110.5 171.833 -110.5 298.5s39 229 117 307
c49.333 49.333 111.166 84.5 185.499 105.5s145.166 29.833 212.499 26.5s127.666 -15.333 180.999 -36c147.333 -57.333 243 -168.333 287 -333c22 -78 31.667 -169.667 29 -275zM461.002 1069c-45.333 -1.33301 -81.999 -15.001 -109.999 -41.001
s-42.667 -60.667 -44 -104c0 -44 13.333 -81.667 40 -113s64 -47 112 -47c72.667 0 130 36 172 108c-2.66699 54.667 -17.667 101.334 -45 140.001c-28.667 39.333 -70.334 58.333 -125.001 57z" />
    <glyph glyph-name="colon" unicode=":" horiz-adv-x="516" 
d="M63.5 147.5c1.66699 80.333 37.834 134.834 108.501 163.501c62.667 24.667 127 20 193 -14c70.667 -38 106.667 -94.667 108 -170c1.33301 -66.667 -25.334 -115 -80.001 -145c-39.333 -23.333 -81 -35 -125 -35c-48 0 -89 10 -123 30
c-56 33.333 -83.167 90.166 -81.5 170.499zM63.5 618.501c1.66699 80.333 37.834 134.833 108.501 163.5c62.667 24.667 127 20 193 -14c70.667 -38 106.667 -94.667 108 -170c1.33301 -66.667 -25.334 -115 -80.001 -145c-39.333 -23.333 -81 -35 -125 -35
c-48 0 -89 10.333 -123 31c-56 32.667 -83.167 89.167 -81.5 169.5z" />
    <glyph glyph-name="semicolon" unicode=";" horiz-adv-x="571" 
d="M92 618.5c1.33301 80.333 37.668 134.833 109.001 163.5c62.667 24.667 126.667 20 192 -14c70.667 -38 107 -94.667 109 -170c1.33301 -66.667 -25.334 -115 -80.001 -145c-39.333 -23.333 -81 -35 -125 -35c-48 0 -89 10.333 -123 31
c-56 32.667 -83.333 89.167 -82 169.5zM199.002 -182c44 40.667 78.666 91.6699 103.999 153.003c-49.333 0 -91 9 -125 27c-50.667 26 -76 69 -76 129c0 72.667 32.333 124 97 154c44 20.667 98.333 26.667 163 18c54.667 -9.33301 98 -33.333 130 -72
c16.667 -24.667 25.334 -53.334 26.001 -86.001c0 -113.333 -34.667 -222.333 -104 -327c-30 -46.667 -63.167 -81.334 -99.5 -104.001s-68.833 -27.667 -97.5 -15c-30 9.33301 -48.333 23.666 -55 42.999c-6.66699 13.333 -7 25.5 -1 36.5s18.667 25.5 38 43.5z" />
    <glyph glyph-name="less" unicode="&#x3c;" horiz-adv-x="985" 
d="M362 260c-186 113.333 -281.335 230.001 -286.002 350.001c-8 125.333 87.333 251 286 377c50.667 31.333 108.334 60 173.001 86c74 27.333 135.333 41.666 184 42.999c36.667 1.33301 62.834 -12.334 78.501 -41.001s24.834 -77 27.501 -145
c1.33301 -46.667 -2.66699 -81 -12 -103c-10.667 -23.333 -25.667 -36.333 -45 -39c-62.667 -15.333 -118 -33.666 -166 -54.999c-91.333 -39.333 -143.333 -75.333 -156 -108c13.333 -35.333 65.333 -73 156 -113c56 -24.667 111.333 -43.667 166 -57
c20.667 -2.66699 35.667 -15 45 -37c10.667 -22 14.667 -61 12 -117s-11.334 -99 -26.001 -129c-13.333 -27.333 -37.5 -42 -72.5 -44s-67.5 3 -97.5 15c-54.667 13.333 -116.334 37.333 -185.001 72c-31.333 14.667 -58.666 29.667 -81.999 45z" />
    <glyph glyph-name="equal" unicode="=" horiz-adv-x="1060" 
d="M930 684c-1.33301 -49.333 -16.3359 -85.165 -45.0029 -107.498s-65.667 -32.166 -111 -29.499c-23.333 0 -43.666 0.666992 -60.999 2c-53.333 1.33301 -119.666 3.33301 -198.999 6c-48 0 -82 0.666992 -102 2h-82h-47h-54c-49.333 -2.66699 -88 13.666 -116 48.999
c-15.333 18 -24 46.167 -26 84.5s3.66699 67.5 17 87.5c27.333 39.333 65 59.333 113 60h225h187h57c24.667 0 42.167 -0.333008 52.5 -1s24 -1.33398 41 -2.00098s29.5 -1.83398 37.5 -3.50098s16.833 -3.83398 26.5 -6.50098s17.834 -6 24.501 -10
c36.667 -26 56.667 -57.333 60 -94c1.33301 -11.333 2 -23.666 2 -36.999zM955.997 289.001c-1.33301 -49.333 -16.333 -85.3311 -45 -107.998s-65.334 -32.334 -110.001 -29.001c-23.333 0 -44 0.666992 -62 2c-53.333 1.33301 -119.333 3.33301 -198 6
c-48 0 -82.333 0.666992 -103 2h-82h-47h-53c-49.333 -2.66699 -88.333 13.666 -117 48.999c-15.333 18 -23.833 46 -25.5 84s4.16602 67.333 17.499 88c27.333 39.333 65 59 113 59h225h186h57.5c25 0 42.5 -0.333008 52.5 -1s23.5 -1.33398 40.5 -2.00098
s29.667 -1.66699 38 -3s17.333 -3.33301 27 -6s17.834 -6 24.501 -10c36.667 -26 56.334 -57.333 59.001 -94c1.33301 -11.333 2 -23.666 2 -36.999z" />
    <glyph glyph-name="greater" unicode="&#x3e;" horiz-adv-x="868" 
d="M549 260c-45.333 -30 -101.999 -58.665 -169.999 -85.998c-69.333 -28.667 -131.333 -43.667 -186 -45c-36.667 -2.66699 -63 10.666 -79 39.999s-25.333 78 -28 146c-2.66699 45.333 1.33301 79.666 12 102.999c9.33301 22 24.333 34.333 45 37
c58.667 15.333 114.667 34.333 168 57c88.667 39.333 140 77 154 113c-13.333 32.667 -64.666 68.667 -153.999 108c-46.667 20.667 -102.667 39 -168 55c-19.333 2.66699 -34.333 15.667 -45 39c-10.667 22 -14.667 61.667 -12 119s11.667 100.333 27 129
c22 40.667 79.333 49.667 172 27c65.333 -16.667 126.666 -40 183.999 -70c12 -5.33301 38.667 -20.333 80 -45c199.333 -125.333 295.666 -251 288.999 -377c-8.66699 -121.333 -105 -238 -289 -350z" />
    <glyph glyph-name="question" unicode="?" horiz-adv-x="1107" 
d="M184 35c1.33301 80.667 37.668 135.332 109.001 163.999c62.667 24.667 126.667 19.667 192 -15c70.667 -38 107 -94.667 109 -170c1.33301 -66.667 -25.334 -115 -80.001 -145c-39.333 -23.333 -81 -35 -125 -35c-48 0 -89 10.333 -123 31
c-56 32.667 -83.333 89.334 -82 170.001zM37.002 1157c-9.33301 108 22.665 182.337 95.998 223.004c56 31.333 163.333 52.666 322 63.999c151.333 10.667 270.666 -14 357.999 -74c102.667 -70.667 158.667 -187.334 168 -350.001c9.33301 -150 -33 -259.333 -127 -328
c-56 -40.667 -131 -68.667 -225 -84c-46.667 -6.66699 -74.667 -27.667 -84 -63c-5.33301 -12 -8 -27.667 -8 -47c0 -39.333 -5 -69.333 -15 -90c-15.333 -31.333 -42.666 -55.333 -81.999 -72c-19.333 -8 -45.333 -13.667 -78 -17c-120 -8 -172.333 94 -157 306
c6.66699 87.333 39.334 154 98.001 200c34 27.333 84 46 150 56c52 2.66699 98.333 15.667 139 39c50.667 27.333 68.334 66.666 53.001 117.999c-13.333 49.333 -65.333 72 -156 68c-39.333 -2.66699 -82.333 -9 -129 -19c-131.333 -26 -209.666 -36.667 -234.999 -32
c-44 5.33301 -70.667 25 -80 59c-2.66699 9.33301 -5.33398 23.666 -8.00098 42.999z" />
    <glyph glyph-name="at" unicode="@" horiz-adv-x="1329" 
d="M737 870c19.333 48 54.333 75.332 105 81.999c35.333 2.66699 62.166 -6.16602 80.499 -26.499s27.5 -48.833 27.5 -85.5v-56c-1.33301 -15.333 -2 -37 -2 -65c0 -53.333 2.66699 -93.666 8 -120.999c5.33301 -40.667 28.666 -64 69.999 -70
c35.333 -2.66699 59.333 14 72 50c12 38 18.667 86.667 20 146s-5.33398 113.666 -20.001 162.999c-32.667 88.667 -95.667 147.334 -189 176.001c-42 12 -93.667 19.333 -155 22c-151.333 4 -271.5 -32.5 -360.5 -109.5s-138.167 -187.833 -147.5 -332.5
c-12 -148.667 33.667 -264 137 -346c61.333 -50.667 135 -81.334 221 -92.001c58.667 -6.66699 141.334 -6.66699 248.001 0c46.667 1.33301 76.667 -8.33398 90 -29.001c9.33301 -15.333 12.666 -36.333 9.99902 -63c-5.33301 -56 -36.666 -92.333 -93.999 -109
c-34 -10.667 -87.333 -16 -160 -16c-192.667 0 -346.667 41 -462 123c-80.667 57.333 -141.5 130.333 -182.5 219s-58.833 186.334 -53.5 293.001c13.333 199.333 88.333 361.666 225 486.999c132.667 116 300 177.333 502 184c132.667 6.66699 255.667 -21.333 369 -84
c154 -84.667 231.667 -239.667 233 -465c0 -134 -36.667 -235.667 -110 -305c-61.333 -57.333 -138.666 -87.333 -231.999 -90c-88.667 -1.33301 -157 20.667 -205 66c-53.333 -39.333 -113.333 -58.666 -180 -57.999c-70.667 1.33301 -124 28 -160 80
c-35.333 48 -51.666 107.333 -48.999 178c1.33301 65.333 22.5 122 63.5 170s94.167 77.333 159.5 88c36.667 5.33301 77 4 121 -4zM748 712.999c-35.333 10.667 -62.0029 14.001 -80.0029 10.001c-27.333 -4 -49.166 -16.667 -65.499 -38s-23.166 -47 -20.499 -77
c2.66699 -26 11.834 -47.833 27.501 -65.5s34.5 -25.834 56.5 -24.501c28.667 0 56.667 9 84 27c-1.33301 22 -1.33301 50 0 84c0 40.667 -0.666992 68.667 -2 84z" />
    <glyph glyph-name="A" unicode="A" horiz-adv-x="1181" 
d="M872 1249c38 -88.667 70.333 -188.999 97 -300.999c4 -24.667 13.333 -63.667 28 -117c6.66699 -28.667 18.667 -76.334 36 -143.001l40 -156c31.333 -138 51.333 -231.333 60 -280c10.667 -72.667 7 -125.334 -11 -158.001c-18 -34 -48 -55 -90 -63
c-58.667 -15.333 -107 -12.666 -145 8.00098c-42 20.667 -74 61 -96 121c-10.667 28.667 -19 59.334 -25 92.001c-1.33301 2.66699 -2 6.66699 -2 12s-0.666992 10.333 -2 15h-326h-26c0 -1.33301 -0.666992 -3 -2 -5c-20.667 -75.333 -42.667 -132 -66 -170
c-28.667 -49.333 -69.667 -74.333 -123 -75c-44 0 -79.5 7.5 -106.5 22.5s-44.333 35.5 -52 61.5s-10.834 52.167 -9.50098 78.5s7 55.5 17 87.5c28.667 98 70.334 228.333 125.001 391l141 397c45.333 121.333 82 200 110 236c39.333 48 88 73.667 146 77
c24.667 2.66699 48.667 2.66699 72 0c104.667 -6.66699 174.667 -50.334 210 -131.001zM711 522.001c-27.333 120 -49.335 224 -66.002 312c-23.333 122.667 -35.666 192 -36.999 208c-5.33301 -28.667 -8.66602 -45 -9.99902 -49c-5.33301 -22 -11.333 -50 -18 -84
c-16.667 -69.333 -34 -136.666 -52 -201.999l-24 -93c-6.66699 -20.667 -15.667 -51.334 -27 -92.001h234z" />
    <glyph glyph-name="B" unicode="B" horiz-adv-x="985" 
d="M760 645c62.667 -13.333 112.166 -45.999 148.499 -97.999s54.5 -122.333 54.5 -211c0 -86 -23.667 -161.5 -71 -226.5s-109.666 -109.833 -186.999 -134.5c-30 -10.667 -80 -17.334 -150 -20.001c-20.667 0 -37.667 -0.666992 -51 -2
c-15.333 -1.33301 -39.333 -2 -72 -2h-82c-72.667 0 -135.334 8.66699 -188.001 26c-65.333 20.667 -101.666 97.334 -108.999 230.001c-2.66699 40.667 -5.33398 102 -8.00098 184c-2.66699 23.333 -2.66699 54 0 92c0 54.667 0.666992 97.667 2 129
c0 75.333 2.66699 169 8 281c1.33301 44 3.33301 81 6 111c0 8 0.333008 16.667 1 26s1.5 17.166 2.5 23.499s1.5 10.833 1.5 13.5c16.667 104 56 164.667 118 182c64 16.667 138 25.667 222 27c125.333 2.66699 226.333 -8.33301 303 -33
c152.667 -49.333 225 -154.333 217 -315c-5.33301 -136.667 -60.666 -227.667 -165.999 -273v-10zM394.999 494.001c1.33301 -82 -1.33203 -174.332 -7.99902 -276.999c80.667 -8 145 7 193 45c23.333 19.333 36.666 47.666 39.999 84.999s-2.66699 65.666 -18 84.999
c-28.667 40.667 -72.334 63.334 -131.001 68.001c-27.333 2.66699 -52.666 0.666992 -75.999 -6zM399.001 1006c-1.33301 -28.667 -2 -69.667 -2 -123c0 -23.333 1.33301 -63.666 4 -120.999c70.667 1.33301 122 17.666 154 48.999c24.667 24.667 35.667 56.167 33 94.5
s-15.667 66.166 -39 83.499c-27.333 20.667 -77.333 26.334 -150 17.001z" />
    <glyph glyph-name="C" unicode="C" horiz-adv-x="991" 
d="M31 666c2.66699 181.333 55.665 333.332 158.998 455.999c108 131.333 253.667 193 437 185c57.333 0 105 -11.667 143 -35c40.667 -26 65.334 -65.667 74.001 -119c8 -69.333 -12 -118.333 -60 -147c-38 -20.667 -82.333 -35.667 -133 -45
c-56 -12 -92.667 -23.667 -110 -35c-61.333 -36.667 -93.666 -118 -96.999 -244c0 -49.333 5 -93.666 15 -132.999c9.33301 -52 23.666 -87.667 42.999 -107c36.667 -38 106.334 -60.333 209.001 -67c69.333 -2.66699 118.333 -7.66699 147 -15
c45.333 -10.667 75.333 -40 90 -88c26 -87.333 8.33301 -152.666 -53 -195.999c-57.333 -42 -141.333 -64.667 -252 -68c-202 -5.33301 -356.333 52.667 -463 174c-106 119.333 -155.667 280.666 -149 483.999z" />
    <glyph glyph-name="D" unicode="D" horiz-adv-x="993" 
d="M496 -45c-96.667 -4 -170.668 -4.00195 -222.001 -0.00195312c-101.333 9.33301 -162.666 40 -183.999 92c-23.333 58.667 -36.333 173.334 -39 344.001c-1.33301 23.333 -1.33301 54 0 92c0 54.667 0.666992 97.667 2 129c0 75.333 2.66699 169 8 281
c2.66699 44 5 81 7 111c0 8 0.333008 16.667 1 26s1.33398 17.166 2.00098 23.499s1 10.833 1 13.5c16.667 104 56 164.667 118 182c68 18 161.667 25.667 281 23c172 -8 296.333 -51.667 373 -131c49.333 -49.333 86.666 -119.666 111.999 -210.999
c24.667 -86 37 -180.333 37 -283c0 -113.333 -15.667 -221.666 -47 -324.999c-39.333 -122.667 -98 -213.667 -176 -273c-72 -56 -163.333 -87.333 -274 -94zM392.999 273.998c24.667 -2.66699 43.334 -4.00098 56.001 -4.00098c39.333 0 75.333 9.66699 108 29
c31.333 19.333 54 50 68 92c18 56 26.667 140.667 26 254c0 128.667 -23.667 216.667 -71 264c-36.667 36.667 -94.667 52.334 -174 47.001v-184c0 -66.667 -1.66699 -171 -5 -313c-2.66699 -88 -5.33398 -149.667 -8.00098 -185z" />
    <glyph glyph-name="E" unicode="E" 
d="M82 971c22 106.667 68.999 181.669 140.999 225.002c61.333 38 163 60.5 305 67.5s238.333 -18.167 289 -75.5c31.333 -36.667 38.333 -79 21 -127c-19.333 -52 -55.666 -85.333 -108.999 -100c-24.667 -9.33301 -84 -19.666 -178 -30.999
c-69.333 -6.66699 -111.666 -20.334 -126.999 -41.001c-16.667 -19.333 -25 -61.666 -25 -126.999c132.667 18 221.667 11.667 267 -19c34 -20.667 49.667 -56 47 -106c0 -45.333 -16.333 -81 -49 -107c-24.667 -19.333 -72 -31.333 -142 -36
c-35.333 -2.66699 -59.666 -4.33398 -72.999 -5.00098c-26 -2.66699 -39.667 -4 -41 -4c1.33301 -80.667 21.666 -132.334 60.999 -155.001c34 -20.667 97.5 -25.5 190.5 -14.5s151.833 14.5 176.5 10.5c48 -10.667 72.333 -47 73 -109c1.33301 -86 -39 -152.333 -121 -199
c-75.333 -40.667 -169.333 -61 -282 -61c-116 -1.33301 -207.5 14.667 -274.5 48s-114.167 91 -141.5 173c-32.667 101.333 -47.667 238.666 -45 411.999c1.33301 143.333 13.666 270.333 36.999 381z" />
    <glyph glyph-name="F" unicode="F" horiz-adv-x="868" 
d="M106 948c22 106.667 68.667 182.001 140 226.001c61.333 38 163 60.333 305 67c80.667 2.66699 147.667 -0.666016 201 -9.99902c78 -13.333 129 -35.333 153 -66c30 -34 37 -76.333 21 -127c-19.333 -52 -55.666 -85.333 -108.999 -100c-26 -8 -67 -14.667 -123 -20
l-67 -7c-58.667 -2.66699 -103 -8.66699 -133 -18c-35.333 -10.667 -56.666 -33.334 -63.999 -68.001c-2.66699 -12 -5.33398 -31.667 -8.00098 -59v-86c42 6.66699 104 10 186 10c74 -2.66699 122.667 -11.334 146 -26.001c34 -24.667 49.667 -61 47 -109
c-1.33301 -42 -17.666 -76.667 -48.999 -104c-24.667 -19.333 -82 -31.666 -172 -36.999c-46.667 -2.66699 -79 -4 -97 -4c-34 -2.66699 -51.667 -4 -53 -4c1.33301 -22 0.666016 -79.667 -2.00098 -173v-108c0 -78 -19.667 -131.333 -59 -160
c-23.333 -16.667 -55.833 -26.667 -97.5 -30s-72.167 0.666992 -91.5 12c-40.667 19.333 -67.334 54.666 -80.001 105.999c-8 27.333 -13.333 51.333 -16 72c-9.33301 58.667 -14 133.667 -14 225c0 142 5.33301 291 16 447c4 62.667 10.667 113 20 151z" />
    <glyph glyph-name="G" unicode="G" horiz-adv-x="1110" 
d="M47 653c2.66699 140.667 35.3291 269.004 97.9961 385.004c65.333 121.333 157.666 202.666 276.999 243.999c82 26 160.333 35 235 27c95.333 -12 148 -56.333 158 -133c8 -64 -11.667 -108.667 -59 -134c-39.333 -20.667 -75 -34.334 -107 -41.001
c-94 -23.333 -160.667 -70.333 -200 -141c-46.667 -83.333 -57 -192.666 -31 -327.999c16.667 -92.667 53.334 -158 110.001 -196c31.333 -19.333 63.5 -29 96.5 -29s61.167 7.66699 84.5 23c39.333 23.333 62.333 64.333 69 123
c2.66699 31.333 1.33398 58.666 -3.99902 81.999c-9.33301 -1.33301 -27.666 -2.33301 -54.999 -3c-88.667 0 -143.334 20.667 -164.001 62c-15.333 31.333 -20.5 63.666 -15.5 96.999s16.167 57.666 33.5 72.999c28.667 26 68.334 40.333 119.001 43
c16.667 0 37.334 1.33301 62.001 4c52 4 103.833 1.66699 155.5 -7s87.834 -20.667 108.501 -36c36.667 -30 63.334 -77.667 80.001 -143c13.333 -52 18.666 -104.667 15.999 -158c-6.66699 -130 -52.334 -236.667 -137.001 -320c-84.667 -84.667 -196 -131 -334 -139
c-200.667 -9.33301 -353 46 -457 166c-99.333 116 -145.666 275.667 -138.999 479z" />
    <glyph glyph-name="H" unicode="H" horiz-adv-x="1030" 
d="M66 1040c1.33301 70.667 17.665 119.995 48.998 147.995c27.333 26 84 39 170 39c34 0 64.667 -15 92 -45c23.333 -27.333 35 -61 35 -101v-34v-82c-1.33301 -22 -2 -57.667 -2 -107c-1.33301 -26 -2 -62.667 -2 -110c-1.33301 -23.333 -2 -53.666 -2 -90.999v-51l75 6
c45.333 0 87 1.33301 125 4c15.333 0 24.333 0.666992 27 2v58v86c0 40.667 0.666992 71.334 2 92.001v76v108c0 76.667 19.667 130 59 160c22 16.667 53.833 26.334 95.5 29.001s74.167 -0.666016 97.5 -9.99902c48 -19.333 78 -53 90 -101
c5.33301 -20.667 8 -45.334 8 -74.001c1.33301 -64 3.33301 -139.667 6 -227c1.33301 -78 0 -166 -4 -264v-45c-1.33301 -15.333 -2 -42 -2 -80v-100v-99v-80c-1.33301 -15.333 -2 -30.333 -2 -45c-5.33301 -74 -21.666 -122.333 -48.999 -145
c-31.333 -27.333 -88 -41 -170 -41c-35.333 0 -66 15 -92 45c-24.667 26 -37 59.333 -37 100c0 9.33301 0.666992 23 2 41c0 36.667 0.666992 65.334 2 86.001c0 40.667 0.666992 71.667 2 93v59c-44 -5.33301 -91.667 -8 -143 -8c-15.333 -1.33301 -34 -2 -56 -2
c-16.667 0 -26 -0.666992 -28 -2v-27v-16v-25c-1.33301 -6.66699 -2 -22.334 -2 -47.001v-107c0 -78 -20 -131 -60 -159c-23.333 -16.667 -55.666 -26.667 -96.999 -30s-71.666 0.333984 -90.999 11.001c-40.667 19.333 -67.334 54.333 -80.001 105
c-8 28.667 -13.333 53 -16 73c-9.33301 58.667 -14.333 134 -15 226c0 84.667 2 171.334 6 260.001c0 15.333 0.666992 30.333 2 45v82c0 42 0.666992 74.667 2 98v101c0 38 1 64.333 3 79v43z" />
    <glyph glyph-name="I" unicode="I" horiz-adv-x="452" 
d="M59 1055c4 64 20.499 109.663 49.499 136.996s70.5 41 124.5 41c58.667 0 102.834 -12 132.501 -36s43.834 -59 42.501 -105v-31v-72c-2.66699 -76.667 -4.33398 -142.667 -5.00098 -198c-1.33301 -92.667 -1.33301 -185 0 -277c0 -124 -0.666992 -217.667 -2 -281
c0 -101.333 -4.66699 -167.333 -14 -198c-20.667 -60 -72.667 -92.667 -156 -98c-62.667 -5.33301 -108.334 12.334 -137.001 53.001c-24.667 32.667 -37 78.334 -37 137.001c-4 248.667 -5.33301 416.667 -4 504c2.66699 106.667 4 182.334 4 227.001
c-1.33301 50.667 -0.666016 116.334 2.00098 197.001z" />
    <glyph glyph-name="J" unicode="J" horiz-adv-x="661" 
d="M250 1075c4 64 20.3311 109.667 48.998 137s70.334 41 125.001 41c58.667 0 102.667 -11.833 132 -35.5s43.333 -58.834 42 -105.501v-31v-71v-95c-1.33301 -23.333 -2 -58 -2 -104c-1.33301 -68 -1.33301 -135.667 0 -203v-202c0 -86 -7 -155.667 -21 -209
c-18 -60 -48 -112.667 -90 -158c-45.333 -52 -90.333 -89.667 -135 -113c-56 -30 -103.667 -37.333 -143 -22c-60 26 -104.333 66.333 -133 121c-34 66.667 -26.667 127.334 22 182.001c9.33301 10.667 25.666 27.667 48.999 51c44 44 72.667 76 86 96
c9.33301 13.333 14.333 27 15 41v256c2.66699 105.333 3.33398 181.333 2.00098 228c-1.33301 50 -0.666016 115.333 2.00098 196z" />
    <glyph glyph-name="K" unicode="K" horiz-adv-x="1015" 
d="M715 741c44 -18 79.499 -43.6621 106.499 -76.9951s52.833 -75.666 77.5 -126.999c30 -62.667 52 -124.334 66 -185.001c18 -88.667 18.667 -155.334 2 -200.001c-23.333 -65.333 -75.333 -99 -156 -101c-45.333 -1.33301 -80.5 11.667 -105.5 39
s-47.833 67.666 -68.5 120.999l-43 117l-43 108c-23.333 50.667 -41 83.667 -53 99c-23.333 27.333 -52 38 -86 32c0 -52 0.666992 -86 2 -102c0 -27.333 -1.33301 -73.666 -4 -138.999c-4 -105.333 -14.333 -170.333 -31 -195c-27.333 -39.333 -64.333 -62 -111 -68
c-27.333 -2.66699 -44.333 -4 -51 -4c-68 1.33301 -111.667 50.666 -131 147.999c-13.333 60 -21.666 155.667 -24.999 287c-2.66699 23.333 -2.66699 54 0 92c0 54.667 0.666992 97.667 2 129c0 75.333 3 168.666 9 279.999c1.33301 44 3.33301 81 6 111
c4 58.667 11.333 105 22 139c18 50.667 46 84.334 84 101.001c19.333 9.33301 48.833 12.666 88.5 9.99902s69.5 -11.667 89.5 -27c35.333 -28.667 53.333 -75.667 54 -141c-1.33301 -20.667 -2 -51.334 -2 -92.001c0 -27.333 1.33301 -72.333 4 -135
c0 -8 0.333008 -19.667 1 -35s1.66699 -27 3 -35c1.33301 -15.333 2 -33.666 2 -54.999c40.667 0 77.667 26.333 111 79c22 34 43 85.333 63 154c16.667 53.333 28.334 97 35.001 131c12 54.667 28.333 95 49 121c26 31.333 69 46.333 129 45
c60 -2.66699 100.667 -20.334 122 -53.001s29.666 -79 24.999 -139c-8 -101.333 -40 -195 -96 -281c-46 -72.667 -95 -123.334 -147 -152.001z" />
    <glyph glyph-name="L" unicode="L" 
d="M76 166c-18 84.667 -25.6699 230.669 -23.0029 438.002c0 9.33301 2 83.666 6 222.999c2.66699 72.667 7 129.334 13 170.001c10.667 66.667 26.334 116 47.001 148c27.333 44 73 65.667 137 65c80.667 -1.33301 130.667 -30 150 -86c8 -26 12 -56 12 -90
c-1.33301 -23.333 -2 -59.333 -2 -108v-166v-152v-114v-50c1.33301 -48 9.33301 -80.667 24 -98c15.333 -20.667 57.666 -32.334 126.999 -35.001c16.667 0 56.334 -1.33301 119.001 -4c57.333 -2.66699 99 -7.33398 125 -14.001c50.667 -13.333 77.334 -55 80.001 -125
c2.66699 -68 -12.333 -120.667 -45 -158c-50.667 -61.333 -151.167 -92 -301.5 -92s-256.166 13.667 -317.499 41c-78.667 35.333 -129 104.333 -151 207z" />
    <glyph glyph-name="M" unicode="M" horiz-adv-x="1284" 
d="M647 760c31.333 49.333 60 100.998 86 154.998c27.333 61.333 58.666 120.333 93.999 177c36.667 57.333 68.334 95.333 95.001 114c32.667 22 82.334 29 149.001 21c87.333 -8 137.333 -79 150 -213c10.667 -120 13.334 -245 8.00098 -375
c-2.66699 -64 -3.33398 -115.333 -2.00098 -154v-166c0 -121.333 -5 -201 -15 -239c-15.333 -49.333 -33.833 -83.166 -55.5 -101.499s-53.5 -28.166 -95.5 -29.499c-56 -1.33301 -97 19.667 -123 63c-20.667 32.667 -31 86 -31 160c0 48 0.666992 88.333 2 121v151
c0 100 1.33301 184 4 252c-28.667 -50.667 -56.667 -107.334 -84 -170.001c-31.333 -72.667 -60.666 -134 -87.999 -184c-24.667 -46.667 -57.334 -70 -98.001 -70s-72.667 22 -96 66c-2.66699 6.66699 -9.5 21 -20.5 43s-19.167 39 -24.5 51l-23.5 49
c-10.333 22 -17.5 38.333 -21.5 49c-19.333 40.667 -33 71.667 -41 93c-5.33301 9.33301 -11.833 22.166 -19.5 38.499s-12.834 27.833 -15.501 34.5v-106c0 -66.667 -1.33301 -165.667 -4 -297c-1.33301 -32.667 -2 -73 -2 -121c0 -72.667 -9 -126 -27 -160
c-22 -44 -61 -65 -117 -63c-42 1.33301 -75.333 11.5 -100 30.5s-43 52.5 -55 100.5c-8 32.667 -12.333 112.334 -13 239.001c0 72.667 1 128 3 166c0 70.667 -1 122 -3 154c-2.66699 199.333 6.33301 338.666 27 417.999c27.333 106.667 82.666 163.334 165.999 170.001
c54.667 2.66699 91.667 -0.666016 111 -9.99902c28.667 -15.333 57.334 -45 86.001 -89c39.333 -62.667 71.333 -124 96 -184c27.333 -64 60 -125.333 98 -184z" />
    <glyph glyph-name="N" unicode="N" horiz-adv-x="1060" 
d="M690 596c-1.33301 39.333 -5.33008 88.335 -11.9971 147.002c-10.667 130 -15.334 246.333 -14.001 349c2.66699 54.667 8.66699 97 18 127c16.667 42 54.334 67.667 113.001 77c61.333 6.66699 115.666 -9.66602 162.999 -48.999c18 -13.333 31.167 -37.5 39.5 -72.5
s13.166 -66.833 14.499 -95.5s2.66602 -76.334 3.99902 -143.001c1.33301 -84.667 0.666016 -214.334 -2.00098 -389.001c0 -20.667 -0.333008 -51.167 -1 -91.5s-1.66699 -69.833 -3 -88.5c0 -10.667 -0.333008 -32.5 -1 -65.5s-1.66699 -56.333 -3 -70
s-3.83301 -32.834 -7.5 -57.501s-9.83398 -46.167 -18.501 -64.5s-20 -35.833 -34 -52.5c-36.667 -44 -85.667 -64.333 -147 -61c-46.667 0 -91.667 24 -135 72c-30 31.333 -65 86.333 -105 165c-23.333 44 -56.666 111.667 -99.999 203c-42 84.667 -73.333 140.667 -94 168
c1.33301 -9.33301 2.33301 -23.666 3 -42.999s1 -33.666 1 -42.999c0 -44 0.666992 -77.333 2 -100c1.33301 -10.667 2 -27.667 2 -51s0.666992 -41.333 2 -54c2.66699 -46.667 4.66699 -80 6 -100c2.66699 -76.667 -4.33301 -130 -21 -160c-22 -44 -61.333 -65 -118 -63
c-42 1.33301 -75.5 11.5 -100.5 30.5s-43.5 52.5 -55.5 100.5c-9.33301 39.333 -17.666 102.666 -24.999 189.999c-5.33301 56 -9.33301 146.333 -12 271c-6.66699 204.667 1 350 23 436c22 95.333 65 145.666 129 150.999c50.667 2.66699 84.667 0 102 -8
c22 -9.33301 51.333 -36 88 -80c52 -66.667 107.333 -150.667 166 -252l74 -131c13.333 -26 33 -60 59 -102z" />
    <glyph glyph-name="O" unicode="O" horiz-adv-x="1214" 
d="M39 594c1.33301 192.667 58.667 354.332 172 484.999c108 124 243 189.667 405 197c170.667 5.33301 309.334 -52.667 416.001 -174c102.667 -120 152.667 -285.333 150 -496c-6.66699 -198 -60 -357.667 -160 -479
c-102.667 -121.333 -234.334 -184.666 -395.001 -189.999c-173.333 -6.66699 -314.666 51.333 -423.999 174c-114.667 124 -169.334 285 -164.001 483zM602.001 226.998c68 -4 120.17 25.834 156.503 89.501s55.166 154.167 56.499 271.5c0 112 -13 200 -39 264
c-36.667 83.333 -93.334 121.666 -170.001 114.999c-136.667 -15.333 -206.334 -139 -209.001 -371c0 -96.667 14.333 -176.667 43 -240c34 -80.667 88 -123.667 162 -129z" />
    <glyph glyph-name="P" unicode="P" horiz-adv-x="1038" 
d="M408 201c0 -40.667 0.666016 -71.3301 1.99902 -91.9971c2.66699 -66.667 -14 -114.667 -50 -144c-19.333 -19.333 -55.5 -28.166 -108.5 -26.499s-91.833 18.167 -116.5 49.5c-27.333 35.333 -43 79.666 -47 132.999c-8 126.667 -12.667 223.667 -14 291
c-1.33301 61.333 -5 158 -11 290c-5.33301 108 -8 218.667 -8 332c0 61.333 7.5 109.166 22.5 143.499s43.167 52.833 84.5 55.5c27.333 1.33301 58.666 -3.33398 93.999 -14.001c32.667 -13.333 57.334 -20.333 74.001 -21c8 0 18 2.66699 30 8
c64 23.333 106.333 37 127 41c23.333 5.33301 54.333 8 93 8c134 1.33301 238.333 -37.334 313 -116.001c40.667 -42 72 -95.833 94 -161.5s32.333 -132.167 31 -199.5c0 -168 -52 -299.667 -156 -395c-53.333 -50.667 -125.666 -82.667 -216.999 -96
c-83.333 -12 -162.333 -8.66699 -237 10v-96zM396.999 557.004c57.333 -10.667 101.666 -14 132.999 -10c64 5.33301 110 34 138 86c22 45.333 29.333 98 22 158c-4 53.333 -21.667 96.333 -53 129s-73 49 -125 49c-45.333 -2.66699 -85.666 -15.667 -120.999 -39v-76
c0 -49.333 1.33301 -120.333 4 -213c0 -42.667 0.666992 -70.667 2 -84z" />
    <glyph glyph-name="Q" unicode="Q" horiz-adv-x="1214" 
d="M47 614c1.33301 194 56.6709 355.336 166.004 484.003c104 121.333 237.667 185.333 401 192c169.333 5.33301 306 -52 410 -172c101.333 -117.333 150.333 -281 147 -491c-6.66699 -180 -49 -327 -127 -441c-80.667 -118.667 -188.334 -191.667 -323.001 -219
c-12 -28.667 -15.333 -54.5 -10 -77.5s16.666 -38.833 33.999 -47.5c26 -12 62.333 -14.667 109 -8c6.66699 1.33301 16.167 3 28.5 5s19.833 3 22.5 3c22 2.66699 38.333 4 49 4c32.667 0 56.667 -10.667 72 -32c13.333 -20.667 18.666 -58.334 15.999 -113.001
c-2.66699 -45.333 -19 -85 -49 -119c-30 -32.667 -85.333 -55 -166 -67c-72.667 -10.667 -151.667 -5.33398 -237 15.999c-68 18 -122 57 -162 117c-42 65.333 -56.333 139.666 -43 222.999c5.33301 39.333 17.666 77 36.999 113c-118.667 42 -211 117.667 -277 227
c-68 108.667 -100.667 243 -98 403zM600.005 248.003c66.667 -4 117.5 25.6689 152.5 89.002s53.167 153.666 54.5 270.999c0 116 -12.333 204 -37 264c-36.667 83.333 -92.667 121.666 -168 114.999c-128.667 -13.333 -194 -137 -196 -371c0 -94 12.667 -173.667 38 -239
c33.333 -80.667 85.333 -123.667 156 -129z" />
    <glyph glyph-name="R" unicode="R" horiz-adv-x="1005" 
d="M399 354c0 -28.667 -0.667969 -51.6709 -2.00098 -69.0039c-4 -105.333 -5.33301 -173 -4 -203c0 -66.667 -18.333 -115 -55 -145c-19.333 -19.333 -56 -28.666 -110 -27.999s-91.667 17.334 -113 50.001c-36.667 53.333 -54 175 -52 365c0 109.333 -4 263.333 -12 462
c-2.66699 98 -4 171.333 -4 220c0 61.333 7.5 109 22.5 143s43.167 52.333 84.5 55c27.333 1.33301 58.666 -3.33398 93.999 -14.001c32.667 -13.333 57.334 -20.333 74.001 -21c8 0 18 3 30 9c64 23.333 106.333 37 127 41c23.333 5.33301 54 8 92 8
c130 2.66699 232.667 -28 308 -92c83.333 -69.333 125.666 -170.666 126.999 -303.999c0 -79.333 -16.833 -149.666 -50.5 -210.999s-78.5 -107 -134.5 -137c44 -66.667 82.333 -137.667 115 -213c44 -98 61.667 -179.667 53 -245c-9.33301 -82 -60.333 -123.667 -153 -125
c-45.333 -1.33301 -81.666 11.667 -108.999 39s-52.666 68 -75.999 122c-30 76.667 -49.667 125.334 -59 146.001c-35.333 76.667 -57.333 122.334 -66 137.001c-46.667 -2.66699 -89 0.666016 -127 9.99902zM388.999 628.996
c53.333 -10.667 105.332 -11.332 155.999 -1.99902c40.667 9.33301 72 28.666 94 57.999s33 65.333 33 108c-1.33301 98 -57.333 147 -168 147c-45.333 -2.66699 -85.666 -15.667 -120.999 -39c0 -128 2 -218.667 6 -272z" />
    <glyph glyph-name="S" unicode="S" horiz-adv-x="923" 
d="M924 436c0 -146 -47.335 -257.997 -142.002 -335.997c-80.667 -66.667 -172 -100 -274 -100c-56 0 -100.333 2.66699 -133 8c-60 6.66699 -108.667 20.334 -146 41.001c-53.333 27.333 -82.666 67.666 -87.999 120.999c-5.33301 66.667 6.33398 113 35.001 139
s72.334 35.667 131.001 29c54.667 -4 97.667 -5.33301 129 -4c35.333 0 59.5 2 72.5 6s25.833 12.333 38.5 25c13.333 13.333 20 34.333 20 63c-1.33301 34 -17.666 56.667 -48.999 68c-20.667 6.66699 -33.667 10.667 -39 12c-6.66699 1.33301 -15.334 3.33301 -26.001 6
c-13.333 0 -23.666 0.666992 -30.999 2c-2.66699 0 -10.167 1 -22.5 3s-23.166 3.66699 -32.499 5c-113.333 26 -195.333 64.333 -246 115c-65.333 70.667 -95.333 157.334 -90 260.001c5.33301 108 40 198.667 104 272c46.667 52 106.667 87 180 105
c49.333 12 119.666 16.667 210.999 14c84.667 -2.66699 155 -18.334 211 -47.001c68 -38 101.667 -85.667 101 -143c-1.33301 -45.333 -13.333 -81.333 -36 -108s-48.334 -42 -77.001 -46c-22 -4 -60.333 2.33301 -115 19c-62.667 18 -107.667 26.667 -135 26
c-36.667 0 -66 -7.5 -88 -22.5s-31.667 -38.833 -29 -71.5c1.33301 -31.333 15.666 -52.333 42.999 -63c15.333 -6.66699 43.333 -14.334 84 -23.001c8 -1.33301 31.167 -5.83301 69.5 -13.5s63.333 -12.834 75 -15.501s30.5 -7.33398 56.5 -14.001
s47.167 -14.167 63.5 -22.5s32.833 -17.833 49.5 -28.5c83.333 -62 125 -155.667 125 -281z" />
    <glyph glyph-name="T" unicode="T" horiz-adv-x="931" 
d="M287 584c-1.33301 40.667 -2.00488 89.6689 -2.00488 147.002c0 72.667 -13 115.667 -39 129c-15.333 9.33301 -48.333 15 -99 17c-18 0 -39 1.33301 -63 4c-18 1.33301 -41.333 6 -70 14c-53.333 16.667 -84.666 57 -93.999 121c-9.33301 60 2.33398 110.333 35.001 151
c24.667 30 52.667 49.333 84 58c22 4 65 6 129 6c65.333 1.33301 167 2 305 2c136.667 0 237.667 -0.666992 303 -2c58.667 0 101.667 -3.5 129 -10.5s54 -26.833 80 -59.5c31.333 -40.667 43 -89.667 35 -147c-9.33301 -62.667 -40.666 -102.334 -93.999 -119.001
c-28.667 -8 -50.667 -12.667 -66 -14c-24.667 -2.66699 -45 -4 -61 -4c-70.667 -2.66699 -113 -13.667 -127 -33c-15.333 -19.333 -23.666 -52.333 -24.999 -99c0 -13.333 0.666992 -31.666 2 -54.999v-127v-168c0 -96.667 -1.33301 -190 -4 -280
c-2.66699 -72.667 -26.667 -123.334 -72 -152.001c-24.667 -15.333 -57.667 -23.5 -99 -24.5s-71.666 3.83301 -90.999 14.5c-40.667 19.333 -66.667 54.666 -78 105.999c-12 56 -18 108.667 -18 158c-2.66699 35.333 -2.66699 74.333 0 117v129v121z" />
    <glyph glyph-name="U" unicode="U" horiz-adv-x="1122" 
d="M707 336l-0.000976562 94c-2.66699 106.667 -4.33398 199 -5.00098 277c-1.33301 32.667 -2 79.667 -2 141c0 109.333 2.33301 177 7 203c8 62.667 22.833 106.334 44.5 131.001s59.167 39 112.5 43c56 5.33301 99 -7 129 -37
c40.667 -36.667 62.667 -115.334 66 -236.001c1.33301 -28.667 2 -76.334 2 -143.001v-160c-1.33301 -36.667 -2 -87 -2 -151c0 -188.667 -5 -314.334 -15 -377.001c-18 -118.667 -64.333 -181 -139 -187c-31.333 -1.33301 -64.666 7 -99.999 25l-37 18
c-10.667 5.33301 -23.667 8.33301 -39 9c-8 0 -18.333 -3 -31 -9c-50.667 -18 -95 -29.333 -133 -34c-26 -5.33301 -60.667 -6.66602 -104 -3.99902c-190 9.33301 -311 96 -363 260c-27.333 87.333 -42.333 199.333 -45 336c-1.33301 108 1.33398 214.333 8.00098 319
c9.33301 147.333 22.333 241 39 281c26 61.333 81.333 92 166 92c70.667 2.66699 118.667 -21.333 144 -72c15.333 -27.333 24 -78.666 26 -153.999c0 -12 -0.333008 -33.667 -1 -65s-1 -55.333 -1 -72c0 -8 -0.333008 -19.5 -1 -34.5s-1.66699 -26.5 -3 -34.5
c-1.33301 -15.333 -2 -33.333 -2 -54v-71c-1.33301 -18 -2 -45.333 -2 -82c0 -45.333 1.33301 -96.666 4 -153.999c8 -108 54.333 -162 139 -162c60.667 3.33301 106.667 24.666 138 63.999z" />
    <glyph glyph-name="V" unicode="V" horiz-adv-x="1044" 
d="M506 -63c-120 1.33301 -209.335 51.002 -268.002 149.002c-32.667 53.333 -63 120.333 -91 201c-32.667 95.333 -61.334 199.666 -86.001 312.999c-24.667 120 -45 246.333 -61 379c-9.33301 75.333 -2.66602 134 20.001 176c26 49.333 71.333 74.666 136 75.999
c84.667 5.33301 141.334 -24.667 170.001 -90c10.667 -28.667 19.334 -63 26.001 -103l19 -116c1.33301 -12 5.33301 -34.667 12 -68c10.667 -65.333 25.667 -146.666 45 -243.999c20.667 -102.667 41 -176.334 61 -221.001c9.33301 -24.667 20.333 -37 33 -37
c18 0 33.667 18.667 47 56c26 68 50.667 175.667 74 323c2.66699 15.333 11.667 76.666 27 183.999c20.667 136.667 30.667 206.334 30 209.001c4 32.667 22.5 59 55.5 79s72.5 28.667 118.5 26c68 -4 114.5 -20.333 139.5 -49s35.167 -78 30.5 -148
c-1.33301 -46.667 -11.333 -123 -30 -229c-15.333 -108 -40.666 -222.667 -75.999 -344c-40.667 -157.333 -97.334 -292.666 -170.001 -405.999c-50.667 -78.667 -138 -117.334 -262 -116.001z" />
    <glyph glyph-name="W" unicode="W" horiz-adv-x="1550" 
d="M496 -41c-101.333 1.33301 -181.995 45.6631 -241.995 132.996c-38 53.333 -74.333 142.666 -109 267.999c-46.667 166.667 -84 393.334 -112 680.001c-8 76.667 5 134 39 172c31.333 34 83.166 47.667 155.499 41s118.166 -31.667 137.499 -75
c10.667 -23.333 16.667 -50.666 18 -81.999c1.33301 -15.333 6 -53 14 -113c1.33301 -4 2.66602 -12.5 3.99902 -25.5s3 -23.5 5 -31.5c6.66699 -60 16 -132.333 28 -217c6.66699 -45.333 13 -83.666 19 -114.999c2.66699 -34 14 -79 34 -135
c23.333 -65.333 50.666 -90.666 81.999 -75.999c23.333 13.333 37.666 43.333 42.999 90c5.33301 36.667 8.33301 86 9 148v73v84v84c-1.33301 18 -2.33301 41.333 -3 70c-1.33301 26 -2 67.667 -2 125c0 91.333 26 148 78 170c56 22 119 21.333 189 -2
c31.333 -10.667 52.5 -28.334 63.5 -53.001s18.5 -59 22.5 -103c4 -50.667 6 -115.667 6 -195v-90c-1.33301 -20.667 -2 -50 -2 -88v-73c0 -75.333 3.33301 -130.666 10 -165.999c8 -46.667 24.333 -72 49 -76c28.667 -5.33301 53.334 24 74.001 88
c8 32.667 13.333 57.334 16 74.001c1.33301 13.333 4 31 8 53c1.33301 15.333 5.66602 36.333 12.999 63l13 76l18 103l7 47c3.33301 22 6.33301 38.333 9 49c20.667 138 39.667 220 57 246c16.667 23.333 42.334 39 77.001 47s73.334 6 116.001 -6
c49.333 -15.333 81.5 -39.666 96.5 -72.999s19.5 -80.666 13.5 -141.999c-6.66699 -66.667 -20.334 -151.334 -41.001 -254.001c-13.333 -70.667 -38.333 -181.334 -75 -332.001c-42 -165.333 -86.667 -279.333 -134 -342c-72.667 -96.667 -175 -134.334 -307 -113.001
c-48 8 -90.333 27.833 -127 59.5s-63.334 67.167 -80.001 106.5h-10c-46 -117.333 -139.333 -174.666 -280 -171.999z" />
    <glyph glyph-name="X" unicode="X" horiz-adv-x="1030" 
d="M524 850c10.667 16.667 20.1641 33.834 28.4971 51.501s16 38 23 61s11.833 41 14.5 54s7.33398 34.5 14.001 64.5s10.667 49.333 12 58c12 54.667 28.667 95 50 121c26 31.333 69 46.333 129 45c118.667 -5.33301 173 -69.666 163 -192.999
c-9.33301 -121.333 -38.666 -218.333 -87.999 -291c-46.667 -70.667 -87.334 -117.667 -122.001 -141v-18c38 -16.667 72.667 -45.667 104 -87c13.333 -18 25.666 -36.333 36.999 -55c26 -49.333 46.333 -95 61 -137c24.667 -70.667 37 -138.334 37 -203.001
c0 -74 -24 -128 -72 -162c-23.333 -19.333 -58.833 -28.5 -106.5 -27.5s-83.167 15.833 -106.5 44.5c-32.667 39.333 -62.667 102.666 -90 189.999c-22 70.667 -39.667 122.667 -53 156c-8 20.667 -19.667 43.334 -35 68.001c-23.333 -39.333 -43.666 -87.333 -60.999 -144
c-6.66699 -18 -15.667 -44.667 -27 -80c-27.333 -87.333 -57.333 -150.666 -90 -189.999c-23.333 -28.667 -58.833 -43.334 -106.5 -44.001s-83.167 8.33301 -106.5 27c-48 34 -72 88 -72 162c0 64 12.333 131.667 37 203c23.333 65.333 56.333 129.333 99 192
c27.333 39.333 62 68.333 104 87v18c-36.667 24.667 -77 71.667 -121 141c-50.667 74 -80.667 171 -90 291c-9.33301 122.667 45.334 187 164.001 193c60 1.33301 103.667 -13.667 131 -45c19.333 -26 35 -66.333 47 -121c1.33301 -8 5.5 -27.167 12.5 -57.5
s11.833 -52 14.5 -65s7.33398 -31 14.001 -54s14.167 -43.333 22.5 -61s17.833 -34.834 28.5 -51.501z" />
    <glyph glyph-name="Y" unicode="Y" horiz-adv-x="964" 
d="M311 489c-34 22 -75.002 72.0049 -123.002 150.005c-39.333 60 -70.666 116.667 -93.999 170c-48 113.333 -78 209.666 -90 288.999c-9.33301 64 -1 110.333 25 139c27.333 30 69.333 46.667 126 50s95 -4.33398 115 -23.001c34 -26 67.667 -93 101 -201l37 -119
l11 -31.5c4.66699 -13 7.66699 -21.5 9 -25.5c15.333 -45.333 29 -74.666 41 -87.999c8 -9.33301 17 -14.333 27 -15c15.333 0 29 17.333 41 52c12 31.333 24 71.333 36 120c5.33301 18 11.666 40.667 18.999 68c16.667 74 30.334 127.333 41.001 160
c8 27.333 17.167 47.833 27.5 61.5s27.166 24.5 50.499 32.5c22 10.667 56.833 14.334 104.5 11.001s84.5 -16 110.5 -38c28.667 -24.667 41.667 -62.667 39 -114c-1.33301 -34 -11.666 -83.333 -30.999 -148c-9.33301 -28.667 -30 -85.334 -62 -170.001
c-61.333 -147.333 -134.333 -258 -219 -332c-1.33301 -18 -2 -45 -2 -81v-84c0 -44 -1.33301 -92 -4 -144c-5.33301 -58.667 -19.666 -102.334 -42.999 -131.001s-64.333 -44.334 -123 -47.001c-78 -1.33301 -129.667 28 -155 88c-16.667 35.333 -23.667 96 -21 182
c1.33301 9.33301 2.33301 25.666 3 48.999s1 40.666 1 51.999c0 54 0.666992 93.333 2 118z" />
    <glyph glyph-name="Z" unicode="Z" horiz-adv-x="958" 
d="M547 319l110 -0.00195312c79.333 0 133.333 -22.333 162 -67c15.333 -24.667 20.833 -58.5 16.5 -101.5s-15.833 -74.167 -34.5 -93.5c-32.667 -34 -81.334 -52.333 -146.001 -55c-19.333 -1.33301 -46.666 -2 -81.999 -2h-260c-98 0 -167 9.66699 -207 29
c-56 26 -90 69.667 -102 131c-4 32.667 -4.66699 62.667 -2 90c5.33301 48 23 92.333 53 133c26 32.667 73.333 84.667 142 156c15.333 16.667 31.666 33.334 48.999 50.001l57 56l45 45l123 133c44 45.333 87 94 129 146h-145h-88c-26 0 -43.333 0.666992 -52 2h-41
c-46.667 2.66699 -83.334 12.667 -110.001 30c-32.667 22 -49.667 57 -51 105c-5.33301 90 24 144 88 162c23.333 6.66699 64.333 11.334 123 14.001h71h64h213c86 0 143.333 -3.33301 172 -10c54.667 -13.333 89.334 -43.333 104.001 -90
c16.667 -54.667 18.667 -112.667 6 -174c-12 -69.333 -63 -157 -153 -263c-57.333 -66.667 -99.666 -113.667 -126.999 -141c-134 -148.667 -223.333 -243.667 -268 -285h141z" />
    <glyph glyph-name="bracketleft" unicode="[" horiz-adv-x="866" 
d="M473 432c1.33301 -1.33301 1.33008 -15.6689 -0.00292969 -43.002c-2.66699 -74 9.66602 -138.667 36.999 -194c23.333 -49.333 75.333 -70.666 156 -63.999c56 4 94 -8.33301 114 -37c24.667 -35.333 34.334 -90 29.001 -164c-4 -56 -36 -95.333 -96 -118
c-68 -27.333 -160.333 -28 -277 -2c-50.667 9.33301 -102.167 30.333 -154.5 63s-93.5 77.667 -123.5 135c-34 62.667 -51.333 143.334 -52 242.001v778c0 186 63.667 314.333 191 385c80.667 45.333 174.334 69.333 281.001 72
c101.333 1.33301 169.333 -21.334 204 -68.001c24.667 -32.667 33 -79.667 25 -141c-8 -75.333 -32.667 -117 -74 -125c-23.333 -4 -45.666 -5.33301 -66.999 -4c-82 2.66699 -134 -18.666 -156 -63.999c-27.333 -56 -39.666 -120 -36.999 -192
c1.33301 -28.667 1.33301 -43.667 0 -45v-19c-1.33301 -6.66699 -2 -27 -2 -61c0 -48 0.666992 -89.667 2 -125v-209z" />
    <glyph glyph-name="backslash" unicode="\" horiz-adv-x="854" 
d="M418 1044c23.333 -52 48.668 -112.667 76.001 -182l86 -211l180 -471c20.667 -53.333 26 -99.666 16 -138.999c-12 -50.667 -48 -84 -108 -100c-76.667 -26 -136.334 -14.667 -179.001 34c-22 23.333 -51.333 83 -88 179l-102 260l-104 258l-39 96
c-12 27.333 -24.333 57.333 -37 90c-2.66699 8 -7.16699 19.167 -13.5 33.5s-10.833 25.166 -13.5 32.499c-8 16.667 -12 25.334 -12 26.001c-38 86 -1.33301 151 110 195c101.333 39.333 177.333 5.66602 228 -101.001z" />
    <glyph glyph-name="bracketright" unicode="]" horiz-adv-x="774" 
d="M358 432c0 104 0.666016 173.671 1.99902 209.004v125v61c-1.33301 6.66699 -2 13 -2 19c-1.33301 1.33301 -1.33301 16.333 0 45c2.66699 72.667 -9.33301 136.667 -36 192c-22 45.333 -74 66.666 -156 63.999c-57.333 -2.66699 -95.666 9.66602 -114.999 36.999
c-23.333 34 -32 89.333 -26 166c4 54.667 36 94 96 118c64 24.667 156 25.334 276 2.00098c126.667 -28.667 219 -95.334 277 -200.001c34 -62.667 51 -143.334 51 -242.001v-778c0 -186 -63.333 -314.333 -190 -385c-80.667 -45.333 -174.334 -69.333 -281.001 -72
c-101.333 -1.33301 -169.666 21.334 -204.999 68.001c-24.667 32.667 -32.667 79.667 -24 141c8 75.333 33 117 75 125c20.667 4 42.667 5.33301 66 4c80.667 -6.66699 132.667 14.666 156 63.999c27.333 56 39.333 120.667 36 194
c-1.33301 27.333 -1.33301 41.666 0 42.999z" />
    <glyph glyph-name="asciicircum" unicode="^" horiz-adv-x="698" 
d="M147 1579c66.667 94 135 142.999 205 146.999c74 4 147 -45 219 -147c44 -57.333 69.333 -118 76 -182c2.66699 -19.333 -4.66602 -32.333 -21.999 -39c-16.667 -9.33301 -47.834 -14.166 -93.501 -14.499s-70.5 9.16699 -74.5 28.5c-2.66699 15.333 -13.667 44 -33 86
c-23.333 45.333 -44.666 71.333 -63.999 78c-19.333 -6.66699 -40.333 -32.667 -63 -78c-20.667 -38 -32.334 -66.667 -35.001 -86c-4 -19.333 -28.5 -29 -73.5 -29s-75.833 5 -92.5 15c-19.333 6.66699 -27.333 19.667 -24 39c6 64 31 124.667 75 182z" />
    <glyph glyph-name="underscore" unicode="_" horiz-adv-x="972" 
d="M918 96c-1.33301 -49.333 -16.501 -85.167 -45.501 -107.5s-65.833 -32.166 -110.5 -29.499c-23.333 0 -44 0.666992 -62 2c-52 1.33301 -118 3.33301 -198 6c-48 0 -82.333 0.666992 -103 2h-82h-47h-53c-49.333 -2.66699 -88.333 13.666 -117 48.999
c-15.333 18 -23.833 46.167 -25.5 84.5s4.16602 67.5 17.499 87.5c27.333 39.333 65 59.333 113 60h225h186h57.5c25 0 42.5 -0.333008 52.5 -1s23.667 -1.33398 41 -2.00098s30 -1.66699 38 -3s16.833 -3.5 26.5 -6.5s17.834 -6.5 24.501 -10.5
c36.667 -26 56.334 -57.333 59.001 -94c2 -11.333 3 -23.666 3 -36.999z" />
    <glyph glyph-name="grave" unicode="`" horiz-adv-x="1015" 
d="M444 1485c38 -42 71.6689 -84.334 101.002 -127.001c44 -68 70.667 -124.667 80 -170c9.33301 -57.333 -12 -89.333 -64 -96c-44 -6.66699 -108.833 32.833 -194.5 118.5s-127.834 158.834 -126.501 219.501c1.33301 45.333 28.666 74 81.999 86
c51.333 9.33301 92 -1 122 -31z" />
    <glyph glyph-name="a" unicode="a" horiz-adv-x="1015" 
d="M614 903c30 83.333 87.333 128.336 172 135.003c56 1.33301 97 -15 123 -49c20.667 -28.667 35.667 -74.334 45 -137.001c5.33301 -31.333 9.66602 -80.333 12.999 -147c2.66699 -86 3.33398 -153 2.00098 -201c-2.66699 -131.333 -11 -227 -25 -287
c-22 -96.667 -65 -145.667 -129 -147c-32.667 0 -64 6 -94 18c-16.667 4 -29 8.66699 -37 14c-12 4 -24.333 6.33301 -37 7c-8 0 -18.333 -3 -31 -9c-40.667 -18 -85 -31 -133 -39c-28.667 -5.33301 -60 -7.33301 -94 -6c-116 5.33301 -205.333 49.666 -268 132.999
c-56 74 -82.667 172.333 -80 295c2.66699 109.333 38 203.666 106 282.999c70.667 79.333 159 127 265 143c64 8 131.333 6 202 -6zM631 643.003c-49.333 16.667 -94.333 22 -135 16c-44 -8 -79.333 -29 -106 -63s-38 -76.333 -34 -127
c2.66699 -42 16.334 -76.667 41.001 -104c27.333 -30 59.666 -45.333 96.999 -46c48 0 95 15.333 141 46c-1.33301 12 -2 33 -2 63v74v76c-1.33301 16 -2 37.667 -2 65z" />
    <glyph glyph-name="b" unicode="b" horiz-adv-x="1003" 
d="M393 872c61.333 20.667 131.671 29.6719 211.004 27.0049c113.333 -4 202.166 -41.167 266.499 -111.5s97.833 -162.833 100.5 -277.5c2.66699 -128.667 -26.666 -234.334 -87.999 -317.001c-66.667 -92.667 -161.667 -142 -285 -148
c-57.333 -1.33301 -109.333 7 -156 25c-12 4 -27.667 10.667 -47 20c-10.667 5.33301 -19.334 8 -26.001 8c-12 0 -23.667 -2 -35 -6c-32.667 -13.333 -59.334 -22 -80.001 -26c-13.333 -4 -30.333 -6.33301 -51 -7c-65.333 1.33301 -107.666 50.666 -126.999 147.999
c-12 54.667 -19.667 150.334 -23 287.001c-2.66699 23.333 -2.66699 54 0 92c0 54.667 0.666992 97.667 2 129c0 75.333 2.66699 168.666 8 279.999c1.33301 44 3.66602 81 6.99902 111c4 58.667 10.667 105 20 139c15.333 49.333 42 83 80 101
c19.333 9.33301 47.666 12.666 84.999 9.99902s65.666 -11.667 84.999 -27c35.333 -28.667 53 -75.667 53 -141c-1.33301 -20.667 -2 -51.334 -2 -92.001c0 -58.667 0.666992 -102.334 2 -131.001v-93zM387.005 623.005c-1.33301 -12 -2.00098 -33.9961 -2.00098 -65.9961
v-76c0 -34 0.666992 -58.333 2 -73v-64c38 -24.667 78.333 -36.334 121 -35.001c44 0 79.833 13.667 107.5 41s43.167 63.666 46.5 108.999c2.66699 53.333 -8.66602 97.666 -33.999 132.999s-61.333 54.333 -108 57c-54.667 7.33301 -99 -1.33398 -133 -26.001z" />
    <glyph glyph-name="c" unicode="c" horiz-adv-x="722" 
d="M25 434c0 121.333 30.6699 227.332 92.0029 317.999c72.667 106.667 184.667 170 336 190c60 6.66699 111 2 153 -14c45.333 -20.667 70.666 -53 75.999 -97c2.66699 -40.667 -2.83301 -73 -16.5 -97s-38.834 -43.333 -75.501 -58c-18 -8 -42 -14.333 -72 -19
c-69.333 -9.33301 -121.333 -35 -156 -77c-24.667 -31.333 -37.5 -75.833 -38.5 -133.5s11.833 -102.167 38.5 -133.5c48 -53.333 115 -78.333 201 -75c66.667 0 109 -19.333 127 -58c19.333 -44 17.333 -89 -6 -135c-24.667 -49.333 -75.334 -78.666 -152.001 -87.999
c-39.333 -6.66699 -77.333 -6.66699 -114 0c-142 15.333 -246 72.666 -312 171.999c-54 80.667 -81 182.334 -81 305.001z" />
    <glyph glyph-name="d" unicode="d" horiz-adv-x="1015" 
d="M623 770c0 49.333 0.667969 88.333 2.00098 117c0 57.333 -0.666992 100.333 -2 129c0 74 8.66699 128 26 162c24.667 45.333 67 70.333 127 75c56 1.33301 98.333 -15 127 -49c20.667 -28.667 35.667 -74.334 45 -137.001c0 -2.66699 0.333008 -6.33398 1 -11.001
s1.33398 -11.167 2.00098 -19.5s1 -15.833 1 -22.5v-92v-119c-1.33301 -28.667 -2 -71.667 -2 -129c0 -75.333 0.666992 -130 2 -164c1.33301 -75.333 0 -164.666 -4 -267.999c-4 -112 -23.667 -192.667 -59 -242c-20.667 -27.333 -49.334 -41.666 -86.001 -42.999
c-31.333 0 -62 6 -92 18c-16.667 4 -29 9 -37 15c-12 4 -24.333 6 -37 6c-8 0 -17.667 -2.66699 -29 -8c-38 -15.333 -77.667 -26.333 -119 -33c-26 -5.33301 -56.667 -7.33301 -92 -6c-118.667 5.33301 -211.5 45.166 -278.5 119.499s-98.833 171.5 -95.5 291.5
c2.66699 114.667 36 212.334 100 293.001c72.667 90 169 138 289 144c79.333 2.66699 149.666 -6.33301 210.999 -27zM618.001 520c-34 24.667 -78.333 33.667 -133 27c-46.667 -2.66699 -82.5 -21.834 -107.5 -57.501s-36.167 -80.167 -33.5 -133.5
c2.66699 -45.333 18 -81.5 46 -108.5s64.667 -40.5 110 -40.5c42 -1.33301 81.333 10.334 118 35.001c0 26 1 47 3 63v74v76c-0.666992 31.333 -1.66699 53 -3 65z" />
    <glyph glyph-name="e" unicode="e" horiz-adv-x="858" 
d="M41 514c0 110.667 19.665 206.332 58.998 286.999c70.667 139.333 190.334 215.666 359.001 228.999c105.333 8 196 -20.667 272 -86c72.667 -64 110.334 -144.667 113.001 -242c2.66699 -113.333 -30.333 -187.666 -99 -222.999c-42 -22 -96.333 -33 -163 -33
c-19.333 -1.33301 -49.333 -0.333008 -90 3c-9.33301 0 -24 0.333008 -44 1s-35 1.66699 -45 3c-30 2.66699 -50.333 -0.333008 -61 -9c-8 -8 -10.667 -24.333 -8 -49c2.66699 -31.333 17 -56.666 43 -75.999c24.667 -20.667 55.334 -30.667 92.001 -30
c19.333 -1.33301 46 0 80 4c46.667 4 79.167 -2.16699 97.5 -18.5s24.833 -50.5 19.5 -102.5c-2.66699 -38 -23.167 -69.333 -61.5 -94s-95.833 -37 -172.5 -37c-102.667 0 -189.334 35.333 -260.001 106c-87.333 84.667 -131 207 -131 367zM347.998 685.998
c1.33301 -13.333 19 -21.335 53 -24.002c12 -1.33301 24.333 -1.33301 37 0h29c19.333 -1.33301 43.333 -0.666016 72 2.00098c27.333 4 39.333 23.667 36 59c-2.66699 28.667 -20.334 51.334 -53.001 68.001c-18 6.66699 -39 10 -63 10c-34 0 -61.667 -12 -83 -36
s-30.666 -50.333 -27.999 -79z" />
    <glyph glyph-name="f" unicode="f" horiz-adv-x="790" 
d="M594 868l79.9971 0.00292969c56 0 94 -17 114 -51c10.667 -18 14.834 -43.333 12.501 -76s-11.166 -55.667 -26.499 -69c-30 -27.333 -69.667 -42.333 -119 -45c-15.333 -1.33301 -36.333 -2 -63 -2h-66c0 -79.333 0.666992 -137.333 2 -174
c1.33301 -96.667 -1.33398 -178 -8.00098 -244c-8 -79.333 -34.667 -130 -80 -152c-23.333 -16.667 -55.666 -21.5 -96.999 -14.5s-70.333 26.167 -87 57.5c-31.333 60 -45.666 146 -42.999 258c0 56 -0.666992 94.333 -2 115c-1.33301 15.333 -2 39.333 -2 72
c0 35.333 -0.666992 62.666 -2 81.999c-58.667 0 -99.667 5.33301 -123 16c-40.667 19.333 -61 53.333 -61 102c0 57.333 19.667 95.666 59 114.999c22 10.667 65 14.667 129 12c2.66699 76.667 6 132 10 166c10.667 109.333 38.667 191.333 84 246
c49.333 61.333 130 92 242 92c78 0 138.667 -7.33301 182 -22c69.333 -24.667 105 -71.334 107 -140.001c1.33301 -56 -9.66699 -97.167 -33 -123.5s-62.333 -42.5 -117 -48.5c-5.33301 0 -13.5 -1 -24.5 -3s-19.833 -3.66699 -26.5 -5
c-34 -5.33301 -59.333 -20.333 -76 -45c-8 -12 -14 -25.667 -18 -41c-4 -16.667 -7.66699 -42.667 -11 -78h64z" />
    <glyph glyph-name="g" unicode="g" horiz-adv-x="1009" 
d="M41 582c18 114.667 69.6729 204.002 155.006 268.002s192.666 96 321.999 96c34 0 69.667 -3.33301 107 -10c28.667 64 52.334 110.333 71.001 139c35.333 52 101 78 197 78c45.333 0 78.666 -2.66699 99.999 -8c42 -10.667 65.333 -32.667 70 -66
c1.33301 -9.33301 2 -26.333 2 -51c0 -58.667 -26 -95.334 -78 -110.001c-24.667 -6.66699 -46.334 -10.334 -65.001 -11.001c-40.667 0 -67.334 -9.33301 -80.001 -28c-6.66699 -9.33301 -13 -23.666 -19 -42.999c4 -4 7.66699 -7 11 -9
c5.33301 -5.33301 8.66602 -9.33301 9.99902 -12c46.667 -45.333 80 -98 100 -158c22 -66.667 30.333 -128.667 25 -186c-9.33301 -114.667 -51.666 -210.334 -126.999 -287.001c-86 -86 -197.333 -129.667 -334 -131h-35c-15.333 0 -26.333 0.666992 -33 2
c-45.333 -80.667 -74 -129.667 -86 -147c91.333 42 185 59 281 51c98 -8 173.667 -49 227 -123c46.667 -64 65.334 -143 56.001 -237c-10.667 -105.333 -53.334 -189.833 -128.001 -253.5s-169.334 -97.5 -284.001 -101.5c-78 -2.66699 -148.333 7.66602 -211 30.999
c-79.333 28.667 -136 67.667 -170 117c-35.333 50.667 -44.333 99.667 -27 147c16.667 52 51.667 78 105 78c5.33301 0 10.666 -0.333008 15.999 -1s11.166 -2.66699 17.499 -6s11.166 -5.66602 14.499 -6.99902s8 -4.83301 14 -10.5s10.5 -9.5 13.5 -11.5
s8.16699 -6.66699 15.5 -14l13 -13c46.667 -44 103.334 -66 170.001 -66c40.667 -1.33301 73.667 10 99 34s38.666 53.667 39.999 89c1.33301 40.667 -10.167 71.667 -34.5 93s-59.166 33.333 -104.499 36c-38 1.33301 -92 -8.33398 -162 -29.001
c-60 -16.667 -111.667 -9 -155 23c-52 36.667 -74 81 -66 133c10.667 76.667 52.334 166 125.001 268c-24.667 18 -44.334 34.333 -59.001 49c-104 98.667 -143.667 231.334 -119 398.001zM322.006 508.002c0 -60 18.332 -108.498 54.999 -145.498
s80.334 -55.5 131.001 -55.5c50.667 1.33301 92.334 17.666 125.001 48.999s49 76.666 49 135.999c1.33301 58.667 -14.667 106 -48 142s-77.333 55.333 -132 58s-98.334 -12 -131.001 -44s-49 -78.667 -49 -140z" />
    <glyph glyph-name="h" unicode="h" horiz-adv-x="964" 
d="M387 817c52 13.333 103.172 21.8359 153.505 25.5029s105 -3.33301 164 -21s106.167 -48.5 141.5 -92.5c57.333 -74 86.666 -166 87.999 -276c0 -19.333 0.666992 -36.666 2 -51.999c0 -32.667 -1.33301 -87 -4 -163c-2.66699 -58.667 -10.334 -112 -23.001 -160
c-15.333 -56 -41.333 -94.333 -78 -115c-19.333 -15.333 -50 -19.833 -92 -13.5s-71.333 25.833 -88 58.5c-19.333 35.333 -28.666 86.666 -27.999 153.999v53c0 15.333 -0.333008 38.666 -1 69.999s-1 54.333 -1 69c-1.33301 15.333 -2.33301 33.333 -3 54
c-2.66699 108 -40.667 169.333 -114 184c-34 6.66699 -75 -3.66602 -123 -30.999c-2.66699 -57.333 -4 -96.333 -4 -117v-102v-104c0 -108 -9.66699 -177.667 -29 -209c-24.667 -40.667 -59.334 -63.334 -104.001 -68.001c-24.667 -2.66699 -40.334 -4 -47.001 -4
c-62.667 1.33301 -105 50.333 -127 147c-12 54.667 -19.667 150.334 -23 287.001c-1.33301 23.333 -1.33301 54 0 92c0 54.667 0.666992 97.667 2 129c0 75.333 2.66699 169 8 281c2.66699 44 4.66699 81 6 111c4 58.667 11 105 21 139c15.333 49.333 42 82.666 80 99.999
c19.333 9.33301 47.666 12.666 84.999 9.99902s65.666 -11.334 84.999 -26.001c35.333 -28.667 53 -76 53 -142c-1.33301 -20.667 -2 -51.334 -2 -92.001c0 -53.333 0.666992 -88.666 2 -105.999v-70z" />
    <glyph glyph-name="i" unicode="i" horiz-adv-x="462" 
d="M70 1198c1.33301 80.667 32.001 135.333 92.001 164c56 24.667 112 20 168 -14c60 -38 90.667 -94.667 92 -170c1.33301 -66.667 -22 -115.334 -70 -146.001c-34 -23.333 -69.333 -35 -106 -35c-40.667 0 -76.334 10.333 -107.001 31
c-47.333 32.667 -70.333 89.334 -69 170.001zM244.001 902.999c57.333 -1.33301 98.667 -20.8311 124 -58.498s36.333 -85.834 33 -144.501c-4 -110.667 -6 -182.334 -6 -215.001c-1.33301 -26 -2 -62 -2 -108c-1.33301 -23.333 -2 -48 -2 -74v-72
c0 -62.667 -18.333 -111.667 -55 -147c-22 -19.333 -54.5 -30.333 -97.5 -33s-76.167 5 -99.5 23c-46.667 34 -69.667 81.667 -69 143v174c0 82 1.33301 188.667 4 320c1.33301 83.333 25 140 71 170c25.333 14.667 58.333 22 99 22z" />
    <glyph glyph-name="j" unicode="j" horiz-adv-x="524" 
d="M111 -449c-74 -5.33301 -140.997 11.9971 -200.997 51.9971c-50.667 35.333 -76.667 81.666 -78 138.999c-5.33301 96.667 44.667 152.667 150 168c10.667 1.33301 33.667 0 69 -4c23.333 -2.66699 39.666 4 48.999 20c15.333 23.333 24.333 75.333 27 156
c1.33301 50.667 0.666016 128.334 -2.00098 233.001c0 22 -0.666992 45.333 -2 70s-3 47.834 -5 69.501s-3 36.834 -3 45.501c-6.66699 112 7 190.333 41 235c32.667 42 85.667 59 159 51c75.333 -6.66699 122 -81.667 140 -225c6.66699 -53.333 10 -122.333 10 -207v-94
v-72c2.66699 -191.333 -12.333 -334.666 -45 -429.999c-20.667 -64 -52 -112.333 -94 -145c-54.667 -41.333 -126.334 -62 -215.001 -62zM276.003 925.997c-60 -5.33301 -109.002 6.99902 -147.002 36.999c-27.333 20.667 -45 51.334 -53 92.001
c-5.33301 20.667 -8 42.334 -8 65.001c0 49.333 12.667 89.666 38 120.999c31.333 35.333 80 56 146 62c105.333 8 168 -31 188 -117c10.667 -46.667 9.33398 -94 -3.99902 -142c-23.333 -70.667 -76.666 -110 -159.999 -118z" />
    <glyph glyph-name="k" unicode="k" horiz-adv-x="946" 
d="M676 473c36.667 -18 65.667 -38.501 87 -61.501s42.666 -54.5 63.999 -94.5c49.333 -98 74 -174.333 74 -229c0 -91.333 -54 -137.666 -162 -138.999c-60 -1.33301 -105 22.334 -135 71.001c-15.333 24.667 -33.666 59.667 -54.999 105l-53 106
c-16.667 35.333 -32.5 59.333 -47.5 72s-36.167 15.334 -63.5 8.00098c0 -108 -4.66699 -184.333 -14 -229c-13.333 -53.333 -36.666 -89 -69.999 -107c-23.333 -12 -52 -18 -86 -18c-70.667 6.66699 -117.667 47 -141 121c-12 44 -18.333 93.667 -19 149
c0 35.333 -1.33301 90 -4 164c-1.33301 23.333 -1.33301 54 0 92c0 54.667 0.666992 97.667 2 129c0 75.333 2.66699 169 8 281c2.66699 44 5 81 7 111c4 58.667 10.667 105 20 139c15.333 49.333 42 82.666 80 99.999c18 9.33301 45.667 12.666 83 9.99902
s65.666 -11.334 84.999 -26.001c35.333 -28.667 53 -76 53 -142c-1.33301 -20.667 -2 -51.334 -2 -92.001c0 -32.667 0.666992 -62.667 2 -90c0 -56 0.666992 -98.333 2 -127c0 -57.333 0.666992 -99 2 -125s2 -53.333 2 -82c40.667 1.33301 79.667 37 117 107
c24.667 46.667 41.667 81.334 51 104.001c2.66699 5.33301 7.16699 16.333 13.5 33s10.5 27.334 12.5 32.001l11 24.5c5.33301 11.667 10.5 20.167 15.5 25.5l17.5 18.5c6.66699 7 14 13.167 22 18.5c23.333 18 61.333 23.833 114 17.5s85.667 -26.5 99 -60.5
c22 -52 5 -132 -51 -240c-30 -54.667 -64 -99.667 -102 -135c-23.333 -20.667 -36.333 -31.667 -39 -33v-8z" />
    <glyph glyph-name="l" unicode="l" horiz-adv-x="704" 
d="M416 -82c-94 0 -167 18.332 -219 54.999c-48 32.667 -81.667 79.334 -101 140.001c-23.333 64 -37.666 180.667 -42.999 350c-4 120 -2 238.667 6 356c4 108 13 192.667 27 254c24.667 110.667 69 169.334 133 176.001c78 8 130 -15.667 156 -71
c19.333 -40.667 30.333 -112.334 33 -215.001c0 -20.667 -1.66699 -87 -5 -199c-2.66699 -116 -3.33398 -202 -2.00098 -258c0 -87.333 8.33301 -143.333 25 -168c24.667 -32.667 69 -54 133 -64c65.333 -9.33301 104.333 -20 117 -32c18 -18 27.667 -57.667 29 -119
c2.66699 -65.333 -16 -114 -56 -146c-47.333 -39.333 -125 -59 -233 -59z" />
    <glyph glyph-name="m" unicode="m" horiz-adv-x="1458" 
d="M393 557c0 -39.333 0.674805 -71.9912 2.00781 -97.9912v-121c0 -108 -2 -175.667 -6 -203c-8 -53.333 -22.333 -93.666 -43 -120.999s-55.334 -42.333 -104.001 -45c-56 -5.33301 -97 9 -123 43c-24.667 28.667 -41 71 -49 127c-10.667 50.667 -15 154 -13 310
c0 76.667 3 139.334 9 188.001c8 68 22.833 120.167 44.5 156.5s57.167 55.833 106.5 58.5c26 1.33301 54.667 -4 86 -16c9.33301 -5.33301 19 -10.333 29 -15c9.33301 -5.33301 20.333 -8 33 -8c5.33301 0 16 4 32 12c27.333 10.667 47.333 17.667 60 21
c104 32.667 202.333 27 295 -17c2.66699 -1.33301 17.667 -10 45 -26c9.33301 -8 19.333 -8 30 0c70.667 42 145.334 63 224.001 63c157.333 -4 261.666 -57 312.999 -159c24.667 -46.667 41 -118.334 49 -215.001c5.33301 -72.667 4.66602 -157.334 -2.00098 -254.001
c-8 -96.667 -17.667 -158.334 -29 -185.001c-22 -56 -62.667 -88.667 -122 -98c-57.333 -8 -100.5 2.66699 -129.5 32s-45.5 69 -49.5 119c-6.66699 83.333 -9.33398 153.666 -8.00098 210.999c1.33301 22 2 50 2 84c0 10.667 -1.33301 38 -4 82
c-1.33301 5.33301 -2.33301 13.166 -3 23.499s-1 18.166 -1 23.499c-2.66699 32.667 -14.334 56 -35.001 70c-24.667 13.333 -57.334 10.666 -98.001 -8.00098c-12 -6.66699 -24.333 -16.334 -37 -29.001c15.333 -126.667 18.666 -252.334 9.99902 -377.001
c-8 -96.667 -17.333 -158 -28 -184c-23.333 -57.333 -64.333 -89.333 -123 -96c-57.333 -6.66699 -101 5 -131 35c-28.667 28.667 -44.334 66.667 -47.001 114c-6.66699 83.333 -9.66699 153.666 -9 210.999c1.33301 22 2 58.333 2 109c0 28.667 -1.33301 64.667 -4 108
c-1.33301 5.33301 -2.33301 13.166 -3 23.499s-1 18.166 -1 23.499c-2.66699 32.667 -14.334 56 -35.001 70c-12 6.66699 -28.167 8.66699 -48.5 6s-37.5 -8.66699 -51.5 -18c-10 -7.33301 -21.667 -17.666 -35 -30.999z" />
    <glyph glyph-name="n" unicode="n" horiz-adv-x="1058" 
d="M420 670c0 -44 0.668945 -81.6631 2.00195 -112.996v-147c0 -135.333 -2 -216.666 -6 -243.999c-8 -53.333 -22.333 -93.333 -43 -120s-55.667 -42 -105 -46c-53.333 -5.33301 -94.333 11.667 -123 51c-20.667 26 -37 71 -49 135
c-5.33301 31.333 -9.33301 85.333 -12 162c-2.66699 90 -4 161 -4 213c0 116 8.66699 207 26 273c23.333 84.667 68 127.667 134 129c27.333 1.33301 56 -3.66699 86 -15c4 -2.66699 14.667 -7.33398 32 -14.001c9.33301 -5.33301 20.333 -8 33 -8c4 0 14.333 3.33301 31 10
c38 16.667 79.667 29 125 37c26 6.66699 56.667 8.66699 92 6c148.667 -8 251.667 -68 309 -180c31.333 -65.333 50.666 -144.666 57.999 -237.999c5.33301 -69.333 3.66602 -156.666 -5.00098 -261.999c-8 -88.667 -18 -145.334 -30 -170.001
c-24.667 -50.667 -65.667 -79.334 -123 -86.001c-57.333 -8 -99.666 3.66699 -126.999 35c-27.333 30 -42.333 69 -45 117c-6.66699 75.333 -9.33398 136.666 -8.00098 183.999c2.66699 75.333 0.666992 147.666 -6 216.999c-8 87.333 -55.333 127.666 -142 120.999
c-44.667 -6.66699 -78 -22.334 -100 -47.001z" />
    <glyph glyph-name="o" unicode="o" horiz-adv-x="1019" 
d="M41 541c18 130 75.334 232.335 172.001 307.002c87.333 69.333 192.333 104 315 104c136.667 0 250.667 -49 342 -147c42 -44 72.667 -101.5 92 -172.5s27 -142.5 23 -214.5c-8 -126.667 -51 -233.334 -129 -320.001c-84.667 -94 -197.334 -143.667 -338.001 -149
c-148.667 -2.66699 -269.334 46.333 -362.001 147c-101.333 109.333 -139.666 257.666 -114.999 444.999zM315.001 459.002c0 -65.333 21.333 -119.333 64 -162c39.333 -40.667 85.666 -61 138.999 -61c52 0 96.5 18 133.5 54s56.167 86.667 57.5 152
c0 64 -19.333 117.333 -58 160c-35.333 39.333 -81.666 60.666 -138.999 63.999c-56 2.66699 -102.5 -14.166 -139.5 -50.499s-56.167 -88.5 -57.5 -156.5z" />
    <glyph glyph-name="p" unicode="p" horiz-adv-x="1009" 
d="M399 -193c0 -40.667 0.664062 -71.3311 1.99707 -91.998c2.66699 -69.333 -13.666 -117 -48.999 -143c-19.333 -19.333 -56.166 -28.333 -110.499 -27s-93.166 17.666 -116.499 48.999c-26 34 -41 78.667 -45 134c-8 128.667 -12.667 224.667 -14 288
c-1.33301 66.667 -5 163.667 -11 291c-5.33301 109.333 -8 220 -8 332c0 61.333 7.5 109.166 22.5 143.499s43.167 52.833 84.5 55.5c27.333 1.33301 58.666 -3.66699 93.999 -15c32.667 -13.333 57.334 -20 74.001 -20c4 0 14.667 3.33301 32 10
c48 18 94.667 31.667 140 41c30 5.33301 62 7.33301 96 6c121.333 -1.33301 216 -45 284 -131c64 -80.667 96.333 -182.334 97 -305.001c0 -113.333 -31.333 -209 -94 -287c-64 -80.667 -153 -123.667 -267 -129c-62.667 -5.33301 -133 2.33398 -211 23.001v-224z
M388.997 281.003c38 -23.333 82.3311 -31.666 132.998 -24.999c46.667 4 82.334 23.833 107.001 59.5s34.667 80.167 30 133.5c-4 45.333 -20 81.5 -48 108.5s-63.667 39.833 -107 38.5c-45.333 0 -85.666 -13 -120.999 -39v-59c0 -32.667 0.666992 -57.334 2 -74.001
c0 -34 0.666992 -59.333 2 -76c0 -32.667 0.666992 -55 2 -67z" />
    <glyph glyph-name="q" unicode="q" horiz-adv-x="1007" 
d="M590 66c-65.333 -16.667 -131.001 -21.666 -197.001 -14.999c-100 8 -178.333 40 -235 96c-87.333 79.333 -129.666 190 -126.999 332c2.66699 122.667 41.334 223 116.001 301c76.667 80.667 177.334 121 302.001 121c56 0 112.333 -9.66699 169 -29
c12 -4 30.667 -11.333 56 -22c16.667 -6.66699 27 -10 31 -10c23.333 0 47.666 5.33301 72.999 16c23.333 9.33301 54.666 12 93.999 8c39.333 -5.33301 64.666 -26.333 75.999 -63c4 -18 6 -38.667 6 -62v-75c0 -13.333 -1 -37.5 -3 -72.5s-3.66699 -62.833 -5 -83.5
c-1.33301 -38 -4.66602 -96.667 -9.99902 -176c-8 -128.667 -12.667 -225.667 -14 -291c-1.33301 -80.667 -8.33301 -177 -21 -289c-6.66699 -62.667 -19 -107 -37 -133c-27.333 -35.333 -68.333 -50.333 -123 -45c-76.667 5.33301 -125 36.666 -145 93.999
c-9.33301 23.333 -14 50.666 -14 81.999c0 40.667 0.666992 71.334 2 92.001c4 62 6 136.667 6 224zM607.999 315.001c0 6.66699 1 27.167 3 61.5s3.66699 61.833 5 82.5c0 32.667 0.666992 57 2 73c1.33301 15.333 2.33301 35.333 3 60
c-35.333 28.667 -75.333 43.667 -120 45s-81.334 -11 -110.001 -37c-28.667 -27.333 -45.667 -64.833 -51 -112.5s4.33398 -90.167 29.001 -127.5c34 -52 93.333 -73 178 -63c24 1.33301 44.333 7.33301 61 18z" />
    <glyph glyph-name="r" unicode="r" horiz-adv-x="765" 
d="M313 856c8 -12 14.1689 -17.665 18.502 -16.998s12.5 5.66699 24.5 15c61.333 57.333 140.666 81.333 237.999 72c96.667 -12 157.334 -59.333 182.001 -142c19.333 -56 10 -108.333 -28 -157c-15.333 -22 -36.333 -37.833 -63 -47.5s-58.334 -6.83398 -95.001 8.49902
c-4 2.66699 -10.5 6.66699 -19.5 12s-15.5 9.33301 -19.5 12c-19.333 13.333 -38.333 20.333 -57 21c-9.33301 0 -21 -2 -35 -6c-16.667 -5.33301 -30.334 -15.666 -41.001 -30.999c-23.333 -32.667 -35 -106.334 -35 -221.001c0 -61.333 -0.666992 -112 -2 -152
c0 -46.667 -3.33301 -89.667 -10 -129c-12 -57.333 -34.667 -92 -68 -104c-83.333 -30 -148 -15 -194 45c-20.667 30 -33.667 70.333 -39 121c-2.66699 30 -4 51.667 -4 65c0 28.667 -1 50 -3 64v325v41c-1.33301 9.33301 -2 25 -2 47v50c0 19.333 0.666992 32 2 38
c8 69.333 36 115.333 84 138c68.667 25.333 124 2.66602 166 -68.001z" />
    <glyph glyph-name="s" unicode="s" horiz-adv-x="823" 
d="M801 315c0 -106.667 -37.666 -191.328 -112.999 -253.995c-64 -54.667 -149.333 -81.667 -256 -81c-38 0 -74 2.66699 -108 8c-45.333 6.66699 -78.333 16 -99 28c-36.667 26 -56.334 57.667 -59.001 95c-5.33301 50.667 1.16699 84.5 19.5 101.5s49.5 23.167 93.5 18.5
c40.667 -4 73.334 -5.33301 98.001 -4c10.667 0 19.834 0.333008 27.501 1s14.834 2.5 21.501 5.5s11 5.16699 13 6.5s6.16699 4.66602 12.5 9.99902s10.166 8.66602 11.499 9.99902c12 12 16.667 28.333 14 49c0 22 -11.833 38.5 -35.5 49.5s-50.167 16.5 -79.5 16.5
c-61.333 -2.66699 -127.333 11 -198 41c-64 26 -104.333 72.333 -121 139c-12 27.333 -15.667 69 -11 125s19.334 103.667 44.001 143c48 75.333 125 122.666 231 141.999c79.333 12 153.666 10.667 222.999 -4c61.333 -13.333 106.666 -37.333 135.999 -72
c15.333 -16.667 22.166 -41 20.499 -73s-11.5 -56.333 -29.5 -73c-31.333 -27.333 -64.666 -36 -99.999 -26c-15.333 2.66699 -31 6.66699 -47 12c-44 13.333 -78 20.333 -102 21c-27.333 0 -50 -6.83301 -68 -20.5s-25.667 -33.5 -23 -59.5c4 -39.333 37 -63.333 99 -72
l84 -6c57.333 -4 109.666 -17 156.999 -39c56 -28.667 97 -70.334 123 -125.001c14 -28.667 21 -66.334 21 -113.001z" />
    <glyph glyph-name="t" unicode="t" horiz-adv-x="845" 
d="M547 483c0 -12 1.33203 -35.6689 3.99902 -71.002c0 -4 0.333008 -10.167 1 -18.5s1.66699 -14.5 3 -18.5c0 -23.333 6.66699 -45.333 20 -66c16.667 -24.667 42 -39.667 76 -45c6.66699 -1.33301 15.5 -3 26.5 -5s19.167 -3 24.5 -3c56 -6.66699 93.667 -19.667 113 -39
c20.667 -20.667 31 -59 31 -115c0 -65.333 -34.333 -111.666 -103 -138.999c-42 -16.667 -102 -24.667 -180 -24c-128.667 0 -218 45 -268 135c-27.333 48 -45.666 114 -54.999 198c-2.66699 22 -5.66699 57.667 -9 107c0 10.667 -0.333008 27.667 -1 51
s-1.66699 40.333 -3 51c-64 -2.66699 -107 1.66602 -129 12.999c-39.333 19.333 -59 57.333 -59 114c0 49.333 20.333 83.666 61 102.999c23.333 10.667 64.333 16 123 16c0 16.667 0.666992 27.667 2 33v18c0 6.66699 0.666992 12.334 2 17.001v24
c1.33301 20.667 2 58.334 2 113.001c-2.66699 102.667 11.666 181.667 42.999 237c16.667 28.667 45.834 46.5 87.501 53.5s74.167 4.16699 97.5 -8.5c45.333 -19.333 72 -64.333 80 -135c8 -64 10.667 -133.667 8 -209c-1.33301 -23.333 -2 -71.666 -2 -144.999h65
c58.667 0 101.667 -4 129 -12c48 -13.333 74.667 -45 80 -95c5.33301 -64 -13.667 -104.667 -57 -122c-20.667 -8 -44 -12.333 -70 -13h-80h-63z" />
    <glyph glyph-name="u" unicode="u" horiz-adv-x="1032" 
d="M637 283l-0.000976562 100.002c-1.33301 26 -2 66.333 -2 121c0 106.667 2 173.667 6 201c8 53.333 22.333 93.5 43 120.5s55.334 41.833 104.001 44.5c57.333 1.33301 100.666 -15 129.999 -49c24.667 -32.667 41.667 -78.334 51 -137.001
c6.66699 -38 9.33398 -77.667 8.00098 -119c-1.33301 -44 -3.33301 -102 -6 -174c0 -120 -7.66699 -210.667 -23 -272c-20.667 -86 -64.334 -129.667 -131.001 -131c-30 0 -58.667 6 -86 18c-13.333 5.33301 -23.666 10 -30.999 14c-10.667 4 -22 6.33301 -34 7
c-8 0 -18.333 -3 -31 -9c-39.333 -18 -81 -30.667 -125 -38c-28.667 -5.33301 -60 -7.66602 -94 -6.99902c-147.333 8 -249.666 68.333 -306.999 181c-31.333 60 -50.666 139.667 -57.999 239c-5.33301 68 -4 154.667 4 260c2.66699 78 13 139.667 31 185
c23.333 57.333 63.666 89.333 120.999 96c58.667 8 103 -3 133 -33c23.333 -23.333 39 -62.333 47 -117c5.33301 -69.333 7.33301 -139.666 6 -210.999c-1.33301 -22 -2 -58 -2 -108c0 -4 -0.333008 -16.333 -1 -37s-0.666992 -35.334 0 -44.001s2 -22.334 4 -41.001
s6.16699 -32.667 12.5 -42s14.166 -19.833 23.499 -31.5s22.333 -19.834 39 -24.501s35.667 -7 57 -7c46.667 0 83.667 15 111 45z" />
    <glyph glyph-name="v" unicode="v" horiz-adv-x="1007" 
d="M555 -10c-116 -15.333 -206.661 11.9971 -271.994 81.9971c-42 42 -83 113.667 -123 215c-58.667 158.667 -101 319.667 -127 483c-8 56 1.16699 102.5 27.5 139.5s68.833 54.167 127.5 51.5c76.667 -5.33301 124 -30.666 142 -75.999c9.33301 -22 14.666 -46 15.999 -72
c1.33301 -15.333 6 -44 14 -86c1.33301 -6.66699 5.66602 -23.667 12.999 -51c6.66699 -40.667 21 -100 43 -178c16.667 -69.333 35.667 -123.333 57 -162c10.667 -19.333 20.334 -29 29.001 -29c13.333 0 26.333 11.667 39 35c26 49.333 47 120.333 63 213
c19.333 101.333 32.333 180.666 39 237.999c1.33301 6.66699 2.66602 17.834 3.99902 33.501s2.66602 25.834 3.99902 30.501s3.5 11.834 6.5 21.501s6.83301 17.5 11.5 23.5s11 12 19 18c19.333 16.667 55.666 23.167 108.999 19.5s93.666 -16.5 120.999 -38.5
c24.667 -20.667 37.167 -55.5 37.5 -104.5s-4.83398 -94.833 -15.501 -137.5c-12 -80.667 -34 -170 -66 -268c-20.667 -62.667 -34 -102.334 -40 -119.001c-31.333 -83.333 -69.333 -149.166 -114 -197.499s-99.667 -76.5 -165 -84.5z" />
    <glyph glyph-name="w" unicode="w" horiz-adv-x="1400" 
d="M514 31c-117.333 -15.333 -207.332 12 -269.999 82c-40.667 44 -78.334 115.667 -113.001 215c-53.333 151.333 -88.666 312.333 -105.999 483c-6.66699 54.667 3.33301 99.667 30 135c30 38 73.667 56.333 131 55c75.333 -5.33301 122 -30.333 140 -75
c6.66699 -18 11.334 -42 14.001 -72c0 -23.333 3.33301 -52 10 -86c1.33301 -2.66699 2.66602 -8.16699 3.99902 -16.5s2.66602 -15.833 3.99902 -22.5l11 -65c12 -70.667 22.667 -124 32 -160c9.33301 -39.333 21.666 -75.666 36.999 -108.999
c13.333 -30 28 -45.333 44 -46s30.667 14.666 44 45.999c22 52 34.333 132.667 37 242c0 31.333 -1.33301 67.333 -4 108v86c0 61.333 19.667 104.666 59 129.999c22 13.333 53.667 20 95 20c62.667 0 105.667 -20.333 129 -61c19.333 -34 28.666 -85.333 27.999 -154v-121
c0 -98 11.667 -178.667 35 -242c8 -24.667 17.5 -41 28.5 -49s21.333 -8.16699 31 -0.5s18.5 22.167 26.5 43.5c18 46.667 35 110.334 51 191.001c2.66699 12 7.66699 36.667 15 74l9 57.5c3.33301 21.667 5 34.5 5 38.5c4 23.333 10.333 55.333 19 96
c9.33301 64 36.333 101 81 111c28.667 5.33301 64.5 1.5 107.5 -11.5s72.833 -33.833 89.5 -62.5c19.333 -31.333 25.333 -68.333 18 -111c-19.333 -146 -54.666 -296.667 -105.999 -452c-35.333 -102.667 -70 -173 -104 -211c-64 -72.667 -153.667 -101.334 -269 -86.001
c-56 6.66699 -101.667 30.334 -137 71.001c-26 28.667 -45.667 67 -59 115c-9.33301 -44 -28.666 -81.667 -57.999 -113c-36.667 -42 -83 -66.333 -139 -73z" />
    <glyph glyph-name="x" unicode="x" horiz-adv-x="884" 
d="M641 461c62.667 -30 111.664 -82.0059 146.997 -156.006c49.333 -98 74 -172.333 74 -223c0 -87.333 -53.333 -131.666 -160 -132.999c-57.333 -1.33301 -101 21.667 -131 69c-22 36.667 -39 70.334 -51 101.001c-4 6.66699 -12.667 25.667 -26 57l-8.5 16.5l-8.5 16.5
l-6 12c-13.333 26 -27.666 24.667 -42.999 -4c-18 -31.333 -34.333 -65.333 -49 -102c-1.33301 -4 -5.5 -14.667 -12.5 -32s-11.5 -28 -13.5 -32s-5.66699 -11.833 -11 -23.5s-10.5 -19.834 -15.5 -24.501l-17.5 -16.5c-6.66699 -6.33301 -14.667 -12.166 -24 -17.499
c-27.333 -19.333 -66.666 -26.166 -117.999 -20.499s-86 25.5 -104 59.5c-27.333 49.333 -14.333 126 39 230c38 72.667 73.667 126.334 107 161.001c18 20.667 33 34.334 45 41.001v9c-28.667 15.333 -56 39 -82 71c-20.667 24.667 -41 55.334 -61 92.001
c-45.333 90 -67.333 157 -66 201c2.66699 70.667 58 107 166 109c57.333 1.33301 101 -22 131 -70c12 -20.667 27.667 -54 47 -100l25 -56c2.66699 -8 9.33398 -23 20.001 -45c6.66699 -12 13 -18 19 -18c2.66699 1.33301 9.33398 10 20.001 26
c18 31.333 34.333 65.666 49 102.999c2.66699 5.33301 7.83398 17.833 15.501 37.5l14.5 37c2 5 6.33301 13.667 13 26s14.167 21.5 22.5 27.5s17.833 12.333 28.5 19c26 18 64.667 24.333 116 19s83.666 -24.666 96.999 -57.999c15.333 -35.333 11.666 -85 -11.001 -149
s-53 -118.667 -91 -164c-39.333 -46.667 -68 -76 -86 -88v-8z" />
    <glyph glyph-name="y" unicode="y" horiz-adv-x="974" 
d="M328 264c-5.33301 4 -12.9961 11 -22.9961 21c-2.66699 1.33301 -6.66699 4.66602 -12 9.99902s-9.33301 8.66602 -12 9.99902c-54.667 54.667 -108 145.667 -160 273c-48 113.333 -77.333 208 -88 284c-9.33301 62.667 -1.33301 108.334 24 137.001
c28.667 34 72.334 52 131.001 54c45.333 0 77.666 -9 96.999 -27c15.333 -13.333 31 -40 47 -80c12 -28.667 25.667 -67.667 41 -117c1.33301 -5.33301 3.66602 -15.166 6.99902 -29.499s6.33301 -25.5 9 -33.5c10.667 -40.667 23 -78.334 37 -113.001
c15.333 -42 31 -73.333 47 -94c8 -10.667 17 -16 27 -16c26 0 53.333 34.667 82 104c9.33301 26 26.333 93 51 201c2.66699 9.33301 5.66699 22.166 9 38.499s5.66602 28.833 6.99902 37.5c8 49.333 30.667 82.666 68 99.999c18 10.667 49.167 14.334 93.5 11.001
s79.166 -16 104.499 -38c45.333 -39.333 49 -121.666 11 -246.999c-42 -139.333 -91.333 -254 -148 -344c-32.667 -56 -72.334 -102 -119.001 -138c-1.33301 -9.33301 -2.33301 -23.166 -3 -41.499s-1 -32.5 -1 -42.5c-1.33301 -22 -3 -52 -5 -90s-3 -64.667 -3 -80
c-2.66699 -62.667 -8 -109.667 -16 -141c-13.333 -48 -38 -79.333 -74 -94c-18 -9.33301 -45.667 -12 -83 -8s-67 14 -89 30c-40.667 30 -61 78.667 -61 146c-2.66699 30 -2.66699 60.667 0 92c2.66699 68 4 143 4 225z" />
    <glyph glyph-name="z" unicode="z" horiz-adv-x="776" 
d="M512 260c76.667 0 129.333 -5.99805 158 -17.998c45.333 -20.667 64.333 -63 57 -127c-5.33301 -48 -32 -80.333 -80 -97c-31.333 -10.667 -74.333 -16 -129 -16h-268c-60 0 -104.333 5.33301 -133 16c-53.333 18 -83.333 52.333 -90 103c-4 22 -4.66699 43.667 -2 65
c5.33301 38 18 71 38 99c30 39.333 65 76.666 105 111.999c40.667 38 77.667 75 111 111c18 20.667 45.667 50 83 88c15.333 15.333 44.333 47.333 87 96h-146h-72c-57.333 0 -99.666 15.667 -126.999 47c-15.333 16.667 -23.5 43 -24.5 79s5.83301 63.667 20.5 83
c26 32.667 73.333 49 142 49c20.667 -1.33301 50 -2 88 -2h235c60 0 102.333 -2.66699 127 -8c39.333 -8 65.333 -30 78 -66c12 -39.333 14 -81.333 6 -126c-2.66699 -20.667 -15.667 -52.334 -39 -95.001c-28.667 -46.667 -85.334 -114.667 -170.001 -204
c-54.667 -60 -116 -123 -184 -189h129z" />
    <glyph glyph-name="braceleft" unicode="{" horiz-adv-x="989" 
d="M594 434l0.00195312 -104.003c0 -83.333 14.333 -145 43 -185c27.333 -39.333 77.666 -56.333 150.999 -51c56 4 94.333 -8.33301 115 -37c24.667 -35.333 34.334 -89.666 29.001 -162.999c-4 -56 -36 -95.667 -96 -119c-68 -27.333 -160.333 -28 -277 -2
c-50.667 9.33301 -102.167 30.333 -154.5 63s-93.5 77.667 -123.5 135c-34 62.667 -51.333 143.334 -52 242.001v256c0 16.667 -11.333 23.334 -34 20.001c-46.667 -4 -81.667 -1.66699 -105 7c-46.667 18 -69 58.667 -67 122v5c-1.33301 64 21 104.667 67 122
c23.333 8 58.333 10.333 105 7c23.333 -2.66699 34.666 4 33.999 20v256c0 186 63.667 314.333 191 385c80.667 45.333 174 69.333 280 72c101.333 1.33301 169.666 -21.334 204.999 -68.001c24.667 -32.667 33 -79.667 25 -141c-8 -75.333 -32.667 -117 -74 -125
c-23.333 -4 -46 -5.33301 -68 -4c-76.667 2.66699 -127 -13.666 -151 -48.999c-28.667 -39.333 -43 -101 -43 -185v-106c0 -96.667 -40.333 -158.667 -121 -186c80.667 -28 121 -90.333 121 -187z" />
    <glyph glyph-name="bar" unicode="|" horiz-adv-x="538" 
d="M98 1341c4 64 20.332 109.832 48.999 137.499s70.334 41.5 125.001 41.5c58.667 0 102.834 -12 132.501 -36s43.5 -59.333 41.5 -106v-37v-88v-118c-1.33301 -30 -2 -73.667 -2 -131v-121c-1.33301 -26 -2 -56.667 -2 -92v-170c-1.33301 -45.333 -2 -115 -2 -209v-211
v-172c0 -101.333 -4.66699 -167.666 -14 -198.999c-20.667 -60 -72.667 -92.667 -156 -98c-62.667 -5.33301 -108.334 12.334 -137.001 53.001c-24.667 32.667 -37 78.334 -37 137.001v144c-2.66699 161.333 -4 293.666 -4 396.999v168c1.33301 26 2 80 2 162v208
c0 147.333 1.33301 260.666 4 339.999z" />
    <glyph glyph-name="braceright" unicode="}" horiz-adv-x="989" 
d="M365 434c0 96.667 39.998 159.003 119.998 187.003c-80.667 27.333 -120.667 89.333 -120 186v106c0 83.333 -13.667 145 -41 185c-26 35.333 -77.333 51.666 -154 48.999c-57.333 -2.66699 -95.666 9.66602 -114.999 36.999c-23.333 34 -32 89.333 -26 166
c4 54.667 36 94 96 118c64 24.667 156 25.334 276 2.00098c126.667 -28.667 219 -95.334 277 -200.001c34 -62.667 51 -143.334 51 -242.001v-256c0 -16.667 11.667 -23.334 35 -20.001c46.667 4 81.334 1.66699 104.001 -7c46.667 -18 69.334 -58.667 68.001 -122v-5
c1.33301 -64 -21.334 -104.667 -68.001 -122c-23.333 -8 -58 -10.333 -104 -7c-23.333 2.66699 -35 -4 -35 -20v-256c0 -186 -63.333 -314.333 -190 -385c-80.667 -45.333 -174.334 -69.333 -281.001 -72c-101.333 -1.33301 -169.666 21.334 -204.999 68.001
c-24.667 32.667 -32.667 79.667 -24 141c8 75.333 33 117 75 125c20.667 4 42.667 5.33301 66 4c74 -5.33301 125.333 11.667 154 51c27.333 39.333 41 101 41 185v104z" />
    <glyph glyph-name="asciitilde" unicode="~" horiz-adv-x="1181" 
d="M408 1536c-2.66699 -2.66699 -5.00098 -5.33496 -7.00098 -8.00195c-6.66699 -8 -16.667 -23 -30 -45c-20.667 -24.667 -50 -39 -88 -43c-22 -2.66699 -46 1.66602 -72 12.999s-42.333 26 -49 44c-13.333 38 -11.333 75 6 111c5.33301 13.333 9.33301 20 12 20l10 19
c10.667 24.667 31.334 56.667 62.001 96c34 44 70 70 108 78c38 6.66699 75.667 6 113 -2c9.33301 -1.33301 16.333 -2.66602 21 -3.99902l22 -11c13.333 -6.66699 31.666 -14.667 54.999 -24c6.66699 -2.66699 18.334 -7.83398 35.001 -15.501l39 -17.5
c48 -22 73.333 -33.667 76 -35c6.66699 -2.66699 16.834 -7.33398 30.501 -14.001l30.5 -15c19.333 -9.33301 31 -14.333 35 -15s12.333 3 25 11c20.667 16.667 39 39.334 55 68.001c6.66699 10.667 10.667 16 12 16s4.33301 4.33301 9 13c6.66699 18 25.667 29.333 57 34
c18 2.66699 40.167 0 66.5 -8s45.166 -19 56.499 -33c22 -27.333 28.667 -60 20 -98c-15.333 -49.333 -42 -99.666 -80 -150.999c-45.333 -60 -93 -93 -143 -99c-53.333 -5.33301 -103.333 3 -150 25c-12 4 -20.667 7.33301 -26 10l-29 14
c-6.66699 2.66699 -17.5 7.83398 -32.5 15.501l-34.5 17.5c-18 8 -43.333 20.333 -76 37c-26 10.667 -44.333 19 -55 25c-18 8 -37.333 6.66699 -58 -4c-10.667 -8 -16.667 -13 -18 -15c-5.33301 -5.33301 -8 -8.66602 -8 -9.99902z" />
    <glyph glyph-name="exclamdown" unicode="&#xa1;" horiz-adv-x="577" 
d="M485 -90c-4 -64 -20.3311 -109.666 -48.998 -136.999s-70.334 -41 -125.001 -41c-58.667 0 -102.667 11.833 -132 35.5s-43.333 58.834 -42 105.501v31c0 27.333 0.666992 50.333 2 69c0 18 0.333008 50.167 1 96.5s1 81.166 1 104.499v107v69c0 28.667 0.666992 52 2 70
v106c0 102.667 5.66699 169.667 17 201c18 58.667 69 90.667 153 96c61.333 5.33301 108 -12.334 140 -53.001c23.333 -32.667 34.666 -78.334 33.999 -137.001c0 -44 1.66699 -87.667 5 -131v-64v-104c-2.66699 -104 -3.66699 -179 -3 -225
c0 -53.333 -1.33301 -119.666 -4 -198.999zM512.002 1114c-1.33301 -80.667 -37.668 -134.666 -109.001 -161.999c-62.667 -26 -126.667 -21 -192 15c-70.667 36.667 -107 92.667 -109 168c-1.33301 65.333 26 114.333 82 147c39.333 22 80.333 33 123 33
c49.333 0 91 -10.333 125 -31c54.667 -32.667 81.334 -89.334 80.001 -170.001z" />
    <glyph glyph-name="cent" unicode="&#xa2;" horiz-adv-x="921" 
d="M164 662c0 98 27.332 181.667 81.999 251c66.667 86 167 136.667 301 152c58.667 2.66699 103.667 -2 135 -14c39.333 -15.333 62 -40 68 -74c2.66699 -32.667 -2.16602 -58.667 -14.499 -78s-34.833 -34.333 -67.5 -45c-23.333 -8 -44.666 -13.333 -63.999 -16
c-65.333 -10.667 -111 -32 -137 -64c-22 -26 -33.667 -61.167 -35 -105.5s9.66699 -79.5 33 -105.5c42 -42 102 -61.667 180 -59c58.667 0 96.334 -15.667 113.001 -47c18 -35.333 16.667 -71 -4 -107c-23.333 -38 -69.333 -61 -138 -69
c-102.667 -12 -193.334 3.66699 -272.001 47c-84.667 46.667 -139.334 115.667 -164.001 207c-10.667 46.667 -16 89 -16 127zM484.999 1432c69.333 -1.33301 102.999 -37 100.999 -107v-33c-1.33301 -4 -2 -10 -2 -18v-14v-19v-37c0 -34 -11.667 -60 -35 -78
c-13.333 -10.667 -33.333 -16.667 -60 -18s-47.667 2.66699 -63 12c-28.667 18 -43.667 44 -45 78c-1.33301 4 -2 13.667 -2 29v41c-4 61.333 0.666992 101.666 14 120.999c15.333 24.667 37.333 38.334 66 41.001c6.66699 1.33301 15.334 2 26.001 2zM493.998 199
c69.333 -1.33301 102.667 -36.998 100 -106.998v-33c-1.33301 -4 -2 -10 -2 -18v-14v-19v-37c0 -34 -11.667 -59.667 -35 -77c-13.333 -10.667 -33.333 -16.834 -60 -18.501s-47.667 2.16602 -63 11.499c-28.667 18 -43.667 44 -45 78c-1.33301 4 -2 13.667 -2 29v41
c-4 61.333 0.666992 101.666 14 120.999c15.333 24.667 37.333 38.334 66 41.001c7.33301 1.33301 16.333 2 27 2z" />
    <glyph glyph-name="sterling" unicode="&#xa3;" horiz-adv-x="1200" 
d="M907 666c2.66699 -45.333 -9.33008 -79.332 -35.9971 -101.999s-61.667 -34 -105 -34h-94c24.667 -105.333 52.667 -208.333 84 -309h2c24.667 -13.333 47 -12.666 67 2.00098c6.66699 4 17 13 31 27c5.33301 5.33301 19 17.666 41 36.999
c52 46.667 106 58.334 162 35.001c24.667 -9.33301 41.667 -30.666 51 -63.999c8 -27.333 10.667 -56 8 -86c-2.66699 -34 -29.334 -76.333 -80.001 -127c-60 -60 -125.333 -93.333 -196 -100c-104 -6.66699 -189.333 18.333 -256 75c-26 20.667 -48.667 44 -68 70
c-35.333 48 -65.333 72.667 -90 74c-23.333 0 -48 -14.333 -74 -43c-18 -19.333 -40.333 -40.666 -67 -63.999c-27.333 -24.667 -58.666 -40.334 -93.999 -47.001c-18 -2.66699 -35.833 1.16602 -53.5 11.499s-30.834 24.166 -39.501 41.499
c-19.333 36.667 -11.666 84 23.001 142c19.333 32.667 46.666 67.5 81.999 104.5s68.666 62.167 99.999 75.5c31.333 12 62 19.667 92 23l-28 112c-12 -1.33301 -27.667 -2 -47 -2c-9.33301 -1.33301 -18.333 -2 -27 -2c-22 0 -39 -0.666992 -51 -2
c-49.333 -2.66699 -86.333 10.333 -111 39c-15.333 16.667 -25.333 42.334 -30 77.001s-0.666992 61.667 12 81c23.333 38 57.333 57.667 102 59c12 0 21.667 0.666992 29 2c9.33301 0 34.666 1.33301 75.999 4c-8 53.333 -13 94.333 -15 123
c-9.33301 142 2.33398 241 35.001 297c39.333 68 118.666 109 237.999 123c110.667 12 210.334 -7 299.001 -57c66.667 -38 106.667 -75.667 120 -113c10.667 -22 7 -50.667 -11 -86s-45.667 -67.333 -83 -96c-9.33301 -6.66699 -18.5 -11.167 -27.5 -13.5
s-20.333 -0.666016 -34 5.00098s-22.834 10.167 -27.501 13.5s-16 10.333 -34 21c-62.667 39.333 -113.667 55.666 -153 48.999c-20.667 -6.66699 -31 -32.334 -31 -77.001c0 -42 5.33301 -100 16 -174l142 6c65.333 0 109 -18 131 -54
c13.333 -22.667 20 -48.334 20 -77.001z" />
    <glyph glyph-name="yen" unicode="&#xa5;" horiz-adv-x="1114" 
d="M635 938l38.9941 118.995c32.667 108 66 174.667 100 200c20.667 19.333 59 27.333 115 24s97.667 -20 125 -50c26 -28.667 34 -75 24 -139c-12 -79.333 -42 -175.666 -90 -288.999c-18 -42 -41 -86.333 -69 -133c-34 -57.333 -67 -104.666 -99 -141.999l2 -2h80
c27.333 -2.66699 48 -14 62 -34c6.66699 -10.667 9.66699 -26.667 9 -48s-5 -37 -13 -47c-16.667 -20.667 -38 -29.334 -64 -26.001h-31h-92c1.33301 -8 2 -19.667 2 -35v-31h111c28.667 0 49.667 -11 63 -33c6.66699 -10.667 9.83398 -26.5 9.50098 -47.5
s-4.83301 -36.5 -13.5 -46.5c-15.333 -19.333 -36.333 -28.666 -63 -27.999h-31h-72l-4 -5c-8 -49.333 -24.667 -87.166 -50 -113.499s-66.666 -38.833 -123.999 -37.5h-10v6c-57.333 -1.33301 -98.666 11.334 -123.999 38.001s-42 64.667 -50 114l-4 4h-72h-29
c-28.667 0 -50.334 9.33301 -65.001 28c-8 10.667 -12 26.334 -12 47.001c-5.33301 32.667 5.33398 56.667 32.001 72c9.33301 5.33301 22.333 8 39 8h111v-2l2 2h-2v31c0 15.333 0.666992 27 2 35h-92h-29c-27.333 -2.66699 -49 6 -65 26c-8 9.33301 -12.333 25.333 -13 48
c-5.33301 32.667 5.66699 56.334 33 71.001c6.66699 4 19 7.33301 37 10h80l2 3c-31.333 36.667 -64.333 83.667 -99 141c-28.667 46.667 -51.667 91 -69 133c-48 113.333 -78 209.666 -90 288.999c-9.33301 64 -1.33301 110.333 24 139c27.333 30 69.333 46.667 126 50
s95.334 -4.33398 116.001 -23.001c34 -26 67.333 -93 100 -201l37 -119c10.667 -42 23 -77.333 37 -106c16.667 -34 32.334 -52 47.001 -54v-4c20.667 12.667 45.334 65.334 74.001 158.001zM734.994 302.995v2h-2z" />
    <glyph glyph-name="brokenbar" unicode="&#xa6;" horiz-adv-x="538" 
d="M96 -78l0.000976562 126.997c-2.66699 142 -4 262.333 -4 361c-1.33301 42 -2 98 -2 168h350v-549c0 -101.333 -4.66699 -167.666 -14 -198.999c-20.667 -60 -72.667 -92.667 -156 -98c-62.667 -5.33301 -108.334 12.334 -137.001 53.001
c-24.667 32.667 -37 78.334 -37 137.001zM98.001 1341c4 64 20.3311 109.834 48.998 137.501s70.334 41.5 125.001 41.5c58.667 0 102.834 -12 132.501 -36s43.5 -59.333 41.5 -106v-32v-80v-113c-1.33301 -27.333 -2 -68.333 -2 -123v-119c-1.33301 -26 -2 -58 -2 -96h-348
v152v151c0 91.333 1.33301 165.666 4 222.999z" />
    <glyph glyph-name="section" unicode="&#xa7;" horiz-adv-x="854" 
d="M778 319c0 -114.667 -32.0059 -203.998 -96.0059 -267.998c-56 -57.333 -129 -86 -219 -86c-34 0 -65.333 2.66699 -94 8c-42 8 -70 18.333 -84 31c-31.333 26 -48.666 59.333 -51.999 100c-5.33301 53.333 -0.166016 89 15.501 107s42.834 24.667 81.501 20
c36.667 -4 64.667 -5.33301 84 -4c32.667 0 57 11.667 73 35c10.667 10.667 15 27.667 13 51c0 22 -10 39.167 -30 51.5s-42.333 18.5 -67 18.5c-56 -2.66699 -114 11.666 -174 42.999c-27.333 13.333 -49.666 33.666 -66.999 60.999c-30 44 -45.333 101.833 -46 173.5
s7 123.834 23 156.501c13.333 39.333 32 72 56 98c-24.667 48 -36.667 107.167 -36 177.5s13.334 129.5 38.001 177.5c42 82 108.667 131.667 200 149c68 12 132.333 10.667 193 -4c53.333 -13.333 91.666 -38.666 114.999 -75.999c12 -19.333 17.667 -45.666 17 -78.999
s-8.66699 -58 -24 -74c-27.333 -28.667 -56 -38.334 -86 -29.001c-15.333 4 -29 8.66699 -41 14c-45.333 13.333 -74.666 20.333 -87.999 21c-24.667 0 -44.5 -7.16699 -59.5 -21.5s-20.833 -35.166 -17.5 -62.499c4 -42 31.667 -67.333 83 -76
c16.667 -2.66699 41.334 -5.33398 74.001 -8.00098c50.667 -4 95.667 -17.667 135 -41c48 -28.667 83.667 -72.334 107 -131.001c10.667 -32.667 16 -72.334 16 -119.001c0 -102.667 -26.667 -186.667 -80 -252c24.667 -42.667 37 -96.667 37 -162zM456.994 639.002
c6.66699 0 12.668 0.333008 18.001 1s10.5 1.66699 15.5 3l11.5 3c2.66699 0.666992 5.66699 2.66699 9 6l6 6c0.666992 0.666992 3 3.16699 7 7.5s6 7.16602 6 8.49902c10.667 15.333 15 33 13 53c0 5.33301 -1.33301 13.666 -4 24.999c-38 18 -71 26.667 -99 26
c-23.333 0 -42.5 -7.16699 -57.5 -21.5s-21.833 -35.166 -20.5 -62.499c1.33301 -23.333 9.66602 -40.333 24.999 -51c18 -5.33301 41.333 -6.66602 70 -3.99902z" />
    <glyph glyph-name="dieresis" unicode="&#xa8;" horiz-adv-x="1181" 
d="M274 1630c6.66699 38 25.501 67.668 56.501 89.001s66.167 32 105.5 32c45.333 0 83.666 -13.667 114.999 -41c32.667 -32.667 45.667 -71.667 39 -117c-2.66699 -36.667 -17.334 -68 -44.001 -94s-64 -39.667 -112 -41c-49.333 -2.66699 -89.666 11.666 -120.999 42.999
c-35.333 28.667 -48.333 71.667 -39 129zM696.001 1624c6.66699 38 25.501 67.668 56.501 89.001s66.167 32 105.5 32c45.333 0 83.666 -13.667 114.999 -41c32.667 -32.667 45.667 -71.667 39 -117c-2.66699 -36.667 -17.334 -68 -44.001 -94s-64 -39.667 -112 -41
c-49.333 -2.66699 -89.666 11.666 -120.999 42.999c-35.333 28.667 -48.333 71.667 -39 129z" />
    <glyph glyph-name="copyright" unicode="&#xa9;" horiz-adv-x="1214" 
d="M121 662c1.33301 143.333 53.001 264.667 155.001 364c98 92.667 220.333 140.334 367 143.001c154 6.66699 278.167 -36.333 372.5 -129s140.833 -215.334 139.5 -368.001c-5.33301 -146 -53.666 -265 -144.999 -357c-91.333 -92.667 -210.333 -139.667 -357 -141
c-152.667 -5.33301 -280.334 37.667 -383.001 129c-100.667 92 -150.334 211.667 -149.001 359zM426.001 737.001c0 -62.667 15.6631 -112.997 46.9961 -150.997c36.667 -49.333 95.334 -77.333 176.001 -84c49.333 -6.66699 90.333 -1.33398 123 15.999
c24.667 10.667 38.334 30.667 41.001 60c0 27.333 -11 45 -33 53c-16.667 6.66699 -33 10 -49 10c-48 -2.66699 -85.667 9.66602 -113 36.999c-15.333 16.667 -22.5 38.167 -21.5 64.5s8.16699 47.833 21.5 64.5c18 22 47.5 35.667 88.5 41s69.167 17.666 84.5 36.999
c10.667 10.667 13.334 27.667 8.00098 51s-19.666 38.333 -42.999 45c-65.333 18 -133 9 -203 -27c-58.667 -30 -97 -75.667 -115 -137c-8 -26 -12 -52.667 -12 -80z" />
    <glyph glyph-name="ordfeminine" unicode="&#xaa;" horiz-adv-x="800" 
d="M461 1227c22 56 60.001 85.335 114.001 88.002c36.667 1.33301 64 -9.66699 82 -33c10.667 -15.333 20.334 -45.333 29.001 -90c4 -16.667 7.33301 -49.334 10 -98.001v-41v-49.5v-40.5c0 -10.667 -0.666992 -27 -2 -49s-2 -38.667 -2 -50
c-2.66699 -68 -16.334 -121 -41.001 -159c-15.333 -19.333 -34.333 -29.666 -57 -30.999c-19.333 0 -40 4 -62 12c-8 1.33301 -16 4.66602 -24 9.99902c-10.667 2.66699 -19 4 -25 4c-4 0 -10.667 -2 -20 -6c-24.667 -10.667 -54 -18.667 -88 -24
c-20.667 -4 -41.334 -5.33301 -62.001 -4c-75.333 1.33301 -134.666 30.666 -177.999 87.999c-35.333 45.333 -53 110 -53 194c2.66699 72.667 26.667 135 72 187c48 54.667 106 86.667 174 96c39.333 5.33301 83.666 4 132.999 -4zM473.001 1055
c-32.667 8 -62.667 11.332 -90 9.99902c-28.667 -4 -51.834 -17.667 -69.501 -41s-25.167 -52 -22.5 -86c2.66699 -30 11.334 -52.667 26.001 -68c18 -20.667 39.333 -30.667 64 -30c32.667 0 64 10 94 30c-1.33301 6.66699 -2 20.334 -2 41.001v50v49v45z" />
    <glyph glyph-name="guillemotleft" unicode="&#xab;" horiz-adv-x="1521" 
d="M344 129c-154 113.333 -233.998 231.336 -239.998 354.003c-6.66699 128.667 73.333 255 240 379c39.333 31.333 87 60.666 143 87.999c61.333 27.333 112.666 41.666 153.999 42.999c30 1.33301 52.667 -12.334 68 -41.001c12 -28.667 19 -72 21 -130
s-1.66699 -98.667 -11 -122c-10.667 -24.667 -23 -37.334 -37 -38.001c-49.333 -13.333 -95.666 -32 -138.999 -56c-72.667 -39.333 -115.667 -75.333 -129 -108c15.333 -38 58.333 -76.333 129 -115c49.333 -26 95.666 -45 138.999 -57
c13.333 -1.33301 25.666 -14.333 36.999 -39c9.33301 -23.333 13 -63 11 -119s-9 -99 -21 -129c-13.333 -31.333 -36 -45.666 -68 -42.999c-96.667 8 -195.667 52.333 -297 133zM1040 129.003c-154 113.333 -233.664 231.332 -238.997 353.999
c-6.66699 128.667 73 255 239 379c105.333 82 204.333 125.667 297 131c31.333 2.66699 53.166 -11 65.499 -41s20 -73.667 23 -131s-0.5 -97.666 -10.5 -120.999c-10.667 -24.667 -23 -37.334 -37 -38.001c-49.333 -13.333 -95.666 -32 -138.999 -56
c-75.333 -39.333 -118.333 -75.333 -129 -108c12 -36.667 55 -75 129 -115c49.333 -26 95.666 -45 138.999 -57c13.333 -1.33301 25.666 -14.333 36.999 -39c9.33301 -23.333 12.666 -63 9.99902 -119s-10 -99 -22 -129c-12 -31.333 -34 -45.666 -66 -42.999
c-96.667 8 -195.667 52.333 -297 133z" />
    <glyph glyph-name="uni00AD" unicode="&#xad;" horiz-adv-x="1187" 
d="M1100 623c-1.33301 -49.333 -16.332 -85.3311 -44.999 -107.998s-65.667 -32.667 -111 -30c-22 1.33301 -89.667 3.66602 -203 6.99902c-65.333 0 -115 0.666992 -149 2c-68 0 -117.333 0.666992 -148 2h-116h-60h-53c-49.333 -2.66699 -88.333 13.666 -117 48.999
c-15.333 18 -23.833 46 -25.5 84s4.16602 67.333 17.499 88c27.333 39.333 65 59 113 59h317h129h121c26 -1.33301 60.667 -2 104 -2c86 0 140.667 -6.66699 164 -20c36.667 -26 56.667 -57.667 60 -95c1.33301 -10.667 2 -22.667 2 -36z" />
    <glyph glyph-name="registered" unicode="&#xae;" horiz-adv-x="1214" 
d="M121 662c1.33301 143.333 53.001 264.667 155.001 364c98 92.667 220.333 140.334 367 143.001c154 6.66699 278.167 -36.333 372.5 -129s140.833 -215.334 139.5 -368.001c-5.33301 -146 -53.666 -265 -144.999 -357c-91.333 -92.667 -210.333 -139.667 -357 -141
c-152.667 -5.33301 -280.334 37.667 -383.001 129c-100.667 92 -150.334 211.667 -149.001 359zM567.001 682.001c-1.33301 10.667 -1.99805 29.667 -1.99805 57v56c15.333 10.667 31.666 16 48.999 16c46.667 0 70 -19.667 70 -59c0 -34 -12.333 -55.5 -37 -64.5
s-51.334 -10.833 -80.001 -5.5zM571.003 569.001c23.333 -4 41.334 -5.33398 54.001 -4.00098c6.66699 -12 23.667 -51.667 51 -119c19.333 -45.333 44.666 -67 75.999 -65c56 1.33301 76.333 34.666 61 99.999c-8 31.333 -30.667 78.666 -68 141.999
c52 27.333 78 75 78 143c-1.33301 54.667 -18.333 96 -51 124s-75.667 41.333 -129 40c-26 0 -49.333 -3.33301 -70 -10c-19.333 -8 -30.666 -12.333 -33.999 -13c-10.667 0 -21 2.66699 -31 8c-9.33301 6.66699 -23 8.83398 -41 6.50098s-29 -10.5 -33 -24.5
c-5.33301 -12 -8 -31 -8 -57c0 -39.333 1.33301 -101.666 4 -186.999c1.33301 -22 2 -54 2 -96c0 -79.333 7 -129.666 21 -150.999c8 -13.333 23.667 -20.5 47 -21.5s39 2.5 47 10.5c15.333 13.333 22.666 34 21.999 62v37c0 23.333 0.666992 39 2 47v28z" />
    <glyph glyph-name="macron" unicode="&#xaf;" horiz-adv-x="1015" 
d="M911 1565c-1.33301 -42 -16 -73.001 -44 -93.001s-63 -28.667 -105 -26c-26 1.33301 -108.667 3.33301 -248 6c-65.333 0 -112.333 0.666992 -141 2h-82h-51c-48 -2.66699 -85 11 -111 41c-15.333 16.667 -24 41.334 -26 74.001s3.33301 58 16 76
c23.333 32.667 59.333 49.667 108 51h215h181h55c23.333 0 40 -0.333008 50 -1s23 -1.33398 39 -2.00098s28 -1.66699 36 -3s16.5 -3.16602 25.5 -5.49902s16.833 -5.5 23.5 -9.5c35.333 -20.667 54.333 -46.667 57 -78c1.33301 -9.33301 2 -20 2 -32z" />
    <glyph glyph-name="degree" unicode="&#xb0;" horiz-adv-x="817" 
d="M61 942c13.333 101.333 55.668 181.998 127.001 241.998c66.667 56 145.334 84 236.001 84c101.333 0 186 -39 254 -117c64 -75.333 92.667 -177.666 86 -306.999c-9.33301 -105.333 -41.333 -190.666 -96 -255.999c-66.667 -76.667 -150.667 -115.667 -252 -117
c-106.667 -2.66699 -196.334 36.333 -269.001 117c-76.667 86 -105.334 204 -86.001 354zM266.002 876.998c0 -52 15.6689 -95.001 47.002 -129.001c28.667 -32.667 63 -49.334 103 -50.001c38 0 71 14.333 99 43s42 69.667 42 123
c1.33301 50.667 -12.334 92.334 -41.001 125.001s-63.334 49.667 -104.001 51c-42 2.66699 -76.833 -10.166 -104.5 -38.499s-41.5 -69.833 -41.5 -124.5z" />
    <glyph glyph-name="plusminus" unicode="&#xb1;" horiz-adv-x="972" 
d="M494 328c-49.333 1.33301 -85.3291 16.3359 -107.996 45.0029s-32.667 65.334 -30 110.001c0 15.333 0.666992 28.333 2 39v53c-15.333 1.33301 -34.333 2.33301 -57 3h-33h-53c-49.333 -2.66699 -88.333 13.666 -117 48.999c-15.333 18 -23.833 46 -25.5 84
s4.16602 67.333 17.499 88c27.333 39.333 65 59 113 59h162c1.33301 19.333 2 44.666 2 75.999v41v55c-2.66699 49.333 13.666 87.666 48.999 114.999c19.333 15.333 47.666 24 84.999 26s66.333 -4 87 -18c39.333 -27.333 59 -65 59 -113v-184h119
c64 -1.33301 107.667 -23 131 -65c12 -22 18 -50.667 18 -86c-1.33301 -49.333 -16.333 -85.333 -45 -108s-65.334 -32.667 -110.001 -30c-8 0 -46.333 1.33301 -115 4v-94c-1.33301 -66.667 -23 -110.334 -65 -131.001c-22 -12 -50.667 -18 -86 -18zM918.004 96.0029
c-1.33301 -49.333 -16.501 -85.167 -45.501 -107.5s-65.833 -32.166 -110.5 -29.499c-23.333 0 -44 0.666992 -62 2c-52 1.33301 -118 3.33301 -198 6c-48 0 -82.333 0.666992 -103 2h-82h-47h-53c-49.333 -2.66699 -88.333 13.666 -117 48.999
c-15.333 18 -23.833 46.167 -25.5 84.5s4.16602 67.5 17.499 87.5c27.333 39.333 65 59.333 113 60h225h186h57.5c25 0 42.5 -0.333008 52.5 -1s23.667 -1.33398 41 -2.00098s30 -1.66699 38 -3s16.833 -3.5 26.5 -6.5s17.834 -6.5 24.501 -10.5
c36.667 -26 56.334 -57.333 59.001 -94c2 -11.333 3 -23.666 3 -36.999z" />
    <glyph glyph-name="uni00B2" unicode="&#xb2;" horiz-adv-x="919" 
d="M512 676l68.001 -0.00195312c49.333 0 82 -13.667 98 -41c9.33301 -15.333 12.333 -35.833 9 -61.5s-10.333 -44.167 -21 -55.5c-22 -23.333 -50.667 -35 -86 -35c-12 -1.33301 -29.333 -2 -52 -2h-159c-50.667 0 -90.334 6.33301 -119.001 19
c-39.333 19.333 -62.666 45.333 -69.999 78c-1.33301 6.66699 -2 25 -2 55c0 45.333 39 98 117 158c69.333 52 128.666 106.333 177.999 163c22 24.667 31.667 51.334 29 80.001c-4 28.667 -29.333 44.334 -76 47.001c-15.333 0 -46 -1.33301 -92 -4
c-61.333 -2.66699 -95 23.333 -101 78c-8 61.333 16 97 72 107c38 6.66699 84.333 10 139 10c64 0 117.333 -11 160 -33c65.333 -34 101 -90.667 107 -170c0 -50.667 -11 -97 -33 -139c-10.667 -23.333 -36 -56.333 -76 -99c-30 -30 -58.667 -55.667 -86 -77
c-2.66699 -2.66699 -32.667 -28.667 -90 -78h86z" />
    <glyph glyph-name="uni00B3" unicode="&#xb3;" horiz-adv-x="833" 
d="M549 891c45.333 -8 80.666 -26.998 105.999 -56.998c23.333 -30 35 -70.333 35 -121c-2.66699 -87.333 -40 -153 -112 -197c-49.333 -31.333 -119.666 -48.333 -210.999 -51c-82 0 -136 9 -162 27c-27.333 16.667 -41 39.667 -41 69c0 54.667 28.667 82 86 82
c34 0 57 -0.666992 69 -2c42 -4 79 5.66699 111 29c12 9.33301 19.833 24.166 23.5 44.499s2.16699 35.5 -4.5 45.5c-10.667 18 -30.667 30.333 -60 37c-19.333 2.66699 -33 4 -41 4h-78c-22 -1.33301 -38 5.83398 -48 21.501s-14.333 35.167 -13 58.5
c2.66699 48 21.667 71.667 57 71c44 2.66699 70 4 78 4c61.333 12 90.666 40.667 87.999 86c0 34 -19 56 -57 66c-22 2.66699 -39.667 4 -53 4c-39.333 0 -73 -2.66699 -101 -8c-28.667 -5.33301 -53.334 3.33398 -74.001 26.001
c-13.333 15.333 -18.666 36.666 -15.999 63.999c1.33301 27.333 9.66602 48.333 24.999 63c12 8 31.667 13.667 59 17c40.667 2.66699 69.334 4 86.001 4h45c65.333 0 121.333 -7.66699 168 -23c104 -28.667 154 -93.334 150 -194.001
c-5.33301 -80.667 -43.666 -135.334 -114.999 -164.001v-6z" />
    <glyph glyph-name="acute" unicode="&#xb4;" horiz-adv-x="669" 
d="M362 1819c27.333 31.333 68.333 41.333 123 30c53.333 -12 80.666 -40.667 81.999 -86c1.33301 -58.667 -41 -131.667 -127 -219c-86 -86 -150.667 -125.667 -194 -119c-52 6.66699 -72.667 39 -62 97c6.66699 40.667 33.334 97.334 80.001 170.001
c38 57.333 70.667 99.666 98 126.999z" />
    <glyph glyph-name="paragraph" unicode="&#xb6;" horiz-adv-x="1036" 
d="M483 -55c-45.333 1.33301 -74.668 19.6689 -88.001 55.002c-9.33301 23.333 -12.666 69.666 -9.99902 138.999l8 246c-70.667 16.667 -128 44.667 -172 84c-94 86 -141 204.667 -141 356c-2.66699 139.333 35 248 113 326c70.667 70.667 165.334 105.334 284.001 104.001
c48 0 98 -8 150 -24c19.333 -6.66699 35.666 -13 48.999 -19c10.667 -5.33301 19.334 -8 26.001 -8c20.667 0 43.334 5.66699 68.001 17c22 13.333 51.667 17.666 89 12.999s61.666 -22 72.999 -52c12 -34 18 -75.667 18 -125c0 -105.333 -2.66699 -205 -8 -299
c0 -6.66699 -1 -52 -3 -136s-3.66699 -150.667 -5 -200c-2.66699 -142 -6.66699 -253.333 -12 -334c-9.33301 -114.667 -62.666 -169.334 -159.999 -164.001c-68 1.33301 -109 28 -123 80c-6.66699 26 -9.33398 50.667 -8.00098 74v82v231
c-2.66699 0 -7.83398 -1 -15.501 -3l-19.5 -5v-84c-1.33301 -19.333 -2 -47.333 -2 -84c0 -50.667 -1.33301 -97.667 -4 -141c-2.66699 -54.667 -11.667 -90.334 -27 -107.001c-15.333 -17.333 -42 -24.666 -80 -21.999z" />
    <glyph glyph-name="cedilla" unicode="&#xb8;" horiz-adv-x="690" 
d="M260 102l19 0.000976562h4c35.333 0 54.333 -15.667 57 -47c1.33301 -23.333 0.666016 -52.666 -2.00098 -87.999c-1.33301 -12 -0.666016 -18 2.00098 -18c82 19.333 144.5 11.166 187.5 -24.501s62.5 -95.834 58.5 -180.501
c-5.33301 -72.667 -48.333 -122.667 -129 -150c-54.667 -20.667 -128.334 -30.667 -221.001 -30c-60 0 -99 13.667 -117 41c-15.333 22 -19.666 54 -12.999 96c1.33301 32.667 24 51.667 68 57c16.667 2.66699 35 2.66699 55 0c27.333 -2.66699 47.333 -4 60 -4
c13.333 0 27 1.33301 41 4c16.667 4 24.667 14.333 24 31c-1.33301 4 -2 12.333 -2 25c0 15.333 -16.333 22.666 -49 21.999h-45c-48 -2.66699 -75.333 6.33301 -82 27c-10.667 34 -12.667 75.667 -6 125c1.33301 22 3.33301 40.333 6 55
c1.33301 23.333 16.333 40.333 45 51c6.66699 2.66699 15.667 5.33398 27 8.00098h12z" />
    <glyph glyph-name="uni00B9" unicode="&#xb9;" horiz-adv-x="684" 
d="M262 1272c110.667 0 180.997 -39.6641 210.997 -118.997c16.667 -46.667 26.334 -116.334 29.001 -209.001c1.33301 -40.667 0 -112.334 -4 -215.001c-4 -69.333 -9.66699 -120.666 -17 -153.999c-15.333 -65.333 -45.333 -100.666 -90 -105.999
c-53.333 -5.33301 -90 9 -110 43c-15.333 26 -24.333 69 -27 129v68c0 39.333 0.666992 70.666 2 93.999c0 91.333 -2 151.333 -6 180c-1.33301 18 -4.5 32 -9.5 42s-12.833 18.167 -23.5 24.5s-19.167 10.166 -25.5 11.499s-18.166 4 -35.499 8
c-38 9.33301 -58.667 37.333 -62 84c-5.33301 53.333 18 89.666 70 108.999c24.667 6.66699 57.334 10 98.001 10z" />
    <glyph glyph-name="ordmasculine" unicode="&#xba;" horiz-adv-x="817" 
d="M61 942c13.333 101.333 55.668 181.998 127.001 241.998c66.667 56 145.334 84 236.001 84c101.333 0 186 -39 254 -117c64 -75.333 92.667 -177.666 86 -306.999c-9.33301 -105.333 -41.333 -190.666 -96 -255.999c-66.667 -76.667 -150.667 -115.667 -252 -117
c-106.667 -2.66699 -196.334 36.333 -269.001 117c-76.667 86 -105.334 204 -86.001 354zM266.002 876.998c0 -52 15.6689 -95.001 47.002 -129.001c28.667 -32.667 63 -49.334 103 -50.001c38 0 71 14.333 99 43s42 69.667 42 123
c1.33301 50.667 -12.334 92.334 -41.001 125.001s-63.334 49.667 -104.001 51c-42 2.66699 -76.833 -10.166 -104.5 -38.499s-41.5 -69.833 -41.5 -124.5z" />
    <glyph glyph-name="guillemotright" unicode="&#xbb;" horiz-adv-x="1529" 
d="M1227 129c-101.333 -80.667 -200.336 -125 -297.003 -133c-31.333 -2.66699 -53.333 11.666 -66 42.999c-13.333 30 -21 73 -23 129s1.66699 95.667 11 119c10.667 24.667 23 37.667 37 39c44 12 90.333 31 139 57c70.667 38 113.667 76.333 129 115
c-13.333 32.667 -56.333 68.667 -129 108c-44 23.333 -90.333 42 -139 56c-13.333 1.33301 -25.666 14 -36.999 38c-9.33301 23.333 -12.666 64 -9.99902 122s10 101.333 22 130c18 42 65.333 51 142 27c57.333 -19.333 108.333 -42.666 153 -69.999
c22 -12 44.667 -27.667 68 -47c166.667 -124 246.334 -250.333 239.001 -379c-5.33301 -122.667 -85 -240.667 -239 -354zM529.997 129c-101.333 -80.667 -200.335 -124.997 -297.002 -132.997c-31.333 -2.66699 -53 11.666 -65 42.999c-12 30 -19.5 73 -22.5 129
s0.5 95.667 10.5 119c10.667 24.667 23 37.667 37 39c44 12 90.333 31 139 57c74 39.333 117 77.666 129 114.999c-10.667 32.667 -53.667 68.667 -129 108c-44 23.333 -90.333 42 -139 56c-13.333 1.33301 -25.666 14 -36.999 38
c-9.33301 23.333 -12.666 63.666 -9.99902 120.999s10 101 22 131s33.667 43.667 65 41c92.667 -5.33301 191.667 -49 297 -131c166.667 -124 246.667 -250.333 240 -379c-6 -122.667 -86 -240.667 -240 -354z" />
    <glyph glyph-name="onequarter" unicode="&#xbc;" horiz-adv-x="2539" 
d="M252 1333c166.667 0 272.333 -65.332 317 -195.999c26 -84.667 41 -201 45 -349c2.66699 -108 0 -227.333 -8 -358c-2.66699 -32.667 -4.66699 -71 -6 -115c-4 -108 -25.667 -194 -65 -258c-19.333 -31.333 -50.166 -50.333 -92.499 -57s-75.833 -2 -100.5 14
c-49.333 23.333 -79.333 74 -90 152c-8 62.667 -11.333 139.667 -10 231v158c0 151.333 -3 251 -9 299c-5.33301 52 -20.333 88.333 -45 109c-18 13.333 -50 24.666 -96 33.999c-58.667 12 -89.334 58.667 -92.001 140c-2.66699 50.667 7 91.667 29 123
c34 48.667 108.333 73 223 73zM1094 1044c50.667 106.667 126.334 140.333 227.001 101c112 -44 149 -109 111 -195l-11 -26c-18 -38 -27.333 -60 -28 -66c-12 -32.667 -24.333 -62.667 -37 -90l-39 -96l-103 -258l-104 -260l-20.5 -48
c-9.66699 -22.667 -16.5 -39.667 -20.5 -51c-26 -68 -64.333 -109.667 -115 -125c-27.333 -8 -60.333 -5.83301 -99 6.5s-67 27.5 -85 45.5c-32.667 32.667 -45 75 -37 127c2.66699 26 9 49.667 19 71l180 471l86 211c27.333 69.333 52.666 130 75.999 182zM1673 1128
c9.33301 68 30.666 115.336 63.999 142.003c24.667 20.667 65 29.334 121 26.001c70.667 -1.33301 116.334 -23 137.001 -65c13.333 -31.333 14 -82.666 2 -153.999l-25 -135l-13 -75c-6 -34.667 -11 -61.667 -15 -81c-9.33301 -46.667 -17.666 -92.334 -24.999 -137.001
c-6.66699 -44 -10 -67.667 -10 -71c28.667 4 75.667 7.33301 141 10h51c15.333 0 24.333 0.666992 27 2c0 13.333 1.33301 74.666 4 183.999c0 13.333 0.333008 33.333 1 60s1.66699 47 3 61c1.33301 28.667 2.66602 64.167 4 106.5c1.33301 42.333 2 72.5 2 90.5
c0 75.333 20.667 127.666 62 156.999c22 16.667 54 26.667 96 30s74 0.333008 96 -9c46.667 -18 75.334 -51.667 86 -101c5.33301 -20.667 8 -45 8 -73c0 -88.667 0.666992 -159.667 2 -213c0 -88.667 -2.66699 -172 -8 -250v-45c-1.33301 -8 -2.33301 -21 -3 -39
s-1 -31.667 -1 -41c-1.33301 -20.667 -2 -54 -2 -100c0 -10.667 -0.333008 -27 -1 -49s-1.66699 -38.667 -3 -50c-1.33301 -20.667 -2 -47.334 -2 -80.001c-1.33301 -15.333 -2 -30.333 -2 -45c-6.66699 -76.667 -22.334 -126.334 -47 -149.001
c-30 -26 -86.667 -38.333 -170 -37c-46.667 1.33301 -80.834 16 -102.501 44s-31.167 61.667 -28.5 101c0 6.66699 0.666992 15 2 25c0 8 0.333008 17.833 1 29.5s1.66699 24.667 3 39s2 25.5 2 33.5c1.33301 12 2 25.667 2 41c-70.667 -2.66699 -119.667 -4 -147 -4
c-61.333 0 -108 -0.666992 -140 -2c-82 0 -140.667 7.66699 -176 23c-54.667 23.333 -86.667 64.333 -96 123c-5.33301 44 2.66699 133.333 24 268c16.667 92.667 29.667 161.667 39 207z" />
    <glyph glyph-name="onehalf" unicode="&#xbd;" horiz-adv-x="1306" 
d="M1085 301l50.002 0.00390625c34 0 57 -9.66699 69 -29c6.66699 -12 9 -27.167 7 -45.5s-7 -31.833 -15 -40.5c-15.333 -15.333 -36.333 -22.666 -63 -21.999c-8 -1.33301 -20.333 -2 -37 -2h-113c-36.667 0 -65.334 4.66699 -86.001 14
c-27.333 9.33301 -43.666 27.666 -48.999 54.999c-5.33301 38 2 71 22 99c9.33301 13.333 29.333 31.666 60 54.999c50.667 38 93 77 127 117c15.333 20.667 22.166 39.167 20.499 55.5s-8.5 26.5 -20.5 30.5c-9.33301 4 -20.333 6 -33 6h-29
c-16.667 0 -29.667 -0.666992 -39 -2c-42 -2.66699 -65.667 15.666 -71 54.999c-2.66699 45.333 14.333 71.333 51 78c16.667 4 50 6 100 6c44 0 82.333 -7.33301 115 -22c23.333 -15.333 39.666 -28.333 48.999 -39c27.333 -42 35 -87 23 -135
c-9.33301 -34 -23.666 -62.667 -42.999 -86c-6.66699 -6.66699 -17 -18.334 -31 -35.001c-18 -19.333 -38.667 -38 -62 -56c-6.66699 -5.33301 -13.334 -11.333 -20.001 -18s-14.5 -13.834 -23.5 -21.501s-15.5 -13.5 -19.5 -17.5h61zM207.002 1247
c66.667 0 109.668 -26.6699 129.001 -80.0029c10.667 -39.333 17.334 -86.333 20.001 -141c0 -46.667 -1.33301 -95.667 -4 -147c-1.33301 -4 -2.33301 -11.5 -3 -22.5s-1 -19.5 -1 -25.5c-2.66699 -45.333 -11.334 -80 -26.001 -104
c-6.66699 -12 -18.334 -19.333 -35.001 -22c-32.667 -2.66699 -54.5 5.83301 -65.5 25.5s-17.167 49.834 -18.5 90.501v45v66c0 39.333 -1.33301 79.666 -4 120.999c-1.33301 9.33301 -3.5 17 -6.5 23s-5.5 10.833 -7.5 14.5s-6 6.83398 -12 9.50098
s-10.333 4.33398 -13 5.00098l-19 5.00098c-24.667 5.33301 -37 24.333 -37 57c0 22 4.33301 38.667 13 50c16 20 46 30 90 30zM600.003 1087c38 83.333 97.999 109.337 179.999 78.0039c86 -34 114.667 -85 86 -153c0 -2.66699 -2.66699 -10.334 -8 -23.001
c-1.33301 -2.66699 -4.66602 -9.83398 -9.99902 -21.501s-9.33301 -21.5 -12 -29.5c-1.33301 -4 -5.5 -14.167 -12.5 -30.5l-16.5 -39.5c-6.66699 -18 -17 -43 -31 -75l-164 -408c-32.667 -80.667 -55 -127.667 -67 -141c-32.667 -36.667 -80 -45 -142 -25
c-49.333 15.333 -78 41.333 -86 78c-8 27.333 -3.66699 63.666 13 108.999c6.66699 20.667 18.167 52 34.5 94s26.5 68.667 30.5 80c32.667 87.333 58 152.666 76 195.999l37.5 89.5c15.667 37.667 26.5 63.167 32.5 76.5z" />
    <glyph glyph-name="threequarters" unicode="&#xbe;" horiz-adv-x="1402" 
d="M393 950c27.333 -4 48.5 -14.499 63.5 -31.499s24.5 -35.167 28.5 -54.5c2.66699 -22 4 -38.333 4 -49c0 -62.667 -26.333 -111 -79 -145c-31.333 -24.667 -78.666 -37 -141.999 -37c-54.667 -2.66699 -92 2.66602 -112 15.999c-19.333 10.667 -29 29.334 -29 56.001
c0 40.667 19.667 61 59 61c23.333 0 40 -0.666992 50 -2c32.667 -2.66699 57.667 4 75 20c10.667 8 16.167 22 16.5 42s-6.5 34.667 -20.5 44c-16.667 5.33301 -34.334 9.66602 -53.001 12.999h-53c-16.667 -1.33301 -28 4.16699 -34 16.5s-9 27.166 -9 44.499
c0 35.333 13.667 53 41 53c2.66699 1.33301 8 2 16 2s13.333 0.666992 16 2h19c40.667 6.66699 61 28 61 64c0 26 -12.333 42.333 -37 49c-16.667 2.66699 -29.667 4 -39 4s-32.333 -2 -69 -6c-24.667 -2.66699 -42.334 4.33301 -53.001 21
c-6.66699 18 -9.66699 33.667 -9 47c1.33301 22 7 37.667 17 47c12 10.667 45.333 16 100 16h31c26 0 49.833 -1.66699 71.5 -5s45.167 -10.166 70.5 -20.499s44.833 -27 58.5 -50s19.167 -52.5 16.5 -88.5c-1.33301 -58.667 -26.666 -99.667 -75.999 -123v-6zM702 1087
c38 83.333 98.334 109.336 181.001 78.0029c86 -34 114.667 -85 86 -153c0 -2.66699 -2.66699 -10.334 -8 -23.001l-10.5 -21.5c-5.66699 -11.667 -9.83398 -21.5 -12.501 -29.5c-1.33301 -5.33301 -5.5 -15.833 -12.5 -31.5s-12.5 -28.5 -16.5 -38.5
c-6.66699 -18 -16.667 -43 -30 -75l-164 -408c-32.667 -80.667 -55.334 -127.667 -68.001 -141c-32.667 -36.667 -79.667 -45 -141 -25c-49.333 15.333 -78 41.333 -86 78c-8 27.333 -4 63.666 12 108.999c6.66699 20.667 18.334 52 35.001 94s27 68.667 31 80l75 196
l38 89.5l32 76.5c16 43.333 35.667 91.666 59 144.999zM930.001 657.004c5.33301 31.333 14.668 52.6641 28.001 63.9971c12 9.33301 33.167 12.333 63.5 9s47.5 -13.333 51.5 -30c5.33301 -19.333 2.66602 -62.333 -8.00098 -129
c-2.66699 -12 -7.33398 -35.667 -14.001 -71c-5.33301 -32.667 -9 -52.667 -11 -60c-4 -19.333 -6 -30 -6 -32c30 2.66699 52 4 66 4c20.667 0 32.334 0.666992 35.001 2c0 10.667 0.666992 21.334 2 32.001v50c0 23.333 0.666992 41 2 53v41c1.33301 12 2 29 2 51
c0 15.333 2 29 6 41c9.33301 27.333 32.666 41.666 69.999 42.999c30 1.33301 51.333 -6.16699 64 -22.5s18.334 -37.5 17.001 -63.5c0 -39.333 0.666992 -70.666 2 -93.999c0 -23.333 -1.33301 -61 -4 -113c0 -10.667 -0.666992 -22.334 -2 -35.001
c-1.33301 -13.333 -2 -35 -2 -65c-1.33301 -16.667 -2 -38.667 -2 -66c-1.33301 -13.333 -2 -25.666 -2 -36.999c-1.33301 -31.333 -8 -53.666 -20 -66.999c-12 -12 -33.833 -17.5 -65.5 -16.5s-51.5 8.5 -59.5 22.5c-9.33301 12 -12 37.333 -8 76c1.33301 12 2 26.333 2 43
c-24.667 -2.66699 -47.334 -2.66699 -68.001 0c-27.333 0 -47.666 -0.666992 -60.999 -2c-28.667 0 -55.334 3.33301 -80.001 10c-44 10.667 -55 69.334 -33 176.001l18 92c2.66699 9.33301 5.83398 25 9.50098 47s6.16699 37.667 7.5 47z" />
    <glyph glyph-name="questiondown" unicode="&#xbf;" horiz-adv-x="1095" 
d="M903 1122c-1.33301 -80.667 -37.334 -134.332 -108.001 -160.999c-62.667 -26 -127 -21.333 -193 14c-70.667 36.667 -106.667 92.667 -108 168c-1.33301 65.333 25.667 114.333 81 147c39.333 22 80.333 33 123 33c49.333 0 91 -10.333 125 -31
c54.667 -32.667 81.334 -89.334 80.001 -170.001zM1051 0.00195312c9.33301 -108 -22.332 -181.671 -94.999 -221.004c-57.333 -31.333 -165 -53.333 -323 -66c-151.333 -10.667 -271 14 -359 74c-102.667 70.667 -158.667 187.334 -168 350.001
c-8 148.667 35.333 258 130 328c57.333 42 131.666 70 222.999 84c45.333 6.66699 74 27.667 86 63c4 15.333 6 31 6 47c0 22 0.666992 38 2 48c1.33301 31.333 16.333 59.833 45 85.5s71 40.834 127 45.501c120 8 172.667 -94 158 -306
c-6.66699 -87.333 -39.667 -154 -99 -200c-42 -34 -91.667 -52.667 -149 -56c-64 -9.33301 -109.667 -21.333 -137 -36c-52 -30 -70.667 -70.333 -56 -121c13.333 -48 65.333 -70 156 -66c48 2.66699 91 8.33398 129 17.001c130 26 208.667 37.333 236 34
c44 -6.66699 70.333 -27 79 -61c3.33301 -9.33301 6.33301 -23.666 9 -42.999z" />
    <glyph glyph-name="Agrave" unicode="&#xc0;" horiz-adv-x="1181" 
d="M537 1819c38 -42 71.333 -84.334 100 -127.001c44 -68 70.667 -124.667 80 -170c9.33301 -57.333 -12 -89.666 -64 -96.999c-44 -6.66699 -108.667 33 -194 119c-87.333 87.333 -129.666 160.333 -126.999 219c1.33301 45.333 28.666 74 81.999 86c52 10 93 0 123 -30z
M872 1249c38 -88.667 70.333 -188.999 97 -300.999c4 -24.667 13.333 -63.667 28 -117c6.66699 -28.667 18.667 -76.334 36 -143.001l40 -156c31.333 -138 51.333 -231.333 60 -280c10.667 -72.667 7 -125.334 -11 -158.001c-18 -34 -48 -55 -90 -63
c-58.667 -15.333 -107 -12.666 -145 8.00098c-42 20.667 -74 61 -96 121c-10.667 28.667 -19 59.334 -25 92.001c-1.33301 2.66699 -2 6.66699 -2 12s-0.666992 10.333 -2 15h-326h-26c0 -1.33301 -0.666992 -3 -2 -5c-20.667 -75.333 -42.667 -132 -66 -170
c-28.667 -49.333 -69.667 -74.333 -123 -75c-44 0 -79.5 7.5 -106.5 22.5s-44.333 35.5 -52 61.5s-10.834 52.167 -9.50098 78.5s7 55.5 17 87.5c28.667 98 70.334 228.333 125.001 391l141 397c45.333 121.333 82 200 110 236c39.333 48 88 73.667 146 77
c24.667 2.66699 48.667 2.66699 72 0c104.667 -6.66699 174.667 -50.334 210 -131.001zM711 522c-27.333 120 -49.335 224 -66.002 312c-23.333 122.667 -35.666 192 -36.999 208c-5.33301 -28.667 -8.66602 -45 -9.99902 -49c-5.33301 -22 -11.333 -50 -18 -84
c-16.667 -69.333 -34 -136.666 -52 -201.999l-24 -93c-6.66699 -20.667 -15.667 -51.334 -27 -92.001h234z" />
    <glyph glyph-name="Aacute" unicode="&#xc1;" horiz-adv-x="1181" 
d="M778 1819c27.333 31.333 68.332 41.333 122.999 30c53.333 -12 80.666 -40.667 81.999 -86c2.66699 -58.667 -39.666 -131.667 -126.999 -219c-86 -86 -150.667 -125.667 -194 -119c-52 6.66699 -72.667 39 -62 97c6.66699 40.667 33.334 97.334 80.001 170.001
c38 57.333 70.667 99.666 98 126.999zM871.999 1249c38 -88.667 70.333 -188.999 97 -300.999c4 -24.667 13.333 -63.667 28 -117c6.66699 -28.667 18.667 -76.334 36 -143.001l40 -156c31.333 -138 51.333 -231.333 60 -280c10.667 -72.667 7 -125.334 -11 -158.001
c-18 -34 -48 -55 -90 -63c-58.667 -15.333 -107 -12.666 -145 8.00098c-42 20.667 -74 61 -96 121c-10.667 28.667 -19 59.334 -25 92.001c-1.33301 2.66699 -2 6.66699 -2 12s-0.666992 10.333 -2 15h-326h-26c0 -1.33301 -0.666992 -3 -2 -5
c-20.667 -75.333 -42.667 -132 -66 -170c-28.667 -49.333 -69.667 -74.333 -123 -75c-44 0 -79.5 7.5 -106.5 22.5s-44.333 35.5 -52 61.5s-10.834 52.167 -9.50098 78.5s7 55.5 17 87.5c28.667 98 70.334 228.333 125.001 391l141 397c45.333 121.333 82 200 110 236
c39.333 48 88 73.667 146 77c24.667 2.66699 48.667 2.66699 72 0c104.667 -6.66699 174.667 -50.334 210 -131.001zM710.999 522.001c-27.333 120 -49.335 224 -66.002 312c-23.333 122.667 -35.666 192 -36.999 208c-5.33301 -28.667 -8.66602 -45 -9.99902 -49
c-5.33301 -22 -11.333 -50 -18 -84c-16.667 -69.333 -34 -136.666 -52 -201.999l-24 -93c-6.66699 -20.667 -15.667 -51.334 -27 -92.001h234z" />
    <glyph glyph-name="Acircumflex" unicode="&#xc2;" horiz-adv-x="1181" 
d="M416 1675c66.667 94 134.999 143.334 204.999 148.001c74 4 147 -45.333 219 -148c44 -57.333 69 -118 75 -182c2.66699 -19.333 -4.66602 -32.333 -21.999 -39c-16.667 -9.33301 -47.834 -14 -93.501 -14s-70.5 9.33301 -74.5 28c-2.66699 15.333 -13.667 44 -33 86
c-23.333 45.333 -44.333 71.333 -63 78c-19.333 -6.66699 -40.666 -32.667 -63.999 -78c-20.667 -38 -32.334 -66.667 -35.001 -86c-4 -19.333 -28.5 -28.833 -73.5 -28.5s-75.5 5.16602 -91.5 14.499c-19.333 6.66699 -27.666 19.667 -24.999 39
c6.66699 64 32 124.667 76 182zM871.999 1249c38 -88.667 70.333 -188.999 97 -300.999c4 -24.667 13.333 -63.667 28 -117c6.66699 -28.667 18.667 -76.334 36 -143.001l40 -156c31.333 -138 51.333 -231.333 60 -280c10.667 -72.667 7 -125.334 -11 -158.001
c-18 -34 -48 -55 -90 -63c-58.667 -15.333 -107 -12.666 -145 8.00098c-42 20.667 -74 61 -96 121c-10.667 28.667 -19 59.334 -25 92.001c-1.33301 2.66699 -2 6.66699 -2 12s-0.666992 10.333 -2 15h-326h-26c0 -1.33301 -0.666992 -3 -2 -5
c-20.667 -75.333 -42.667 -132 -66 -170c-28.667 -49.333 -69.667 -74.333 -123 -75c-44 0 -79.5 7.5 -106.5 22.5s-44.333 35.5 -52 61.5s-10.834 52.167 -9.50098 78.5s7 55.5 17 87.5c28.667 98 70.334 228.333 125.001 391l141 397c45.333 121.333 82 200 110 236
c39.333 48 88 73.667 146 77c24.667 2.66699 48.667 2.66699 72 0c104.667 -6.66699 174.667 -50.334 210 -131.001zM710.999 522.002c-27.333 120 -49.335 224 -66.002 312c-23.333 122.667 -35.666 192 -36.999 208c-5.33301 -28.667 -8.66602 -45 -9.99902 -49
c-5.33301 -22 -11.333 -50 -18 -84c-16.667 -69.333 -34 -136.666 -52 -201.999l-24 -93c-6.66699 -20.667 -15.667 -51.334 -27 -92.001h234z" />
    <glyph glyph-name="Atilde" unicode="&#xc3;" horiz-adv-x="1181" 
d="M408 1536c-2.66699 -2.66699 -5.00098 -5.33496 -7.00098 -8.00195c-6.66699 -8 -16.667 -23 -30 -45c-20.667 -24.667 -50 -39 -88 -43c-22 -2.66699 -46 1.66602 -72 12.999s-42.333 26 -49 44c-13.333 38 -11.333 75 6 111c5.33301 13.333 9.33301 20 12 20l10 19
c10.667 24.667 31.334 56.667 62.001 96c34 44 70 70 108 78c38 6.66699 75.667 6 113 -2c9.33301 -1.33301 16.333 -2.66602 21 -3.99902l22 -11c13.333 -6.66699 31.666 -14.667 54.999 -24c6.66699 -2.66699 18.334 -7.83398 35.001 -15.501l39 -17.5
c48 -22 73.333 -33.667 76 -35c6.66699 -2.66699 16.834 -7.33398 30.501 -14.001l30.5 -15c19.333 -9.33301 31 -14.333 35 -15s12.333 3 25 11c20.667 16.667 39 39.334 55 68.001c6.66699 10.667 10.667 16 12 16s4.33301 4.33301 9 13c6.66699 18 25.667 29.333 57 34
c18 2.66699 40.167 0 66.5 -8s45.166 -19 56.499 -33c22 -27.333 28.667 -60 20 -98c-15.333 -49.333 -42 -99.666 -80 -150.999c-45.333 -60 -93 -93 -143 -99c-53.333 -5.33301 -103.333 3 -150 25c-12 4 -20.667 7.33301 -26 10l-29 14
c-6.66699 2.66699 -17.5 7.83398 -32.5 15.501l-34.5 17.5c-18 8 -43.333 20.333 -76 37c-26 10.667 -44.333 19 -55 25c-18 8 -37.333 6.66699 -58 -4c-10.667 -8 -16.667 -13 -18 -15c-5.33301 -5.33301 -8 -8.66602 -8 -9.99902zM871.999 1249
c38 -88.667 70.333 -188.999 97 -300.999c4 -24.667 13.333 -63.667 28 -117c6.66699 -28.667 18.667 -76.334 36 -143.001l40 -156c31.333 -138 51.333 -231.333 60 -280c10.667 -72.667 7 -125.334 -11 -158.001c-18 -34 -48 -55 -90 -63
c-58.667 -15.333 -107 -12.666 -145 8.00098c-42 20.667 -74 61 -96 121c-10.667 28.667 -19 59.334 -25 92.001c-1.33301 2.66699 -2 6.66699 -2 12s-0.666992 10.333 -2 15h-326h-26c0 -1.33301 -0.666992 -3 -2 -5c-20.667 -75.333 -42.667 -132 -66 -170
c-28.667 -49.333 -69.667 -74.333 -123 -75c-44 0 -79.5 7.5 -106.5 22.5s-44.333 35.5 -52 61.5s-10.834 52.167 -9.50098 78.5s7 55.5 17 87.5c28.667 98 70.334 228.333 125.001 391l141 397c45.333 121.333 82 200 110 236c39.333 48 88 73.667 146 77
c24.667 2.66699 48.667 2.66699 72 0c104.667 -6.66699 174.667 -50.334 210 -131.001zM710.999 522c-27.333 120 -49.335 224 -66.002 312c-23.333 122.667 -35.666 192 -36.999 208c-5.33301 -28.667 -8.66602 -45 -9.99902 -49c-5.33301 -22 -11.333 -50 -18 -84
c-16.667 -69.333 -34 -136.666 -52 -201.999l-24 -93c-6.66699 -20.667 -15.667 -51.334 -27 -92.001h234z" />
    <glyph glyph-name="Adieresis" unicode="&#xc4;" horiz-adv-x="1181" 
d="M274 1630c6.66699 38 25.501 67.668 56.501 89.001s66.167 32 105.5 32c45.333 0 83.666 -13.667 114.999 -41c32.667 -32.667 45.667 -71.667 39 -117c-2.66699 -36.667 -17.334 -68 -44.001 -94s-64 -39.667 -112 -41c-49.333 -2.66699 -89.666 11.666 -120.999 42.999
c-35.333 28.667 -48.333 71.667 -39 129zM696.001 1624c6.66699 38 25.501 67.668 56.501 89.001s66.167 32 105.5 32c45.333 0 83.666 -13.667 114.999 -41c32.667 -32.667 45.667 -71.667 39 -117c-2.66699 -36.667 -17.334 -68 -44.001 -94s-64 -39.667 -112 -41
c-49.333 -2.66699 -89.666 11.666 -120.999 42.999c-35.333 28.667 -48.333 71.667 -39 129zM872.002 1249c38 -88.667 70.333 -188.999 97 -300.999c4 -24.667 13.333 -63.667 28 -117c6.66699 -28.667 18.667 -76.334 36 -143.001l40 -156
c31.333 -138 51.333 -231.333 60 -280c10.667 -72.667 7 -125.334 -11 -158.001c-18 -34 -48 -55 -90 -63c-58.667 -15.333 -107 -12.666 -145 8.00098c-42 20.667 -74 61 -96 121c-10.667 28.667 -19 59.334 -25 92.001c-1.33301 2.66699 -2 6.66699 -2 12
s-0.666992 10.333 -2 15h-326h-26c0 -1.33301 -0.666992 -3 -2 -5c-20.667 -75.333 -42.667 -132 -66 -170c-28.667 -49.333 -69.667 -74.333 -123 -75c-44 0 -79.5 7.5 -106.5 22.5s-44.333 35.5 -52 61.5s-10.834 52.167 -9.50098 78.5s7 55.5 17 87.5
c28.667 98 70.334 228.333 125.001 391l141 397c45.333 121.333 82 200 110 236c39.333 48 88 73.667 146 77c24.667 2.66699 48.667 2.66699 72 0c104.667 -6.66699 174.667 -50.334 210 -131.001zM711.002 522.003c-27.333 120 -49.335 224 -66.002 312
c-23.333 122.667 -35.666 192 -36.999 208c-5.33301 -28.667 -8.66602 -45 -9.99902 -49c-5.33301 -22 -11.333 -50 -18 -84c-16.667 -69.333 -34 -136.666 -52 -201.999l-24 -93c-6.66699 -20.667 -15.667 -51.334 -27 -92.001h234z" />
    <glyph glyph-name="Aring" unicode="&#xc5;" horiz-adv-x="1181" 
d="M426 1679c8 53.333 33.8311 95.001 77.498 125.001s94.167 45 151.5 45c65.333 0 119.333 -20.5 162 -61.5s60.334 -94.167 53.001 -159.5c-4 -53.333 -25 -98 -63 -134s-90 -55.333 -156 -58c-68 -2.66699 -124.667 17 -170 59
c-47.333 43.333 -65.666 104.666 -54.999 183.999zM579.998 1649c0 -23.333 7.83398 -42.166 23.501 -56.499s34.167 -20.833 55.5 -19.5c20.667 0 38.167 6.16699 52.5 18.5s22.166 29.166 23.499 50.499c0 23.333 -7.5 41.833 -22.5 55.5s-33.5 20.5 -55.5 20.5
c-22 1.33301 -40 -4 -54 -16s-21.667 -29.667 -23 -53zM871.999 1249c38 -88.667 70.333 -188.999 97 -300.999c4 -24.667 13.333 -63.667 28 -117c6.66699 -28.667 18.667 -76.334 36 -143.001l40 -156c31.333 -138 51.333 -231.333 60 -280
c10.667 -72.667 7 -125.334 -11 -158.001c-18 -34 -48 -55 -90 -63c-58.667 -15.333 -107 -12.666 -145 8.00098c-42 20.667 -74 61 -96 121c-10.667 28.667 -19 59.334 -25 92.001c-1.33301 2.66699 -2 6.66699 -2 12s-0.666992 10.333 -2 15h-326h-26
c0 -1.33301 -0.666992 -3 -2 -5c-20.667 -75.333 -42.667 -132 -66 -170c-28.667 -49.333 -69.667 -74.333 -123 -75c-44 0 -79.5 7.5 -106.5 22.5s-44.333 35.5 -52 61.5s-10.834 52.167 -9.50098 78.5s7 55.5 17 87.5c28.667 98 70.334 228.333 125.001 391l141 397
c45.333 121.333 82 200 110 236c39.333 48 88 73.667 146 77c24.667 2.66699 48.667 2.66699 72 0c104.667 -6.66699 174.667 -50.334 210 -131.001zM710.999 522.002c-27.333 120 -49.335 224 -66.002 312c-23.333 122.667 -35.666 192 -36.999 208
c-5.33301 -28.667 -8.66602 -45 -9.99902 -49c-5.33301 -22 -11.333 -50 -18 -84c-16.667 -69.333 -34 -136.666 -52 -201.999l-24 -93c-6.66699 -20.667 -15.667 -51.334 -27 -92.001h234z" />
    <glyph glyph-name="AE" unicode="&#xc6;" horiz-adv-x="1591" 
d="M967 23c-18 9.33301 -37.3369 17.333 -58.0039 24c-52 19.333 -97 56.333 -135 111c-19.333 27.333 -36.333 67.666 -51 120.999h-313c0 -1.33301 -0.666992 -3 -2 -5c-20.667 -75.333 -42.667 -132 -66 -170c-28.667 -49.333 -69.667 -74.333 -123 -75
c-44 0 -79.5 7.5 -106.5 22.5s-44.333 35.5 -52 61.5s-10.834 52.167 -9.50098 78.5s7 55.5 17 87.5c28.667 98 70.334 228.333 125.001 391l141 397c45.333 121.333 82 200 110 236c39.333 48 88 73.667 146 77c24.667 2.66699 48.667 2.66699 72 0
c105.333 -6.66699 175.333 -50.334 210 -131.001c2.66699 -8 6.33398 -15.333 11.001 -22c-1.33301 0 -2 -0.666992 -2 -2h2v2c65.333 45.333 172.333 71.333 321 78c142 6.66699 238.333 -18.666 289 -75.999c31.333 -36.667 38 -79 20 -127
c-19.333 -52 -55.333 -85.667 -108 -101c-24.667 -9.33301 -84 -19.333 -178 -30c-69.333 -6.66699 -111.666 -20.334 -126.999 -41.001c-16.667 -19.333 -25 -61.666 -25 -126.999c132.667 18 221.334 11.667 266.001 -19c34 -20.667 50 -56 48 -106
c0 -45.333 -16.667 -81 -50 -107c-20.667 -18 -65.667 -29.333 -135 -34c-18 -1.33301 -41.667 -3.66602 -71 -6.99902c-5.33301 0 -11.833 -0.333008 -19.5 -1s-13.5 -1.33398 -17.5 -2.00098s-7.66699 -1 -11 -1l31 -129c32.667 -42 105.667 -55.667 219 -41
c92.667 10.667 151.334 14.334 176.001 11.001c48 -10.667 72.667 -47 74 -109c1.33301 -86 -39 -152.333 -121 -199c-75.333 -40.667 -169.333 -61 -282 -61c-87.333 0 -159 8.33301 -215 25zM710.996 522c-27.333 120 -49.335 223.999 -66.002 311.999
c-23.333 122.667 -35.666 192 -36.999 208c-5.33301 -28.667 -8.66602 -45 -9.99902 -49c-5.33301 -22 -11.333 -50 -18 -84c-16.667 -69.333 -34 -136.666 -52 -201.999l-51 -185h234z" />
    <glyph glyph-name="Ccedilla" unicode="&#xc7;" horiz-adv-x="991" 
d="M31 666c2.66699 181.333 55.666 333.335 158.999 456.002c108 131.333 253.667 193 437 185c57.333 0 105 -11.667 143 -35c40.667 -26 65.334 -65.667 74.001 -119c8 -69.333 -12 -118.333 -60 -147c-38 -20.667 -82.333 -35.667 -133 -45
c-56 -12 -92.667 -23.667 -110 -35c-61.333 -36.667 -93.666 -118 -96.999 -244c0 -49.333 5 -93.666 15 -132.999c9.33301 -52 23.666 -87.667 42.999 -107c36.667 -38 106.334 -60.333 209.001 -67c69.333 -2.66699 118.333 -7.66699 147 -15
c45.333 -10.667 75.333 -40 90 -88c26 -87.333 8.33301 -152.666 -53 -195.999c-57.333 -42 -141.333 -64.667 -252 -68h-35c0 -19.333 -0.666992 -33 -2 -41c-2.66699 -12 -2 -18 2 -18c82 19.333 144.5 11.166 187.5 -24.501s62.5 -95.834 58.5 -180.501
c-5.33301 -72.667 -48.333 -122.667 -129 -150c-54.667 -20.667 -128.334 -30.667 -221.001 -30c-60 0 -99 13.667 -117 41c-15.333 22 -19.333 54 -12 96c1.33301 32.667 23.666 51.667 66.999 57c16.667 2.66699 35.334 2.66699 56.001 0c27.333 -2.66699 47 -4 59 -4
c13.333 0 27 1.33301 41 4c16.667 4 25 14.333 25 31c-1.33301 4 -2 12.333 -2 25c0 15.333 -16.667 22.666 -50 21.999h-45c-45.333 -2.66699 -72 5.66602 -80 24.999c-9.33301 23.333 -12 60 -8 110c0 6.66699 0.333008 16.167 1 28.5s1.66699 21.5 3 27.5
c-138 32.667 -242 105 -312 217s-103 252.667 -99 422z" />
    <glyph glyph-name="Egrave" unicode="&#xc8;" 
d="M401 1716c38 -42 71.667 -84.333 101 -127c44 -68 70.667 -124.667 80 -170c9.33301 -57.333 -12 -89.333 -64 -96c-44 -6.66699 -108.667 33 -194 119c-87.333 87.333 -129.666 160.333 -126.999 219c1.33301 45.333 28.666 74 81.999 86c51.333 9.33301 92 -1 122 -31z
M82 971c22 106.667 68.999 181.669 140.999 225.002c61.333 38 163 60.5 305 67.5s238.333 -18.167 289 -75.5c31.333 -36.667 38.333 -79 21 -127c-19.333 -52 -55.666 -85.333 -108.999 -100c-24.667 -9.33301 -84 -19.666 -178 -30.999
c-69.333 -6.66699 -111.666 -20.334 -126.999 -41.001c-16.667 -19.333 -25 -61.666 -25 -126.999c132.667 18 221.667 11.667 267 -19c34 -20.667 49.667 -56 47 -106c0 -45.333 -16.333 -81 -49 -107c-24.667 -19.333 -72 -31.333 -142 -36
c-35.333 -2.66699 -59.666 -4.33398 -72.999 -5.00098c-26 -2.66699 -39.667 -4 -41 -4c1.33301 -80.667 21.666 -132.334 60.999 -155.001c34 -20.667 97.5 -25.5 190.5 -14.5s151.833 14.5 176.5 10.5c48 -10.667 72.333 -47 73 -109c1.33301 -86 -39 -152.333 -121 -199
c-75.333 -40.667 -169.333 -61 -282 -61c-116 -1.33301 -207.5 14.667 -274.5 48s-114.167 91 -141.5 173c-32.667 101.333 -47.667 238.666 -45 411.999c1.33301 143.333 13.666 270.333 36.999 381z" />
    <glyph glyph-name="Eacute" unicode="&#xc9;" 
d="M614 1757c27.333 31.333 68.332 41.667 122.999 31c53.333 -12 80.666 -40.667 81.999 -86c2.66699 -58.667 -39.666 -131.667 -126.999 -219c-86 -86 -150.667 -125.667 -194 -119c-52 6.66699 -72.667 38.667 -62 96c6.66699 40.667 33.334 97.334 80.001 170.001
c38 57.333 70.667 99.666 98 126.999zM81.999 971.001c22 106.667 68.999 181.669 140.999 225.002c61.333 38 163 60.5 305 67.5s238.333 -18.167 289 -75.5c31.333 -36.667 38.333 -79 21 -127c-19.333 -52 -55.666 -85.333 -108.999 -100
c-24.667 -9.33301 -84 -19.666 -178 -30.999c-69.333 -6.66699 -111.666 -20.334 -126.999 -41.001c-16.667 -19.333 -25 -61.666 -25 -126.999c132.667 18 221.667 11.667 267 -19c34 -20.667 49.667 -56 47 -106c0 -45.333 -16.333 -81 -49 -107
c-24.667 -19.333 -72 -31.333 -142 -36c-35.333 -2.66699 -59.666 -4.33398 -72.999 -5.00098c-26 -2.66699 -39.667 -4 -41 -4c1.33301 -80.667 21.666 -132.334 60.999 -155.001c34 -20.667 97.5 -25.5 190.5 -14.5s151.833 14.5 176.5 10.5
c48 -10.667 72.333 -47 73 -109c1.33301 -86 -39 -152.333 -121 -199c-75.333 -40.667 -169.333 -61 -282 -61c-116 -1.33301 -207.5 14.667 -274.5 48s-114.167 91 -141.5 173c-32.667 101.333 -47.667 238.666 -45 411.999c1.33301 143.333 13.666 270.333 36.999 381z
" />
    <glyph glyph-name="Ecircumflex" unicode="&#xca;" 
d="M252 1552c66.667 94 134.999 143.334 204.999 148.001c74 4 147 -45.333 219 -148c44 -57.333 69.333 -118 76 -182c2.66699 -19.333 -5 -32.333 -23 -39c-16.667 -9.33301 -47.834 -14 -93.501 -14s-70.5 9.66699 -74.5 29c-2.66699 15.333 -13.667 44 -33 86
c-23.333 45.333 -44.333 71 -63 77c-19.333 -6.66699 -40.666 -32.334 -63.999 -77.001c-20.667 -38 -32 -66.667 -34 -86c-4 -19.333 -28.667 -29 -74 -29s-76 4.66699 -92 14c-19.333 6.66699 -27.666 19.667 -24.999 39c6.66699 64 32 124.667 76 182zM81.999 971.001
c22 106.667 68.999 181.669 140.999 225.002c61.333 38 163 60.5 305 67.5s238.333 -18.167 289 -75.5c31.333 -36.667 38.333 -79 21 -127c-19.333 -52 -55.666 -85.333 -108.999 -100c-24.667 -9.33301 -84 -19.666 -178 -30.999
c-69.333 -6.66699 -111.666 -20.334 -126.999 -41.001c-16.667 -19.333 -25 -61.666 -25 -126.999c132.667 18 221.667 11.667 267 -19c34 -20.667 49.667 -56 47 -106c0 -45.333 -16.333 -81 -49 -107c-24.667 -19.333 -72 -31.333 -142 -36
c-35.333 -2.66699 -59.666 -4.33398 -72.999 -5.00098c-26 -2.66699 -39.667 -4 -41 -4c1.33301 -80.667 21.666 -132.334 60.999 -155.001c34 -20.667 97.5 -25.5 190.5 -14.5s151.833 14.5 176.5 10.5c48 -10.667 72.333 -47 73 -109c1.33301 -86 -39 -152.333 -121 -199
c-75.333 -40.667 -169.333 -61 -282 -61c-116 -1.33301 -207.5 14.667 -274.5 48s-114.167 91 -141.5 173c-32.667 101.333 -47.667 238.666 -45 411.999c1.33301 143.333 13.666 270.333 36.999 381z" />
    <glyph glyph-name="Edieresis" unicode="&#xcb;" 
d="M86 1509c6.66699 38 25.333 67.668 56 89.001s66 32 106 32c45.333 0 83.333 -13.667 114 -41c32.667 -32.667 45.667 -71.334 39 -116.001c-2.66699 -36.667 -17.334 -68.167 -44.001 -94.5s-63.667 -40.166 -111 -41.499
c-49.333 -2.66699 -89.666 11.666 -120.999 42.999c-35.333 28.667 -48.333 71.667 -39 129zM507.999 1503c6.66699 38 25.333 67.668 56 89.001s66 32 106 32c45.333 0 83.333 -13.667 114 -41c32.667 -32.667 45.667 -71.667 39 -117
c-2.66699 -36.667 -17.334 -68 -44.001 -94s-63.667 -39.667 -111 -41c-49.333 -2.66699 -89.666 11.666 -120.999 42.999c-35.333 28.667 -48.333 71.667 -39 129zM81.998 971.002c22 106.667 68.999 181.669 140.999 225.002c61.333 38 163 60.5 305 67.5
s238.333 -18.167 289 -75.5c31.333 -36.667 38.333 -79 21 -127c-19.333 -52 -55.666 -85.333 -108.999 -100c-24.667 -9.33301 -84 -19.666 -178 -30.999c-69.333 -6.66699 -111.666 -20.334 -126.999 -41.001c-16.667 -19.333 -25 -61.666 -25 -126.999
c132.667 18 221.667 11.667 267 -19c34 -20.667 49.667 -56 47 -106c0 -45.333 -16.333 -81 -49 -107c-24.667 -19.333 -72 -31.333 -142 -36c-35.333 -2.66699 -59.666 -4.33398 -72.999 -5.00098c-26 -2.66699 -39.667 -4 -41 -4
c1.33301 -80.667 21.666 -132.334 60.999 -155.001c34 -20.667 97.5 -25.5 190.5 -14.5s151.833 14.5 176.5 10.5c48 -10.667 72.333 -47 73 -109c1.33301 -86 -39 -152.333 -121 -199c-75.333 -40.667 -169.333 -61 -282 -61c-116 -1.33301 -207.5 14.667 -274.5 48
s-114.167 91 -141.5 173c-32.667 101.333 -47.667 238.666 -45 411.999c1.33301 143.333 13.666 270.333 36.999 381z" />
    <glyph glyph-name="Igrave" unicode="&#xcc;" horiz-adv-x="452" 
d="M121 1690c31.333 -31.333 64.668 -73.668 100.001 -127.001c44 -68 70.667 -124.667 80 -170c9.33301 -57.333 -11.667 -89.666 -63 -96.999c-44 -6.66699 -109 33 -195 119s-128.333 159 -127 219c1.33301 45.333 28.666 74 81.999 86c52 10 93 0 123 -30zM59.002 1055
c4 64 20.499 109.663 49.499 136.996s70.5 41 124.5 41c58.667 0 102.834 -12 132.501 -36s43.834 -59 42.501 -105v-31v-72c-2.66699 -76.667 -4.33398 -142.667 -5.00098 -198c-1.33301 -92.667 -1.33301 -185 0 -277c0 -124 -0.666992 -217.667 -2 -281
c0 -101.333 -4.66699 -167.333 -14 -198c-20.667 -60 -72.667 -92.667 -156 -98c-62.667 -5.33301 -108.334 12.334 -137.001 53.001c-24.667 32.667 -37 78.334 -37 137.001c-4 248.667 -5.33301 416.667 -4 504c2.66699 106.667 4 182.334 4 227.001
c-1.33301 50.667 -0.666016 116.334 2.00098 197.001z" />
    <glyph glyph-name="Iacute" unicode="&#xcd;" horiz-adv-x="452" 
d="M348 1737c27.333 31.333 68.332 41.333 122.999 30c53.333 -12 80.666 -40.667 81.999 -86c2.66699 -58.667 -39.666 -131.667 -126.999 -219c-86 -86 -151 -125.667 -195 -119c-52 6.66699 -72.333 39 -61 97c6.66699 40.667 33.334 97.334 80.001 170.001
c38 57.333 70.667 99.666 98 126.999zM58.999 1055c4 64 20.499 109.663 49.499 136.996s70.5 41 124.5 41c58.667 0 102.834 -12 132.501 -36s43.834 -59 42.501 -105v-31v-72c-2.66699 -76.667 -4.33398 -142.667 -5.00098 -198c-1.33301 -92.667 -1.33301 -185 0 -277
c0 -124 -0.666992 -217.667 -2 -281c0 -101.333 -4.66699 -167.333 -14 -198c-20.667 -60 -72.667 -92.667 -156 -98c-62.667 -5.33301 -108.334 12.334 -137.001 53.001c-24.667 32.667 -37 78.334 -37 137.001c-4 248.667 -5.33301 416.667 -4 504
c2.66699 106.667 4 182.334 4 227.001c-1.33301 50.667 -0.666016 116.334 2.00098 197.001z" />
    <glyph glyph-name="Icircumflex" unicode="&#xce;" horiz-adv-x="452" 
d="M31 1526c66.667 94 134.999 142.998 204.999 146.998c74 4 147 -45 219 -147c44 -57.333 69 -118.333 75 -183c2.66699 -19.333 -4.66602 -32 -21.999 -38c-16.667 -9.33301 -47.834 -14.166 -93.501 -14.499s-70.5 9.16699 -74.5 28.5
c-2.66699 15.333 -13.667 44 -33 86c-23.333 45.333 -44.333 71.333 -63 78c-19.333 -6.66699 -40.666 -32.667 -63.999 -78c-20.667 -38 -32.334 -66.667 -35.001 -86c-4 -19.333 -28.5 -29 -73.5 -29s-75.5 5 -91.5 15c-19.333 6.66699 -27.666 19.334 -24.999 38.001
c6.66699 64.667 32 125.667 76 183zM58.999 1055c4 64 20.499 109.663 49.499 136.996s70.5 41 124.5 41c58.667 0 102.834 -12 132.501 -36s43.834 -59 42.501 -105v-31v-72c-2.66699 -76.667 -4.33398 -142.667 -5.00098 -198c-1.33301 -92.667 -1.33301 -185 0 -277
c0 -124 -0.666992 -217.667 -2 -281c0 -101.333 -4.66699 -167.333 -14 -198c-20.667 -60 -72.667 -92.667 -156 -98c-62.667 -5.33301 -108.334 12.334 -137.001 53.001c-24.667 32.667 -37 78.334 -37 137.001c-4 248.667 -5.33301 416.667 -4 504
c2.66699 106.667 4 182.334 4 227.001c-1.33301 50.667 -0.666016 116.334 2.00098 197.001z" />
    <glyph glyph-name="Idieresis" unicode="&#xcf;" horiz-adv-x="452" 
d="M-123 1462c6.66699 38 25.501 67.668 56.501 89.001s66.167 32 105.5 32c45.333 0 83.666 -13.667 114.999 -41c32.667 -32.667 45.667 -71.667 39 -117c-2.66699 -36.667 -17.334 -68 -44.001 -94s-64 -39.667 -112 -41
c-49.333 -2.66699 -89.666 11.666 -120.999 42.999c-35.333 28.667 -48.333 71.667 -39 129zM299.001 1456c6.66699 38 25.333 67.668 56 89.001s66 32 106 32c45.333 0 83.333 -13.667 114 -41c32.667 -32.667 45.667 -71.667 39 -117
c-2.66699 -36.667 -17.334 -68 -44.001 -94s-63.667 -39.667 -111 -41c-49.333 -2.66699 -89.666 11.666 -120.999 42.999c-35.333 28.667 -48.333 71.667 -39 129zM59 1055c4 64 20.499 109.663 49.499 136.996s70.5 41 124.5 41c58.667 0 102.834 -12 132.501 -36
s43.834 -59 42.501 -105v-31v-72c-2.66699 -76.667 -4.33398 -142.667 -5.00098 -198c-1.33301 -92.667 -1.33301 -185 0 -277c0 -124 -0.666992 -217.667 -2 -281c0 -101.333 -4.66699 -167.333 -14 -198c-20.667 -60 -72.667 -92.667 -156 -98
c-62.667 -5.33301 -108.334 12.334 -137.001 53.001c-24.667 32.667 -37 78.334 -37 137.001c-4 248.667 -5.33301 416.667 -4 504c2.66699 106.667 4 182.334 4 227.001c-1.33301 50.667 -0.666016 116.334 2.00098 197.001z" />
    <glyph glyph-name="Eth" unicode="&#xd0;" horiz-adv-x="993" 
d="M496 -45c-96.667 -4 -170.666 -4.00293 -221.999 -0.00292969c-101.333 9.33301 -162.666 40 -183.999 92c-23.333 58.667 -36.333 173.334 -39 344.001c-1.33301 6.66699 -2 20.334 -2 41.001v51l-2 4h-31h-51c-48 -2.66699 -84.667 11 -110 41
c-15.333 16.667 -24 41.334 -26 74.001s3 58 15 76c23.333 32.667 59.666 49.667 108.999 51h98l4 6c1.33301 27.333 3 65.666 5 114.999s3 80.666 3 93.999c1.33301 53.333 4.33301 94.333 9 123c16.667 104 56 164.667 118 182c68 18 161.667 25.667 281 23
c172 -8 296.333 -51.667 373 -131c49.333 -49.333 86.666 -119.666 111.999 -210.999c24.667 -86 37 -180.333 37 -283c0 -113.333 -15.667 -221.666 -47 -324.999c-39.333 -122.667 -98 -213.667 -176 -273c-72 -56 -163.333 -87.333 -274 -94zM596.001 597.997
c-1.33301 -42 -16.001 -73.002 -44.001 -93.002s-63.333 -28.667 -106 -26c-8 0 -14 0.666992 -18 2h-20l-7 -10l-8 -197c24.667 -2.66699 43.334 -4 56.001 -4c39.333 0 75.333 9.66699 108 29c31.333 19.333 54 50 68 92c18 56 26.667 140.667 26 254
c0 128.667 -23.667 216.667 -71 264c-36.667 36.667 -94.667 52.334 -174 47.001c-2.66699 -45.333 -2.66699 -85.333 0 -120v-107v-2h47c60 -1.33301 102.333 -19.666 127 -54.999c10.667 -18 16 -42.667 16 -74z" />
    <glyph glyph-name="Ntilde" unicode="&#xd1;" horiz-adv-x="1060" 
d="M295 1372c-1.33301 -1.33301 -6 -11.6641 -14 -30.9971l-13 -28c-15.333 -31.333 -40.333 -52 -75 -62c-22 -5.33301 -46.667 -4.5 -74 2.5s-46 18.5 -56 34.5c-20.667 31.333 -25.334 67 -14.001 107c2.66699 15.333 4.66699 23.333 6 24l6 21
c8 30 21.667 64.667 41 104c24.667 50.667 55.667 82.667 93 96c36.667 15.333 73.334 23 110.001 23h21l51 -12c10.667 -2.66699 28.334 -6.83398 53.001 -12.501s43.667 -10.5 57 -14.5l117 -27c10.667 -2.66699 20.5 -5.33398 29.5 -8.00098s17 -4.66699 24 -6
s11.167 -2 12.5 -2c6.66699 -1.33301 14.167 3.16699 22.5 13.5s16.5 23.5 24.5 39.5c4 9.33301 10 22.333 18 39c4 12 6.66699 18.333 8 19c2.66699 2.66699 5 7.33398 7 14.001c5.33301 22 22.333 37 51 45c15.333 5.33301 36.833 6.66602 64.5 3.99902
s47.834 -9.33398 60.501 -20.001c27.333 -24.667 41 -55.667 41 -93c-10.667 -57.333 -27 -111.666 -49 -162.999c-31.333 -69.333 -72.333 -111 -123 -125c-28.667 -8 -56 -12.333 -82 -13c-27.333 0 -50 2.33301 -68 7c-12 2.66699 -21.667 4.66699 -29 6l-30 8
c-42 10.667 -66.667 17.334 -74 20.001c-13.333 2.66699 -31.333 7.16699 -54 13.5s-40.834 11.166 -54.501 14.499s-23.834 5.66602 -30.501 6.99902c-19.333 4 -38 -1.33301 -56 -16c-8 -8 -13.333 -14.333 -16 -19zM690 596.002
c-1.33301 39.333 -5.33008 88.335 -11.9971 147.002c-10.667 130 -15.334 246.333 -14.001 349c2.66699 54.667 8.66699 97 18 127c16.667 42 54.334 67.667 113.001 77c61.333 6.66699 115.666 -9.66602 162.999 -48.999c18 -13.333 31.167 -37.5 39.5 -72.5
s13.166 -66.833 14.499 -95.5s2.66602 -76.334 3.99902 -143.001c1.33301 -84.667 0.666016 -214.334 -2.00098 -389.001c0 -20.667 -0.333008 -51.167 -1 -91.5s-1.66699 -69.833 -3 -88.5c0 -10.667 -0.333008 -32.5 -1 -65.5s-1.66699 -56.333 -3 -70
s-3.83301 -32.834 -7.5 -57.501s-9.83398 -46.167 -18.501 -64.5s-20 -35.833 -34 -52.5c-36.667 -44 -85.667 -64.333 -147 -61c-46.667 0 -91.667 24 -135 72c-30 31.333 -65 86.333 -105 165c-23.333 44 -56.666 111.667 -99.999 203c-42 84.667 -73.333 140.667 -94 168
c1.33301 -9.33301 2.33301 -23.666 3 -42.999s1 -33.666 1 -42.999c0 -44 0.666992 -77.333 2 -100c1.33301 -10.667 2 -27.667 2 -51s0.666992 -41.333 2 -54c2.66699 -46.667 4.66699 -80 6 -100c2.66699 -76.667 -4.33301 -130 -21 -160c-22 -44 -61.333 -65 -118 -63
c-42 1.33301 -75.5 11.5 -100.5 30.5s-43.5 52.5 -55.5 100.5c-9.33301 39.333 -17.666 102.666 -24.999 189.999c-5.33301 56 -9.33301 146.333 -12 271c-6.66699 204.667 1 350 23 436c22 95.333 65 145.666 129 150.999c50.667 2.66699 84.667 0 102 -8
c22 -9.33301 51.333 -36 88 -80c52 -66.667 107.333 -150.667 166 -252l74 -131c13.333 -26 33 -60 59 -102z" />
    <glyph glyph-name="Ograve" unicode="&#xd2;" horiz-adv-x="1214" 
d="M489 1739c38 -42 71.668 -84.332 101.001 -126.999c44 -68 70.667 -124.667 80 -170c9.33301 -57.333 -12 -89.333 -64 -96c-44 -6.66699 -108.667 32.666 -194 117.999c-86 87.333 -128.333 160.333 -127 219c1.33301 45.333 28.666 74 81.999 86
c51.333 10 92 0 122 -30zM39.001 594.001c1.33301 192.667 58.667 354.332 172 484.999c108 124 243 189.667 405 197c170.667 5.33301 309.334 -52.667 416.001 -174c102.667 -120 152.667 -285.333 150 -496c-6.66699 -198 -60 -357.667 -160 -479
c-102.667 -121.333 -234.334 -184.666 -395.001 -189.999c-173.333 -6.66699 -314.666 51.333 -423.999 174c-114.667 124 -169.334 285 -164.001 483zM602.002 226.999c68 -4 120.17 25.834 156.503 89.501s55.166 154.167 56.499 271.5c0 112 -13 200 -39 264
c-36.667 83.333 -93.334 121.666 -170.001 114.999c-136.667 -15.333 -206.334 -139 -209.001 -371c0 -96.667 14.333 -176.667 43 -240c34 -80.667 88 -123.667 162 -129z" />
    <glyph glyph-name="Oacute" unicode="&#xd3;" horiz-adv-x="1214" 
d="M762 1759c27.333 31.333 68.332 41.667 122.999 31c53.333 -12 80.666 -40.667 81.999 -86c2.66699 -58.667 -39.666 -131.667 -126.999 -219c-86 -86 -151 -125.667 -195 -119c-52 6.66699 -72.333 38.667 -61 96c6.66699 40.667 33.334 97.334 80.001 170.001
c38 57.333 70.667 99.666 98 126.999zM38.999 594.001c1.33301 192.667 58.667 354.332 172 484.999c108 124 243 189.667 405 197c170.667 5.33301 309.334 -52.667 416.001 -174c102.667 -120 152.667 -285.333 150 -496c-6.66699 -198 -60 -357.667 -160 -479
c-102.667 -121.333 -234.334 -184.666 -395.001 -189.999c-173.333 -6.66699 -314.666 51.333 -423.999 174c-114.667 124 -169.334 285 -164.001 483zM602 226.999c68 -4 120.17 25.834 156.503 89.501s55.166 154.167 56.499 271.5c0 112 -13 200 -39 264
c-36.667 83.333 -93.334 121.666 -170.001 114.999c-136.667 -15.333 -206.334 -139 -209.001 -371c0 -96.667 14.333 -176.667 43 -240c34 -80.667 88 -123.667 162 -129z" />
    <glyph glyph-name="Ocircumflex" unicode="&#xd4;" horiz-adv-x="1214" 
d="M401 1579c66.667 94 135 142.999 205 146.999c74 4 147 -45 219 -147c44 -57.333 69.333 -118 76 -182c2.66699 -19.333 -4.66602 -32.333 -21.999 -39c-16.667 -9.33301 -47.834 -14.166 -93.501 -14.499s-70.5 9.16699 -74.5 28.5c-2.66699 15.333 -13.667 44 -33 86
c-23.333 45.333 -44.666 71.333 -63.999 78c-19.333 -6.66699 -40.333 -32.667 -63 -78c-20.667 -38 -32.334 -66.667 -35.001 -86c-4 -19.333 -28.5 -29 -73.5 -29s-75.833 5 -92.5 15c-19.333 6.66699 -27.333 19.667 -24 39c6 64 31 124.667 75 182zM39 593.999
c1.33301 192.667 58.667 354.332 172 484.999c108 124 243 189.667 405 197c170.667 5.33301 309.334 -52.667 416.001 -174c102.667 -120 152.667 -285.333 150 -496c-6.66699 -198 -60 -357.667 -160 -479c-102.667 -121.333 -234.334 -184.666 -395.001 -189.999
c-173.333 -6.66699 -314.666 51.333 -423.999 174c-114.667 124 -169.334 285 -164.001 483zM602.001 226.997c68 -4 120.17 25.834 156.503 89.501s55.166 154.167 56.499 271.5c0 112 -13 200 -39 264c-36.667 83.333 -93.334 121.666 -170.001 114.999
c-136.667 -15.333 -206.334 -139 -209.001 -371c0 -96.667 14.333 -176.667 43 -240c34 -80.667 88 -123.667 162 -129z" />
    <glyph glyph-name="Otilde" unicode="&#xd5;" horiz-adv-x="1214" 
d="M393 1427c-2.66699 -2.66699 -4.66992 -5.33789 -6.00293 -8.00488c-6.66699 -8 -17 -23 -31 -45c-20.667 -24.667 -50 -39 -88 -43c-22 -2.66699 -45.833 1.83301 -71.5 13.5s-42.167 26.5 -49.5 44.5c-13.333 38 -11 74.667 7 110c5.33301 13.333 9.33301 20.333 12 21
c1.33301 0 4.66602 6 9.99902 18c10.667 24.667 31.334 56.667 62.001 96c34 44 70 70 108 78c38 6.66699 75.667 6 113 -2c9.33301 -1.33301 16 -2.66602 20 -3.99902l23 -10c15.333 -5.33301 33.666 -13.666 54.999 -24.999c6.66699 -2.66699 18.167 -7.66699 34.5 -15
l39.5 -18c48 -22 73.333 -33.333 76 -34c6.66699 -2.66699 16.834 -7.5 30.501 -14.5s23.834 -11.833 30.501 -14.5c19.333 -9.33301 31 -14.333 35 -15s12 3 24 11c20.667 16.667 39.334 39 56.001 67c6.66699 10.667 10.667 16.167 12 16.5s4 4.5 8 12.5
c6.66699 18 26 29.667 58 35c18 2.66699 40.167 -0.166016 66.5 -8.49902s44.833 -19.166 55.5 -32.499c22 -27.333 29 -60 21 -98c-15.333 -49.333 -42 -100 -80 -152c-45.333 -60 -93 -92.667 -143 -98c-53.333 -5.33301 -103.333 2.66699 -150 24
c-12 4 -20.667 7.66699 -26 11l-29 14c-6.66699 2.66699 -17.5 7.83398 -32.5 15.501s-26.833 13.5 -35.5 17.5c-18 8 -43.333 20.333 -76 37c-27.333 9.33301 -45.666 17.333 -54.999 24c-18 8 -37 6.66699 -57 -4c-10.667 -8 -17 -12.667 -19 -14
c-5.33301 -6 -8 -9.66699 -8 -11zM38.9971 593.996c1.33301 192.667 58.667 354.332 172 484.999c108 124 243 189.667 405 197c170.667 5.33301 309.334 -52.667 416.001 -174c102.667 -120 152.667 -285.333 150 -496c-6.66699 -198 -60 -357.667 -160 -479
c-102.667 -121.333 -234.334 -184.666 -395.001 -189.999c-173.333 -6.66699 -314.666 51.333 -423.999 174c-114.667 124 -169.334 285 -164.001 483zM601.998 226.994c68 -4 120.17 25.834 156.503 89.501s55.166 154.167 56.499 271.5c0 112 -13 200 -39 264
c-36.667 83.333 -93.334 121.666 -170.001 114.999c-136.667 -15.333 -206.334 -139 -209.001 -371c0 -96.667 14.333 -176.667 43 -240c34 -80.667 88 -123.667 162 -129z" />
    <glyph glyph-name="Odieresis" unicode="&#xd6;" horiz-adv-x="1214" 
d="M188 1548c6.66699 38 25.501 67.668 56.501 89.001s66.167 32 105.5 32c45.333 0 83.666 -13.667 114.999 -41c32.667 -32.667 45.667 -71.667 39 -117c-2.66699 -36.667 -17.334 -68 -44.001 -94s-64 -39.667 -112 -41c-49.333 -2.66699 -89.666 11.666 -120.999 42.999
c-35.333 28.667 -48.333 71.667 -39 129zM610.001 1542c6.66699 38 25.501 67.668 56.501 89.001s66.167 32 105.5 32c45.333 0 83.666 -13.667 114.999 -41c32.667 -32.667 45.667 -71.667 39 -117c-2.66699 -36.667 -17.334 -68 -44.001 -94s-64 -39.667 -112 -41
c-49.333 -2.66699 -89.666 11.666 -120.999 42.999c-35.333 28.667 -48.333 71.667 -39 129zM39.002 594.002c1.33301 192.667 58.667 354.332 172 484.999c108 124 243 189.667 405 197c170.667 5.33301 309.334 -52.667 416.001 -174
c102.667 -120 152.667 -285.333 150 -496c-6.66699 -198 -60 -357.667 -160 -479c-102.667 -121.333 -234.334 -184.666 -395.001 -189.999c-173.333 -6.66699 -314.666 51.333 -423.999 174c-114.667 124 -169.334 285 -164.001 483zM602.003 227
c68 -4 120.17 25.834 156.503 89.501s55.166 154.167 56.499 271.5c0 112 -13 200 -39 264c-36.667 83.333 -93.334 121.666 -170.001 114.999c-136.667 -15.333 -206.334 -139 -209.001 -371c0 -96.667 14.333 -176.667 43 -240c34 -80.667 88 -123.667 162 -129z" />
    <glyph glyph-name="multiply" unicode="&#xd7;" horiz-adv-x="972" 
d="M217 870c68 72.667 136.994 71.335 206.994 -3.99805c1.33301 -1.33301 5 -4.66602 11 -9.99902l16 -14l38 -39l41 41l60 65c34 39.333 71.333 57.333 112 54c23.333 -2.66699 50 -16.334 80 -41.001s48 -48 54 -70c10.667 -46.667 0.333984 -88.334 -30.999 -125.001
l-111 -119l28.5 -27.5c12.333 -11.667 20.833 -19.5 25.5 -23.5c13.333 -13.333 24 -23 32 -29c5.33301 -5.33301 19 -17.333 41 -36c35.333 -31.333 52.333 -68.333 51 -111c-1.33301 -24.667 -14.166 -51.667 -38.499 -81s-48.166 -47.333 -71.499 -54
c-46.667 -12 -87.667 -2 -123 30l-137 125l-80 -88c-45.333 -45.333 -90.333 -63 -135 -53c-13.333 2.66699 -39.333 17.667 -78 45c-35.333 38 -51.666 74.167 -48.999 108.5s20.334 67.166 53.001 98.499c10.667 12 37.334 39.333 80.001 82l-70 65c-48 44 -65 90 -51 138
c5.33301 24 20.333 48.333 45 73z" />
    <glyph glyph-name="Oslash" unicode="&#xd8;" horiz-adv-x="1214" 
d="M39 594c1.33301 192.667 58.665 354.331 171.998 484.998c108 124 243 189.667 405 197c46.667 0 87 -2.66699 121 -8l54 118c50.667 106.667 126.334 140.334 227.001 101.001c112 -44 148.667 -109 110 -195l-92 -200c102.667 -124 151.334 -286 146.001 -486
c-6.66699 -198 -60 -357.667 -160 -479c-102.667 -121.333 -234.334 -184.666 -395.001 -189.999c-52 0 -89.667 2 -113 6c-1.33301 0 -2 -1.33301 -2 -4l-20.5 -48c-9.66699 -22.667 -16.5 -39.667 -20.5 -51c-26 -68 -64.333 -109.667 -115 -125
c-27.333 -8 -60.333 -5.83301 -99 6.5s-67 27.5 -85 45.5c-32.667 32.667 -45 75 -37 127c4 34 17.667 76 41 126c2.66699 4 7.83398 15 15.501 33l19.5 45c-120 126 -177.333 291.333 -172 496zM304.999 597.997c0 -86 10.998 -161.666 32.998 -226.999l84 182l227 500
c-16.667 1.33301 -33.667 1.33301 -51 0c-91.333 -6.66699 -162.666 -49.334 -213.999 -128.001s-77.666 -187.667 -78.999 -327zM894.997 589.998c0 50.667 -2.66699 97.001 -8 139.001l-178 -360l-111 -217c92.667 -2.66699 165 35.166 217 113.499s78.667 186.5 80 324.5
z" />
    <glyph glyph-name="Ugrave" unicode="&#xd9;" horiz-adv-x="1122" 
d="M471 1673c38 -42 71.333 -84.333 100 -127c44 -68 70.667 -124.667 80 -170c9.33301 -57.333 -11.667 -89.333 -63 -96c-44 -6.66699 -109 33 -195 119c-87.333 87.333 -129.666 160.333 -126.999 219c1.33301 45.333 28.666 74 81.999 86c52 9.33301 93 -1 123 -31z
M707 336l-0.000976562 94c-2.66699 106.667 -4.33398 199 -5.00098 277c-1.33301 32.667 -2 79.667 -2 141c0 109.333 2.33301 177 7 203c8 62.667 22.833 106.334 44.5 131.001s59.167 39 112.5 43c56 5.33301 99 -7 129 -37c40.667 -36.667 62.667 -115.334 66 -236.001
c1.33301 -28.667 2 -76.334 2 -143.001v-160c-1.33301 -36.667 -2 -87 -2 -151c0 -188.667 -5 -314.334 -15 -377.001c-18 -118.667 -64.333 -181 -139 -187c-31.333 -1.33301 -64.666 7 -99.999 25l-37 18c-10.667 5.33301 -23.667 8.33301 -39 9c-8 0 -18.333 -3 -31 -9
c-50.667 -18 -95 -29.333 -133 -34c-26 -5.33301 -60.667 -6.66602 -104 -3.99902c-190 9.33301 -311 96 -363 260c-27.333 87.333 -42.333 199.333 -45 336c-1.33301 108 1.33398 214.333 8.00098 319c9.33301 147.333 22.333 241 39 281c26 61.333 81.333 92 166 92
c70.667 2.66699 118.667 -21.333 144 -72c15.333 -27.333 24 -78.666 26 -153.999c0 -12 -0.333008 -33.667 -1 -65s-1 -55.333 -1 -72c0 -8 -0.333008 -19.5 -1 -34.5s-1.66699 -26.5 -3 -34.5c-1.33301 -15.333 -2 -33.333 -2 -54v-71c-1.33301 -18 -2 -45.333 -2 -82
c0 -45.333 1.33301 -96.666 4 -153.999c8 -108 54.333 -162 139 -162c60.667 3.33301 106.667 24.666 138 63.999z" />
    <glyph glyph-name="Uacute" unicode="&#xda;" horiz-adv-x="1122" 
d="M692 1673c27.333 31.333 68.332 41.667 122.999 31c53.333 -12 80.666 -40.667 81.999 -86c2.66699 -58.667 -39.666 -131.667 -126.999 -219c-86 -86 -151 -125.667 -195 -119c-52 6.66699 -72.333 38.667 -61 96c6.66699 40.667 33.334 97.334 80.001 170.001
c38 57.333 70.667 99.666 98 126.999zM706.999 336.001l-0.000976562 94c-2.66699 106.667 -4.33398 199 -5.00098 277c-1.33301 32.667 -2 79.667 -2 141c0 109.333 2.33301 177 7 203c8 62.667 22.833 106.334 44.5 131.001s59.167 39 112.5 43c56 5.33301 99 -7 129 -37
c40.667 -36.667 62.667 -115.334 66 -236.001c1.33301 -28.667 2 -76.334 2 -143.001v-160c-1.33301 -36.667 -2 -87 -2 -151c0 -188.667 -5 -314.334 -15 -377.001c-18 -118.667 -64.333 -181 -139 -187c-31.333 -1.33301 -64.666 7 -99.999 25l-37 18
c-10.667 5.33301 -23.667 8.33301 -39 9c-8 0 -18.333 -3 -31 -9c-50.667 -18 -95 -29.333 -133 -34c-26 -5.33301 -60.667 -6.66602 -104 -3.99902c-190 9.33301 -311 96 -363 260c-27.333 87.333 -42.333 199.333 -45 336c-1.33301 108 1.33398 214.333 8.00098 319
c9.33301 147.333 22.333 241 39 281c26 61.333 81.333 92 166 92c70.667 2.66699 118.667 -21.333 144 -72c15.333 -27.333 24 -78.666 26 -153.999c0 -12 -0.333008 -33.667 -1 -65s-1 -55.333 -1 -72c0 -8 -0.333008 -19.5 -1 -34.5s-1.66699 -26.5 -3 -34.5
c-1.33301 -15.333 -2 -33.333 -2 -54v-71c-1.33301 -18 -2 -45.333 -2 -82c0 -45.333 1.33301 -96.666 4 -153.999c8 -108 54.333 -162 139 -162c60.667 3.33301 106.667 24.666 138 63.999z" />
    <glyph glyph-name="Ucircumflex" unicode="&#xdb;" horiz-adv-x="1122" 
d="M354 1544c66.667 94 135 143.334 205 148.001c74 4 147 -45.333 219 -148c44 -57.333 69.333 -118 76 -182c2.66699 -19.333 -5 -32.333 -23 -39c-16.667 -9.33301 -47.667 -14 -93 -14s-70 9.33301 -74 28c-2.66699 15.333 -13.667 44 -33 86
c-23.333 45.333 -44.666 71.333 -63.999 78c-19.333 -6.66699 -40.333 -32.667 -63 -78c-20.667 -38 -32.334 -66.667 -35.001 -86c-4 -19.333 -28.5 -28.833 -73.5 -28.5s-75.833 5.16602 -92.5 14.499c-19.333 6.66699 -27.333 19.667 -24 39c6 64 31 124.667 75 182z
M707 336.001l-0.000976562 94c-2.66699 106.667 -4.33398 199 -5.00098 277c-1.33301 32.667 -2 79.667 -2 141c0 109.333 2.33301 177 7 203c8 62.667 22.833 106.334 44.5 131.001s59.167 39 112.5 43c56 5.33301 99 -7 129 -37
c40.667 -36.667 62.667 -115.334 66 -236.001c1.33301 -28.667 2 -76.334 2 -143.001v-160c-1.33301 -36.667 -2 -87 -2 -151c0 -188.667 -5 -314.334 -15 -377.001c-18 -118.667 -64.333 -181 -139 -187c-31.333 -1.33301 -64.666 7 -99.999 25l-37 18
c-10.667 5.33301 -23.667 8.33301 -39 9c-8 0 -18.333 -3 -31 -9c-50.667 -18 -95 -29.333 -133 -34c-26 -5.33301 -60.667 -6.66602 -104 -3.99902c-190 9.33301 -311 96 -363 260c-27.333 87.333 -42.333 199.333 -45 336c-1.33301 108 1.33398 214.333 8.00098 319
c9.33301 147.333 22.333 241 39 281c26 61.333 81.333 92 166 92c70.667 2.66699 118.667 -21.333 144 -72c15.333 -27.333 24 -78.666 26 -153.999c0 -12 -0.333008 -33.667 -1 -65s-1 -55.333 -1 -72c0 -8 -0.333008 -19.5 -1 -34.5s-1.66699 -26.5 -3 -34.5
c-1.33301 -15.333 -2 -33.333 -2 -54v-71c-1.33301 -18 -2 -45.333 -2 -82c0 -45.333 1.33301 -96.666 4 -153.999c8 -108 54.333 -162 139 -162c60.667 3.33301 106.667 24.666 138 63.999z" />
    <glyph glyph-name="Udieresis" unicode="&#xdc;" horiz-adv-x="1122" 
d="M231 1505c6.66699 38 25.501 67.668 56.501 89.001s66.167 32 105.5 32c45.333 0 83.666 -13.667 114.999 -41c32.667 -32.667 45.667 -71.667 39 -117c-2.66699 -36.667 -17.334 -68 -44.001 -94s-64 -39.667 -112 -41c-49.333 -2.66699 -89.666 11.666 -120.999 42.999
c-35.333 28.667 -48.333 71.667 -39 129zM653.001 1499c6.66699 38 25.501 67.668 56.501 89.001s66.167 32 105.5 32c45.333 0 83.666 -13.667 114.999 -41c32.667 -32.667 45.667 -71.667 39 -117c-2.66699 -36.667 -17.334 -68 -44.001 -94s-64 -39.667 -112 -41
c-49.333 -2.66699 -89.666 11.666 -120.999 42.999c-35.333 28.667 -48.333 71.667 -39 129zM707.002 336.002l-0.000976562 94c-2.66699 106.667 -4.33398 199 -5.00098 277c-1.33301 32.667 -2 79.667 -2 141c0 109.333 2.33301 177 7 203
c8 62.667 22.833 106.334 44.5 131.001s59.167 39 112.5 43c56 5.33301 99 -7 129 -37c40.667 -36.667 62.667 -115.334 66 -236.001c1.33301 -28.667 2 -76.334 2 -143.001v-160c-1.33301 -36.667 -2 -87 -2 -151c0 -188.667 -5 -314.334 -15 -377.001
c-18 -118.667 -64.333 -181 -139 -187c-31.333 -1.33301 -64.666 7 -99.999 25l-37 18c-10.667 5.33301 -23.667 8.33301 -39 9c-8 0 -18.333 -3 -31 -9c-50.667 -18 -95 -29.333 -133 -34c-26 -5.33301 -60.667 -6.66602 -104 -3.99902c-190 9.33301 -311 96 -363 260
c-27.333 87.333 -42.333 199.333 -45 336c-1.33301 108 1.33398 214.333 8.00098 319c9.33301 147.333 22.333 241 39 281c26 61.333 81.333 92 166 92c70.667 2.66699 118.667 -21.333 144 -72c15.333 -27.333 24 -78.666 26 -153.999c0 -12 -0.333008 -33.667 -1 -65
s-1 -55.333 -1 -72c0 -8 -0.333008 -19.5 -1 -34.5s-1.66699 -26.5 -3 -34.5c-1.33301 -15.333 -2 -33.333 -2 -54v-71c-1.33301 -18 -2 -45.333 -2 -82c0 -45.333 1.33301 -96.666 4 -153.999c8 -108 54.333 -162 139 -162c60.667 3.33301 106.667 24.666 138 63.999z" />
    <glyph glyph-name="Yacute" unicode="&#xdd;" horiz-adv-x="964" 
d="M653 1724c27.333 31.333 68.333 41.667 123 31c53.333 -12 80.666 -40.667 81.999 -86c1.33301 -58.667 -41 -131.667 -127 -219c-86 -86 -150.667 -125.667 -194 -119c-52 6.66699 -72.667 38.667 -62 96c6.66699 40.667 33.334 97.334 80.001 170.001
c38 57.333 70.667 99.666 98 126.999zM311 489.001c-34 22 -75.002 72.0049 -123.002 150.005c-39.333 60 -70.666 116.667 -93.999 170c-48 113.333 -78 209.666 -90 288.999c-9.33301 64 -1 110.333 25 139c27.333 30 69.333 46.667 126 50s95 -4.33398 115 -23.001
c34 -26 67.667 -93 101 -201l37 -119l11 -31.5c4.66699 -13 7.66699 -21.5 9 -25.5c15.333 -45.333 29 -74.666 41 -87.999c8 -9.33301 17 -14.333 27 -15c15.333 0 29 17.333 41 52c12 31.333 24 71.333 36 120c5.33301 18 11.666 40.667 18.999 68
c16.667 74 30.334 127.333 41.001 160c8 27.333 17.167 47.833 27.5 61.5s27.166 24.5 50.499 32.5c22 10.667 56.833 14.334 104.5 11.001s84.5 -16 110.5 -38c28.667 -24.667 41.667 -62.667 39 -114c-1.33301 -34 -11.666 -83.333 -30.999 -148
c-9.33301 -28.667 -30 -85.334 -62 -170.001c-61.333 -147.333 -134.333 -258 -219 -332c-1.33301 -18 -2 -45 -2 -81v-84c0 -44 -1.33301 -92 -4 -144c-5.33301 -58.667 -19.666 -102.334 -42.999 -131.001s-64.333 -44.334 -123 -47.001c-78 -1.33301 -129.667 28 -155 88
c-16.667 35.333 -23.667 96 -21 182c1.33301 9.33301 2.33301 25.666 3 48.999s1 40.666 1 51.999c0 54 0.666992 93.333 2 118z" />
    <glyph glyph-name="agrave" unicode="&#xe0;" horiz-adv-x="1015" 
d="M444 1485c38 -42 71.6689 -84.334 101.002 -127.001c44 -68 70.667 -124.667 80 -170c9.33301 -57.333 -12 -89.333 -64 -96c-44 -6.66699 -108.833 32.833 -194.5 118.5s-127.834 158.834 -126.501 219.501c1.33301 45.333 28.666 74 81.999 86
c51.333 9.33301 92 -1 122 -31zM614.002 902.999c30 83.333 87.333 128.336 172 135.003c56 1.33301 97 -15 123 -49c20.667 -28.667 35.667 -74.334 45 -137.001c5.33301 -31.333 9.66602 -80.333 12.999 -147c2.66699 -86 3.33398 -153 2.00098 -201
c-2.66699 -131.333 -11 -227 -25 -287c-22 -96.667 -65 -145.667 -129 -147c-32.667 0 -64 6 -94 18c-16.667 4 -29 8.66699 -37 14c-12 4 -24.333 6.33301 -37 7c-8 0 -18.333 -3 -31 -9c-40.667 -18 -85 -31 -133 -39c-28.667 -5.33301 -60 -7.33301 -94 -6
c-116 5.33301 -205.333 49.666 -268 132.999c-56 74 -82.667 172.333 -80 295c2.66699 109.333 38 203.666 106 282.999c70.667 79.333 159 127 265 143c64 8 131.333 6 202 -6zM631.002 643.002c-49.333 16.667 -94.333 22 -135 16c-44 -8 -79.333 -29 -106 -63
s-38 -76.333 -34 -127c2.66699 -42 16.334 -76.667 41.001 -104c27.333 -30 59.666 -45.333 96.999 -46c48 0 95 15.333 141 46c-1.33301 12 -2 33 -2 63v74v76c-1.33301 16 -2 37.667 -2 65z" />
    <glyph glyph-name="aacute" unicode="&#xe1;" horiz-adv-x="1015" 
d="M674 1483c27.333 31.333 68.334 41.333 123.001 30c53.333 -12 80.666 -40.667 81.999 -86c1.33301 -58.667 -41 -131.667 -127 -219c-86 -86 -151 -125.333 -195 -118c-52 6.66699 -72.333 38.667 -61 96c6.66699 40.667 33 97.334 79 170.001
c38.667 57.333 71.667 99.666 99 126.999zM614.001 903c30 83.333 87.333 128.336 172 135.003c56 1.33301 97 -15 123 -49c20.667 -28.667 35.667 -74.334 45 -137.001c5.33301 -31.333 9.66602 -80.333 12.999 -147c2.66699 -86 3.33398 -153 2.00098 -201
c-2.66699 -131.333 -11 -227 -25 -287c-22 -96.667 -65 -145.667 -129 -147c-32.667 0 -64 6 -94 18c-16.667 4 -29 8.66699 -37 14c-12 4 -24.333 6.33301 -37 7c-8 0 -18.333 -3 -31 -9c-40.667 -18 -85 -31 -133 -39c-28.667 -5.33301 -60 -7.33301 -94 -6
c-116 5.33301 -205.333 49.666 -268 132.999c-56 74 -82.667 172.333 -80 295c2.66699 109.333 38 203.666 106 282.999c70.667 79.333 159 127 265 143c64 8 131.333 6 202 -6zM631.001 643.003c-49.333 16.667 -94.333 22 -135 16c-44 -8 -79.333 -29 -106 -63
s-38 -76.333 -34 -127c2.66699 -42 16.334 -76.667 41.001 -104c27.333 -30 59.666 -45.333 96.999 -46c48 0 95 15.333 141 46c-1.33301 12 -2 33 -2 63v74v76c-1.33301 16 -2 37.667 -2 65z" />
    </font>
</defs>
</svg>
